<svg xmlns="http://www.w3.org/2000/svg" version="1.1" xmlns:xlink="http://www.w3.org/1999/xlink" width="64" height="64"><svg width="64" height="64" viewBox="0 0 64 64" fill="none" xmlns="http://www.w3.org/2000/svg">
<path d="M10.5013 22L12.9052 25.9909C12.9765 26.1104 13.1243 26.1682 13.2629 26.1318L17.9255 24.9285L16.6622 29.3695C16.6239 29.5016 16.6859 29.6424 16.81 29.7103L21 32L16.81 34.2897C16.6846 34.3576 16.6239 34.4984 16.6622 34.6305L17.9255 39.0715L13.2629 37.8682C13.1243 37.8318 12.9765 37.8909 12.9052 38.0091L10.5013 42L8.09743 38.0091C8.02615 37.8896 7.8783 37.8318 7.73969 37.8682L3.07713 39.0715L4.34046 34.6305C4.37874 34.4984 4.3167 34.3576 4.19261 34.2897L0 32.0025L4.18997 29.7128C4.31538 29.6449 4.3761 29.5041 4.33782 29.3721L3.07449 24.931L7.73705 26.1343C7.87566 26.1708 8.02351 26.1117 8.09479 25.9935L10.5013 22Z" fill="#F37E43"></path>
<path d="M32.1846 22.8149C37.2572 22.8149 41.369 26.9269 41.3691 31.9995H41.376V41.1851H32.1914V41.1841C32.1891 41.1841 32.1868 41.1851 32.1846 41.1851C27.1118 41.185 23 37.0723 23 31.9995C23.0002 26.9269 27.1119 22.815 32.1846 22.8149Z" fill="#00ADB5"></path>
<path d="M51.9426 40.8865C51.9426 35.4762 56.6179 31.0704 62.375 31.042L62.375 23C51.8922 23.03 43.375 31.042 43.375 40.8865C43.375 40.9243 43.375 40.9622 43.3767 41L51.9443 41C51.9426 40.9622 51.9426 40.9243 51.9426 40.8865Z" fill="#A3BF5E"></path>
</svg><style>@media (prefers-color-scheme: light) { :root { filter: none; } }
@media (prefers-color-scheme: dark) { :root { filter: none; } }
</style></svg>