<svg width="155" height="155" viewBox="0 0 155 155" fill="none" xmlns="http://www.w3.org/2000/svg">
<g clip-path="url(#clip0_484_2763)">
<path d="M38.5889 77.1776C59.9009 77.1776 77.1777 59.9008 77.1777 38.5887C77.1777 17.2767 59.9009 -0.00012207 38.5889 -0.00012207C17.2768 -0.00012207 0 17.2767 0 38.5887C0 59.9008 17.2768 77.1776 38.5889 77.1776Z" fill="#A3BF5E"/>
<path d="M115.78 77.1777C137.092 77.1777 154.369 59.9009 154.369 38.5889C154.369 17.2768 137.092 0 115.78 0C94.4682 0 77.1914 17.2768 77.1914 38.5889C77.1914 59.9009 94.4682 77.1777 115.78 77.1777Z" fill="#A3BF5E"/>
<path d="M38.5889 154.369C59.9009 154.369 77.1777 137.092 77.1777 115.78C77.1777 94.468 59.9009 77.1912 38.5889 77.1912C17.2768 77.1912 0 94.468 0 115.78C0 137.092 17.2768 154.369 38.5889 154.369Z" fill="#A3BF5E"/>
<path d="M115.78 154.369C137.092 154.369 154.369 137.092 154.369 115.78C154.369 94.468 137.092 77.1912 115.78 77.1912C94.4682 77.1912 77.1914 94.468 77.1914 115.78C77.1914 137.092 94.4682 154.369 115.78 154.369Z" fill="#A3BF5E"/>
</g>
<defs>
<clipPath id="clip0_484_2763">
<rect width="154.383" height="154.383" fill="white"/>
</clipPath>
</defs>
</svg>
