<svg width="85" height="79" viewBox="0 0 85 79" fill="none" xmlns="http://www.w3.org/2000/svg">
<g clip-path="url(#clip0_2004_842)">
<path fill-rule="evenodd" clip-rule="evenodd" d="M67.9255 2.65225C70.4964 3.02923 72.4958 3.68657 74.2173 4.53836C76.008 5.42474 77.362 7.0818 78.5634 8.35709C82.1972 12.214 86.919 21.221 84.1835 28.1797C82.9762 31.2516 81.8584 34.32 79.816 36.5759C78.6313 37.8452 77.4467 39.1158 76.2633 40.3851L76.3933 40.4042C76.5878 40.4328 76.7834 40.4626 76.9779 40.4913C77.1616 40.2312 77.5684 40.0833 77.9144 39.9962L78.1661 40.0868C77.7605 42.196 75.5201 43.7278 74.1839 44.996C72.713 46.5576 71.2408 48.1204 69.7699 49.682C69.449 50.0137 67.205 52.3746 66.9783 52.3877C66.5107 52.4163 65.4286 50.968 65.1077 50.6817C65.3976 49.0426 67.2992 48.5105 68.0949 47.1064C67.817 47.1183 67.9625 47.2185 67.7704 47.0586C67.6977 46.5862 68.2202 45.6461 68.3717 45.2441C68.2894 45.0556 68.2059 44.8671 68.1236 44.6786C67.9899 43.9736 69.0374 43.4606 68.7177 42.9154C68.5876 42.7424 68.4827 42.709 68.3812 42.4955C71.2814 39.2899 74.2972 36.4101 76.7918 32.7965C77.2558 32.1249 77.1926 31.458 77.5541 30.7947C78.6242 28.8299 79.8052 26.0395 79.4402 23.4591C79.3233 22.6287 79.643 22.0537 79.4951 21.2986C78.9439 18.4712 78.0599 15.5532 76.5174 13.1875C74.8973 10.7025 71.8516 6.81815 66.2017 7.10685C61.7161 7.3359 58.4151 9.6479 56.0828 12.2152C55.2358 13.1481 53.7624 16.1938 52.5909 16.5099C51.924 16.0793 51.7391 15.3945 50.8038 15.1332C50.1978 15.3325 49.7993 15.317 48.9392 15.1738C48.7805 14.903 48.6207 14.6334 48.462 14.3626L48.3976 14.353C48.2664 14.4819 48.2175 14.6286 48.1829 14.903C47.9812 14.8505 47.5267 14.5857 47.7283 14.835L47.5339 14.8064C47.3991 14.4986 47.4981 14.7348 47.1676 14.5928C46.8909 12.962 45.8709 11.7452 44.8473 10.5462C43.2642 8.68874 41.8255 6.63801 39.2415 5.37702C37.2516 4.40474 34.4659 4.49302 32.3329 4.50972C25.8944 4.55864 20.7335 6.20495 16.2109 8.46208C13.7462 9.69204 10.8318 11.0747 9.89766 13.8711C11.8446 13.1111 12.5866 10.7132 14.7495 10.2551L14.8712 10.3267C14.6529 11.194 13.7057 11.7344 13.1772 12.3488C12.3361 13.5454 11.4939 14.7431 10.6516 15.9409C10.3033 16.6471 9.95493 17.3534 9.60658 18.0596C9.25942 18.977 9.7044 19.6081 9.11507 20.473L8.53051 20.3859C7.72643 22.2231 6.92236 24.0615 6.11829 25.8987C5.60054 27.0678 6.13977 27.3816 5.13886 28.027L4.57696 27.7848C3.49493 34.0301 4.96349 39.3806 7.31844 43.7421C7.71331 44.5057 8.10938 45.2704 8.50545 46.0339C9.84159 47.6217 12.1369 48.693 13.3012 50.3954C14.6493 52.3674 16.6261 53.8348 18.1615 55.666C20.4758 58.4266 22.7055 61.1788 25.4685 63.6805C27.1553 65.4294 28.8434 67.1795 30.5315 68.9284C32.2804 70.9087 33.4316 73.1122 36.7374 74.0809C37.9757 74.088 39.214 74.0964 40.4511 74.1035C41.0333 73.6085 41.6167 73.1134 42.1989 72.6183C43.7605 71.4933 45.3221 70.3671 46.8825 69.241L47.1342 69.3316L47.1533 69.6513L47.2177 69.6609C47.4349 69.3937 47.6508 69.1252 47.8679 68.858C44.8819 67.8845 43.5111 65.3184 45.0489 62.3574C46.3111 59.9285 48.3642 57.57 51.664 57.1513C52.4323 57.0534 53.7958 57.4221 54.2396 57.6929C56.7139 59.202 54.6011 61.8564 54.1585 63.6041L56.4824 62.2572C58.4342 61.3005 63.966 60.1313 65.0457 63.1591C65.6529 64.8615 63.2741 66.1738 62.3758 66.8347C59.2287 69.1527 55.5829 70.2502 50.5342 70.5771C50.6523 72.9833 46.1858 75.1116 44.5419 76.5098C43.9752 76.9918 43.2892 77.9545 42.447 78.1024L42.3253 78.0308C42.2215 77.8388 42.1165 77.6467 42.0127 77.4558L41.9483 77.4463L41.9102 77.7052C42.2418 77.9247 42.2048 78.1835 41.9901 78.5104C40.7339 78.5104 39.0756 78.7967 37.6572 78.1847C36.8388 77.8316 36.3485 77.2447 35.74 76.7889C34.7427 76.0588 33.7442 75.3287 32.7457 74.5986C31.5944 73.2971 30.442 72.0349 28.9043 70.96C26.4789 69.2636 24.2349 67.2845 22.2403 65.316C20.7705 64.0396 19.2996 62.7631 17.8298 61.4878C13.9574 57.6595 10.2591 53.595 7.01065 49.4088C5.12096 46.9739 2.00608 42.8307 1.783 39.9055L1.76033 40.0606C1.61836 39.9341 1.63387 39.9294 1.61121 39.7206L1.72573 39.8435C1.35472 38.4668 0.983698 37.0889 0.613873 35.711C0.455207 34.5419 0.297733 33.3716 0.139066 32.2024C-0.157986 30.7422 0.0591364 28.6092 0.430154 27.1155C0.807136 25.5981 0.658014 24.1677 1.2211 22.6848C2.63359 18.9615 3.38279 16.2487 5.35956 13.1445C5.4705 12.5445 5.58265 11.9432 5.69359 11.3431C6.40342 9.87934 6.99752 8.56587 8.05451 7.51604C9.73661 5.84467 15.1003 3.56608 17.9563 2.53415C22.3667 0.935549 27.4965 -0.0486613 33.3982 0.0109878C35.0004 0.0264966 37.1418 -0.134556 38.9814 0.416602C41.9233 1.29822 44.0754 2.24186 46.0868 3.53506C47.2941 4.31169 48.5229 5.01197 49.3019 6.02243C49.7099 6.55211 48.8342 6.83962 48.9798 7.29653C49.6443 8.18888 50.3088 9.08004 50.972 9.97239L51.1092 9.94018C53.6789 6.29562 58.2671 3.8846 63.1977 2.74411C64.3597 2.67015 65.5217 2.59499 66.6824 2.52102C67.0964 2.56516 67.5104 2.6093 67.9243 2.65225H67.9255ZM53.1791 61.7097C52.8749 62.324 51.3741 64.7076 51.4528 64.8388C50.9172 65.1777 49.049 67.4849 48.7221 68.0301L48.5121 68.104C44.1231 64.2829 47.6902 59.8307 51.788 58.1188C53.8245 58.4075 53.9092 60.2387 53.1803 61.7108L53.1791 61.7097ZM61.2424 65.9746C59.5186 67.5076 56.7485 68.5192 54.0822 69.0369C52.8856 69.2684 50.5796 69.1372 49.7254 69.7647C49.5918 69.5392 49.8029 69.377 49.9556 69.1109C50.3935 69.1407 50.8325 69.1706 51.2703 69.2004C51.4695 68.7542 51.6688 68.308 51.868 67.8607C52.5325 67.1127 53.197 66.3659 53.8603 65.6179C55.8036 63.6876 58.2648 62.9993 61.3343 62.2322C64.4683 62.67 62.1252 65.1896 61.2436 65.9734L61.2424 65.9746Z" fill="#D54A6E"/>
<path d="M21.9383 27.9601C21.819 27.187 21.2249 24.8392 18.5204 24.8392C15.4581 24.8392 14.4774 27.8121 14.4774 30.6657C14.4774 33.5194 15.4581 36.4923 18.5204 36.4923C20.7203 36.4923 21.5816 34.9462 21.9682 32.9551H28.3888C28.3888 37.2355 24.9113 41.7831 18.6982 41.7831C11.8314 41.7831 7.9375 36.9372 7.9375 30.6657C7.9375 23.9779 12.1583 19.5483 18.6982 19.5483C24.5247 19.5782 27.735 22.6394 28.2993 27.9613H21.9383V27.9601Z" fill="white"/>
<path d="M28.3008 27.9604H37.3245V32.9543H28.3008V27.9604Z" fill="#D54A6E"/>
<path d="M37.0234 20.0532H43.5634V41.2776H37.0234V20.0532Z" fill="white"/>
<path d="M43.5051 20.0532H59.9134V25.4932H50.0438V28.1393H58.5152V33.1927H50.0438V41.2788H43.5039V20.0544L43.5051 20.0532Z" fill="#D54A6E"/>
<path d="M58.5273 20.0532H73.5494V25.4932H65.0673V28.1393H73.5386V33.1927H65.0673V41.2788H58.5273V20.0544V20.0532Z" fill="#CEB1BD"/>
<path d="M16.2021 44.0775C16.5135 43.8341 16.9107 43.7148 17.3545 43.7148C17.5848 43.7148 17.9093 43.7614 18.1097 43.8174C18.161 43.8306 18.1908 43.8389 18.229 43.8341C18.2337 43.932 18.254 44.2016 18.2886 44.4617C18.2672 44.4915 18.2027 44.4962 18.1729 44.47C18.1085 44.1801 17.9164 43.8473 17.2984 43.8473C16.6459 43.8473 16.0911 44.2612 16.0911 45.1452C16.0911 46.0292 16.659 46.5362 17.3581 46.5362C17.9093 46.5362 18.1514 46.1772 18.2504 45.9254C18.2803 45.904 18.3447 45.9123 18.3614 45.9421C18.3316 46.164 18.2206 46.4456 18.1562 46.5267C18.1049 46.5351 18.0536 46.5518 18.0071 46.5696C17.9128 46.6042 17.6062 46.6675 17.333 46.6675C16.9489 46.6675 16.5815 46.5911 16.2701 46.3812C15.9289 46.1461 15.6641 45.7584 15.6641 45.2073C15.6641 44.7337 15.8776 44.328 16.2021 44.0763V44.0775Z" fill="white"/>
<path d="M21.209 45.6101C21.1791 45.5158 21.1624 45.5039 21.0336 45.5039H20.3894C20.2832 45.5039 20.257 45.517 20.2271 45.6065L20.078 46.055C20.0136 46.2471 19.9838 46.3628 19.9838 46.4094C19.9838 46.4607 20.0052 46.4857 20.1078 46.4953L20.2486 46.5084C20.2784 46.5298 20.2784 46.5978 20.2402 46.6145C20.1293 46.6062 19.9969 46.6062 19.7965 46.6014C19.6557 46.6014 19.5018 46.6098 19.3873 46.6145C19.3622 46.5978 19.3527 46.5287 19.3789 46.5084L19.5197 46.4953C19.6223 46.4869 19.7165 46.4392 19.7762 46.2865C19.8525 46.0896 19.973 45.8129 20.152 45.3345L20.5874 44.1821C20.6471 44.0282 20.6733 43.947 20.6602 43.879C20.7628 43.8492 20.8355 43.7729 20.8821 43.7168C20.9071 43.7168 20.937 43.7251 20.9465 43.755C21.0014 43.9423 21.0706 44.1391 21.1338 44.3264L21.7184 46.0419C21.8424 46.4094 21.8973 46.4726 22.081 46.4941L22.1967 46.5072C22.2266 46.5287 22.2182 46.5967 22.1967 46.6134C22.0214 46.605 21.8722 46.6002 21.6802 46.6002C21.475 46.6002 21.3127 46.6086 21.1899 46.6134C21.1553 46.5967 21.1517 46.5275 21.1815 46.5072L21.3056 46.4941C21.3951 46.4857 21.4547 46.4595 21.4547 46.4177C21.4547 46.3712 21.4332 46.2936 21.3986 46.191L21.2113 45.6113L21.209 45.6101ZM20.3631 45.2295C20.3285 45.3273 20.3333 45.3321 20.4526 45.3321H20.9775C21.1016 45.3321 21.1099 45.3154 21.0718 45.1997L20.8415 44.5042C20.8069 44.4016 20.7687 44.287 20.7437 44.2357H20.7353C20.7222 44.2572 20.6805 44.3598 20.6327 44.4875L20.3643 45.2307L20.3631 45.2295Z" fill="white"/>
<path d="M23.7013 44.4231C23.7013 43.9793 23.693 43.9149 23.4412 43.885L23.3732 43.8767C23.3482 43.86 23.3565 43.7824 23.3816 43.7705C23.5653 43.7789 23.7097 43.7836 23.885 43.7836H24.6879C24.9611 43.7836 25.2128 43.7836 25.2641 43.7705C25.2892 43.8433 25.3154 44.1499 25.3321 44.3384C25.3154 44.3646 25.2462 44.373 25.2259 44.3467C25.1615 44.1463 25.1233 43.9972 24.9014 43.9411C24.812 43.9196 24.6748 43.9161 24.4875 43.9161H24.1797C24.052 43.9161 24.052 43.9244 24.052 44.0866V44.9408C24.052 45.0601 24.0652 45.0601 24.1928 45.0601H24.4398C24.6187 45.0601 24.7511 45.0518 24.8024 45.0339C24.8537 45.0172 24.8836 44.9909 24.905 44.8848L24.9396 44.7094C24.9611 44.6843 25.0339 44.6843 25.0506 44.7142C25.0506 44.8168 25.0339 44.9826 25.0339 45.1448C25.0339 45.2987 25.0506 45.461 25.0506 45.554C25.0339 45.5838 24.9611 45.5838 24.9396 45.5588L24.9014 45.393C24.8847 45.3166 24.8549 45.2522 24.769 45.2307C24.7094 45.214 24.6068 45.2092 24.441 45.2092H24.194C24.0664 45.2092 24.0532 45.214 24.0532 45.325V45.9262C24.0532 46.1529 24.0664 46.2972 24.1344 46.37C24.1857 46.4213 24.2751 46.4678 24.6509 46.4678C24.979 46.4678 25.1031 46.4511 25.1973 46.4034C25.2737 46.3605 25.3894 46.2114 25.5003 45.9895C25.5301 45.968 25.5898 45.9811 25.6065 46.0193C25.5767 46.1684 25.4705 46.4977 25.4144 46.6122C25.0303 46.6038 24.6509 46.5991 24.2704 46.5991H23.8862C23.7025 46.5991 23.5581 46.6038 23.3052 46.6122C23.2802 46.5991 23.2706 46.5311 23.2969 46.506L23.4377 46.4929C23.681 46.4714 23.7025 46.407 23.7025 45.9596V44.4231H23.7013Z" fill="white"/>
<path d="M27.6291 46.6689C27.27 46.6689 27.0445 46.558 26.9634 46.5115C26.9121 46.4172 26.8572 46.1142 26.8477 45.9138C26.8691 45.884 26.9336 45.8756 26.9503 45.9007C27.0147 46.1178 27.1889 46.5365 27.6839 46.5365C28.043 46.5365 28.2172 46.3015 28.2172 46.0462C28.2172 45.8589 28.179 45.6489 27.8677 45.4485L27.462 45.1837C27.2485 45.0429 27.0016 44.7995 27.0016 44.45C27.0016 44.0444 27.3177 43.7163 27.8724 43.7163C28.0048 43.7163 28.1587 43.7414 28.2697 43.7712C28.3246 43.7879 28.3854 43.7974 28.4188 43.7974C28.457 43.9 28.4952 44.1386 28.4952 44.3176C28.4785 44.3438 28.4093 44.3557 28.389 44.3307C28.3341 44.1255 28.2184 43.8487 27.808 43.8487C27.3976 43.8487 27.2998 44.1267 27.2998 44.3223C27.2998 44.5693 27.505 44.7494 27.6625 44.8473L28.0037 45.0608C28.2721 45.2278 28.5369 45.4748 28.5369 45.8804C28.5369 46.3492 28.1826 46.6701 27.6279 46.6701L27.6291 46.6689Z" fill="white"/>
<path d="M31.5254 45.6101C31.4955 45.5158 31.4788 45.5039 31.35 45.5039H30.7058C30.5996 45.5039 30.5734 45.517 30.5435 45.6065L30.3944 46.055C30.33 46.2471 30.3002 46.3628 30.3002 46.4094C30.3002 46.4607 30.3216 46.4857 30.4242 46.4953L30.565 46.5084C30.5948 46.5298 30.5948 46.5978 30.5567 46.6145C30.4457 46.6062 30.3133 46.6062 30.1129 46.6014C29.9721 46.6014 29.8182 46.6098 29.7037 46.6145C29.6786 46.5978 29.6691 46.5287 29.6953 46.5084L29.8361 46.4953C29.9387 46.4869 30.0329 46.4392 30.0926 46.2865C30.1689 46.0896 30.2894 45.8129 30.4684 45.3345L30.9038 44.1821C30.9635 44.0282 30.9897 43.947 30.9766 43.879C31.0792 43.8492 31.152 43.7729 31.1985 43.7168C31.2235 43.7168 31.2534 43.7251 31.2629 43.755C31.3178 43.9423 31.387 44.1391 31.4502 44.3264L32.0348 46.0419C32.1588 46.4094 32.2137 46.4726 32.3974 46.4941L32.5131 46.5072C32.543 46.5287 32.5346 46.5967 32.5131 46.6134C32.3378 46.605 32.1887 46.6002 31.9966 46.6002C31.7914 46.6002 31.6291 46.6086 31.5063 46.6134C31.4717 46.5967 31.4681 46.5275 31.4979 46.5072L31.622 46.4941C31.7115 46.4857 31.7711 46.4595 31.7711 46.4177C31.7711 46.3712 31.7496 46.2936 31.7162 46.191L31.5289 45.6113L31.5254 45.6101ZM30.6807 45.2295C30.6461 45.3273 30.6509 45.3321 30.7702 45.3321H31.2951C31.4192 45.3321 31.4275 45.3154 31.3894 45.1997L31.1591 44.5042C31.1245 44.4016 31.0863 44.287 31.0613 44.2357H31.0529C31.0398 44.2572 30.9981 44.3598 30.9503 44.4875L30.6819 45.2307L30.6807 45.2295Z" fill="white"/>
<path d="M34.0165 44.4278C34.0165 44.0222 34.0034 43.9495 33.8292 43.928L33.6932 43.9113C33.6634 43.8898 33.6634 43.8218 33.698 43.8051C33.9366 43.7836 34.2313 43.7705 34.65 43.7705C34.9149 43.7705 35.1666 43.792 35.3622 43.8982C35.5674 44.0043 35.7165 44.1964 35.7165 44.4958C35.7165 44.9015 35.3968 45.1234 35.1833 45.2081C35.1618 45.2331 35.1833 45.2761 35.2048 45.3106C35.5459 45.8606 35.7726 46.203 36.0625 46.4464C36.1353 46.5108 36.2415 46.5573 36.3572 46.5657C36.3786 46.574 36.3822 46.6086 36.3619 46.6253C36.3238 46.6384 36.2558 46.6468 36.1746 46.6468C35.812 46.6468 35.5937 46.5406 35.2906 46.1088C35.1797 45.9513 35.0043 45.6566 34.8719 45.4645C34.8075 45.3703 34.7395 45.3274 34.5689 45.3274C34.3768 45.3274 34.3685 45.3321 34.3685 45.4216V45.9596C34.3685 46.4082 34.3768 46.4595 34.625 46.4929L34.7144 46.506C34.7395 46.5275 34.7311 46.6003 34.7061 46.6122C34.514 46.6038 34.3685 46.5991 34.1979 46.5991C34.0189 46.5991 33.865 46.6038 33.6646 46.6122C33.6396 46.5991 33.63 46.5358 33.6563 46.506L33.7624 46.4929C34.0094 46.4631 34.0189 46.407 34.0189 45.9596V44.4278H34.0165ZM34.3661 45.0375C34.3661 45.1138 34.3661 45.1615 34.3792 45.1782C34.3923 45.1914 34.4556 45.1997 34.6739 45.1997C34.8278 45.1997 34.99 45.183 35.1129 45.0888C35.2286 44.9993 35.3264 44.8502 35.3264 44.5591C35.3264 44.2215 35.1177 43.9017 34.644 43.9017C34.3792 43.9017 34.3661 43.9184 34.3661 44.0377V45.0363V45.0375Z" fill="white"/>
<path d="M38.4124 45.5456C38.4589 45.5755 38.4768 45.6268 38.4768 45.6816C38.4768 45.7246 38.4637 45.7628 38.4422 45.7878L37.4472 45.882C37.4007 45.8439 37.3828 45.7878 37.3828 45.7449C37.3828 45.7019 37.3959 45.6637 37.4174 45.6387L38.4124 45.5444V45.5456Z" fill="white"/>
<path d="M40.1866 44.4314C40.1866 43.9793 40.1782 43.9065 39.9265 43.885L39.8203 43.8767C39.7953 43.86 39.8036 43.7824 39.8287 43.7705C40.0422 43.7789 40.1878 43.7836 40.3667 43.7836C40.5457 43.7836 40.6828 43.7789 40.8964 43.7705C40.9226 43.7836 40.931 43.86 40.9047 43.8767L40.7986 43.885C40.5468 43.9065 40.5385 43.9793 40.5385 44.4314V45.9513C40.5385 46.4034 40.5468 46.4631 40.7986 46.4929L40.9047 46.506C40.9298 46.5227 40.9214 46.6003 40.8964 46.6122C40.6828 46.6038 40.5373 46.5991 40.3667 46.5991C40.1878 46.5991 40.0422 46.6038 39.8287 46.6122C39.8036 46.5991 39.7941 46.5311 39.8203 46.506L39.9265 46.4929C40.1782 46.4631 40.1866 46.4034 40.1866 45.9513V44.4314Z" fill="white"/>
<path d="M44.8693 46.1652C44.8693 46.3358 44.8943 46.4384 44.9719 46.4682C44.985 46.4814 44.985 46.5064 44.9671 46.5195C44.9158 46.5195 44.8394 46.5362 44.7583 46.5577C44.5317 46.6174 44.2251 46.6687 43.9948 46.6687C43.4866 46.6687 43.0213 46.5279 42.6933 46.1951C42.4368 45.9386 42.3008 45.6021 42.3008 45.2264C42.3008 44.8506 42.4201 44.4962 42.6849 44.2147C42.9712 43.9165 43.3936 43.7148 44.0378 43.7148C44.2811 43.7148 44.5066 43.7614 44.5794 43.7793C44.6605 43.796 44.7929 43.8258 44.8442 43.8174C44.8442 43.9582 44.8705 44.1801 44.9086 44.4366C44.8955 44.4712 44.8192 44.4748 44.7929 44.4497C44.6736 43.9892 44.3539 43.8437 43.9185 43.8437C43.0905 43.8437 42.7279 44.433 42.7279 45.0725C42.7279 45.892 43.1502 46.5362 44.0079 46.5362C44.2728 46.5362 44.4303 46.4802 44.4768 46.4086C44.4983 46.3788 44.5197 46.3024 44.5197 46.1652V45.9946C44.5197 45.6355 44.5066 45.6105 44.2418 45.5807L44.0545 45.5592C44.0199 45.5425 44.0246 45.4649 44.0545 45.453C44.1785 45.4614 44.4136 45.4661 44.6653 45.4661C44.8323 45.4661 44.9766 45.4614 45.1174 45.453C45.1472 45.4697 45.152 45.5341 45.1222 45.5592L45.0542 45.5675C44.8752 45.589 44.8705 45.7083 44.8705 45.9266V46.1652H44.8693Z" fill="white"/>
<path d="M46.8619 44.4231C46.8619 43.9745 46.8536 43.9065 46.5839 43.885L46.4778 43.8767C46.4527 43.86 46.4611 43.7824 46.4861 43.7705C46.7247 43.7789 46.8703 43.7836 47.0409 43.7836C47.2114 43.7836 47.3522 43.7789 47.5658 43.7705C47.5908 43.7836 47.6004 43.86 47.5741 43.8767L47.4715 43.885C47.2198 43.9065 47.2114 43.9745 47.2114 44.4231V45.9083C47.2114 46.1768 47.2246 46.2877 47.3009 46.3688C47.3474 46.4153 47.4286 46.4666 47.7662 46.4666C48.1289 46.4666 48.2183 46.4499 48.2863 46.4106C48.3722 46.3593 48.4832 46.2054 48.5679 45.9883C48.5929 45.9668 48.674 45.9835 48.674 46.0133C48.674 46.0598 48.5547 46.4953 48.4951 46.611C48.2768 46.6026 47.8724 46.5979 47.4322 46.5979H47.0397C46.8607 46.5979 46.7235 46.6026 46.4849 46.611C46.4599 46.5979 46.4503 46.5299 46.4766 46.5048L46.6042 46.4917C46.8524 46.4666 46.8607 46.4058 46.8607 45.9584V44.4219L46.8619 44.4231Z" fill="white"/>
<path d="M50.2482 44.4231C50.2482 43.9793 50.2398 43.9149 49.9881 43.885L49.9201 43.8767C49.8951 43.86 49.9034 43.7824 49.9285 43.7705C50.1122 43.7789 50.2565 43.7836 50.4319 43.7836H51.2348C51.508 43.7836 51.7597 43.7836 51.811 43.7705C51.8372 43.8433 51.8623 44.1499 51.879 44.3384C51.8623 44.3646 51.7931 44.373 51.7728 44.3467C51.7084 44.1463 51.6702 43.9972 51.4483 43.9411C51.3588 43.9196 51.2217 43.9161 51.0344 43.9161H50.7266C50.5989 43.9161 50.5989 43.9244 50.5989 44.0866V44.9408C50.5989 45.0601 50.612 45.0601 50.7397 45.0601H50.9878C51.1668 45.0601 51.2992 45.0518 51.3505 45.0339C51.4018 45.0172 51.4316 44.9909 51.4531 44.8848L51.4877 44.7094C51.5092 44.6843 51.5819 44.6843 51.5986 44.7142C51.5986 44.8168 51.5819 44.9826 51.5819 45.1448C51.5819 45.2987 51.5986 45.461 51.5986 45.554C51.5819 45.5838 51.5092 45.5838 51.4877 45.5588L51.4495 45.393C51.4328 45.3166 51.403 45.2522 51.3171 45.2307C51.2574 45.214 51.1548 45.2092 50.989 45.2092H50.7409C50.6132 45.2092 50.6001 45.214 50.6001 45.325V45.9262C50.6001 46.1529 50.6132 46.2972 50.6812 46.37C50.7325 46.4213 50.822 46.4678 51.1978 46.4678C51.5259 46.4678 51.6499 46.4511 51.7442 46.4034C51.8205 46.3605 51.9362 46.2114 52.0472 45.9895C52.077 45.968 52.1367 45.9811 52.1534 46.0193C52.1235 46.1684 52.0162 46.4977 51.9613 46.6122C51.5772 46.6038 51.1978 46.5991 50.8172 46.5991H50.4331C50.2494 46.5991 50.105 46.6038 49.8521 46.6122C49.8271 46.5991 49.8175 46.5311 49.8438 46.506L49.9845 46.4929C50.2279 46.4714 50.2494 46.407 50.2494 45.9596V44.4231H50.2482Z" fill="white"/>
<path d="M54.1759 46.6689C53.8168 46.6689 53.5914 46.558 53.5103 46.5115C53.459 46.4172 53.4041 46.1142 53.3945 45.9138C53.416 45.884 53.4804 45.8756 53.4971 45.9007C53.5616 46.1178 53.7357 46.5365 54.2308 46.5365C54.5899 46.5365 54.7641 46.3015 54.7641 46.0462C54.7641 45.8589 54.7259 45.6489 54.4145 45.4485L54.0089 45.1837C53.7954 45.0429 53.5484 44.7995 53.5484 44.45C53.5484 44.0444 53.8646 43.7163 54.4193 43.7163C54.5517 43.7163 54.7056 43.7414 54.8166 43.7712C54.8726 43.7879 54.9323 43.7974 54.9657 43.7974C55.0039 43.9 55.042 44.1386 55.042 44.3176C55.0253 44.3438 54.9561 44.3557 54.9359 44.3307C54.8798 44.1255 54.7653 43.8487 54.3549 43.8487C53.9445 43.8487 53.8467 44.1267 53.8467 44.3223C53.8467 44.5693 54.0519 44.7494 54.2093 44.8473L54.5505 45.0608C54.819 45.2278 55.0838 45.4748 55.0838 45.8804C55.0838 46.3492 54.7295 46.6701 54.1747 46.6701L54.1759 46.6689Z" fill="white"/>
<path d="M56.878 44.4314C56.878 43.9793 56.8696 43.9065 56.6179 43.885L56.5117 43.8767C56.4855 43.86 56.495 43.7824 56.5201 43.7705C56.7336 43.7789 56.8792 43.7836 57.0581 43.7836C57.2371 43.7836 57.3743 43.7789 57.5878 43.7705C57.6129 43.7836 57.6224 43.86 57.5961 43.8767L57.49 43.885C57.2383 43.9065 57.2299 43.9793 57.2299 44.4314V45.9513C57.2299 46.4034 57.2383 46.4631 57.49 46.4929L57.5961 46.506C57.6212 46.5227 57.6129 46.6003 57.5878 46.6122C57.3743 46.6038 57.2287 46.5991 57.0581 46.5991C56.8792 46.5991 56.7336 46.6038 56.5201 46.6122C56.495 46.5991 56.4855 46.5311 56.5117 46.506L56.6179 46.4929C56.8696 46.4631 56.878 46.4034 56.878 45.9513V44.4314Z" fill="white"/>
<path d="M60.5332 45.6101C60.5033 45.5158 60.4866 45.5039 60.3578 45.5039H59.7136C59.6074 45.5039 59.5812 45.517 59.5513 45.6065L59.4022 46.055C59.3378 46.2471 59.308 46.3628 59.308 46.4094C59.308 46.4607 59.3294 46.4857 59.432 46.4953L59.5728 46.5084C59.6026 46.5298 59.6026 46.5978 59.5645 46.6145C59.4535 46.6062 59.3211 46.6062 59.1207 46.6014C58.9799 46.6014 58.826 46.6098 58.7115 46.6145C58.6864 46.5978 58.6769 46.5287 58.7031 46.5084L58.8439 46.4953C58.9465 46.4869 59.0407 46.4392 59.1004 46.2865C59.1767 46.0896 59.2972 45.8129 59.4762 45.3345L59.9116 44.1821C59.9713 44.0282 59.9975 43.947 59.9844 43.879C60.087 43.8492 60.1598 43.7729 60.2063 43.7168C60.2313 43.7168 60.2624 43.7251 60.2707 43.755C60.3268 43.9423 60.3948 44.1391 60.458 44.3264L61.0426 46.0419C61.1666 46.4094 61.2215 46.4726 61.4052 46.4941L61.521 46.5072C61.5508 46.5287 61.5424 46.5967 61.521 46.6134C61.3456 46.605 61.1965 46.6002 61.0044 46.6002C60.7992 46.6002 60.637 46.6086 60.5141 46.6134C60.4795 46.5967 60.4759 46.5275 60.5057 46.5072L60.6298 46.4941C60.7193 46.4857 60.7789 46.4595 60.7789 46.4177C60.7789 46.3712 60.7574 46.2936 60.724 46.191L60.5367 45.6113L60.5332 45.6101ZM59.6885 45.2295C59.6539 45.3273 59.6587 45.3321 59.778 45.3321H60.3029C60.427 45.3321 60.4353 45.3154 60.3972 45.1997L60.1669 44.5042C60.1323 44.4016 60.0941 44.287 60.0691 44.2357H60.0607C60.0476 44.2572 60.0047 44.3598 59.9581 44.4875L59.6897 45.2307L59.6885 45.2295Z" fill="white"/>
<path d="M63.4416 46.6689C63.0825 46.6689 62.857 46.558 62.7759 46.5115C62.7246 46.4172 62.6697 46.1142 62.6602 45.9138C62.6816 45.884 62.7461 45.8756 62.7628 45.9007C62.8272 46.1178 63.0014 46.5365 63.4964 46.5365C63.8555 46.5365 64.0297 46.3015 64.0297 46.0462C64.0297 45.8589 63.9915 45.6489 63.6802 45.4485L63.2745 45.1837C63.061 45.0429 62.8141 44.7995 62.8141 44.45C62.8141 44.0444 63.1302 43.7163 63.6849 43.7163C63.8174 43.7163 63.9712 43.7414 64.0822 43.7712C64.1383 43.7879 64.1979 43.7974 64.2313 43.7974C64.2695 43.9 64.3077 44.1386 64.3077 44.3176C64.291 44.3438 64.2218 44.3557 64.2015 44.3307C64.1454 44.1255 64.0309 43.8487 63.6205 43.8487C63.2101 43.8487 63.1123 44.1267 63.1123 44.3223C63.1123 44.5693 63.3175 44.7494 63.475 44.8473L63.8162 45.0608C64.0846 45.2278 64.3494 45.4748 64.3494 45.8804C64.3494 46.3492 63.9951 46.6701 63.4404 46.6701L63.4416 46.6689Z" fill="white"/>
<path d="M16.2019 48.8515C16.2019 48.9255 16.2103 48.9255 16.2926 48.9255H16.4787C16.5908 48.9255 16.6791 48.9195 16.7113 48.9088C16.7411 48.898 16.7638 48.8837 16.7793 48.8133L16.8044 48.7036C16.8187 48.6869 16.8652 48.6869 16.8759 48.7036C16.8759 48.7692 16.8652 48.8789 16.8652 48.9803C16.8652 49.0817 16.8759 49.1831 16.8759 49.2464C16.8652 49.2631 16.8235 49.2631 16.8044 49.2464L16.7769 49.139C16.7638 49.0901 16.7411 49.0507 16.6898 49.0352C16.6517 49.0245 16.5825 49.0221 16.4787 49.0221H16.2926C16.2103 49.0221 16.2019 49.0245 16.2019 49.0961V49.4766C16.2019 49.7641 16.2079 49.8059 16.3689 49.819L16.462 49.8274C16.4787 49.8381 16.4727 49.887 16.456 49.8954C16.295 49.8894 16.2007 49.887 16.0922 49.887C15.9717 49.887 15.8786 49.8894 15.7498 49.8954C15.7331 49.887 15.7283 49.8429 15.7438 49.8274L15.8118 49.819C15.9705 49.7999 15.9764 49.7641 15.9764 49.4766V48.49C15.9764 48.2025 15.9705 48.1643 15.8118 48.1453L15.7677 48.1393C15.751 48.1285 15.7569 48.0796 15.7736 48.0713C15.8882 48.0773 15.9824 48.0796 16.091 48.0796H16.5956C16.771 48.0796 16.9296 48.0796 16.9654 48.0713C16.9654 48.1977 16.9678 48.329 16.9738 48.4328C16.9654 48.4495 16.9272 48.4578 16.9082 48.4411C16.8867 48.3182 16.8533 48.2168 16.7161 48.181C16.6564 48.1643 16.5658 48.1643 16.45 48.1643H16.283C16.2007 48.1643 16.2007 48.1703 16.2007 48.2741V48.8527L16.2019 48.8515Z" fill="white"/>
<path d="M19.3786 49.2513C19.3595 49.1916 19.3488 49.1833 19.2665 49.1833H18.8525C18.7845 49.1833 18.7678 49.1916 18.7487 49.2489L18.6533 49.5364C18.6127 49.6593 18.5937 49.7333 18.5937 49.7643C18.5937 49.7977 18.6068 49.8132 18.6736 49.8192L18.7642 49.8275C18.7833 49.8406 18.7833 49.8848 18.7583 49.8955C18.6867 49.8895 18.602 49.8895 18.4732 49.8872C18.3825 49.8872 18.2847 49.8931 18.2107 49.8955C18.194 49.8848 18.1892 49.8406 18.2047 49.8275L18.2954 49.8192C18.361 49.8132 18.4219 49.7834 18.46 49.6843C18.509 49.5579 18.5865 49.3801 18.701 49.0735L18.9802 48.3339C19.0184 48.2349 19.0351 48.1836 19.0267 48.1394C19.0923 48.1203 19.1388 48.0714 19.1687 48.0356C19.1854 48.0356 19.2045 48.0416 19.2092 48.0607C19.245 48.1812 19.2892 48.3076 19.3297 48.4281L19.7055 49.5293C19.7854 49.7643 19.82 49.806 19.9381 49.8192L20.0121 49.8275C20.0312 49.8406 20.0252 49.8848 20.0121 49.8955C19.9 49.8895 19.8033 49.8872 19.6805 49.8872C19.5492 49.8872 19.4454 49.8931 19.3655 49.8955C19.344 49.8848 19.3405 49.8406 19.3595 49.8275L19.4395 49.8192C19.4967 49.8132 19.5349 49.7977 19.5349 49.7702C19.5349 49.7404 19.5218 49.6903 19.4991 49.6247L19.3786 49.2525V49.2513ZM18.837 49.0079C18.8155 49.0712 18.8179 49.0735 18.8943 49.0735H19.2307C19.3106 49.0735 19.3154 49.0628 19.2915 48.9888L19.1436 48.5427C19.1221 48.477 19.0971 48.4031 19.0804 48.3697H19.0744C19.0661 48.3828 19.0386 48.4496 19.0088 48.5307L18.8358 49.0079H18.837Z" fill="white"/>
<path d="M22.2899 49.1557C22.3531 49.2846 22.4127 49.411 22.4783 49.5315H22.4843C22.5583 49.4027 22.6263 49.2607 22.6955 49.1211L22.9532 48.5974C23.076 48.3481 23.156 48.1977 23.1619 48.0713C23.255 48.0796 23.3122 48.0796 23.3671 48.0796C23.4351 48.0796 23.5258 48.0773 23.6105 48.0713C23.6272 48.082 23.6272 48.1285 23.6129 48.1393L23.5556 48.1453C23.3826 48.162 23.3612 48.2133 23.3635 48.4053C23.3695 48.6952 23.3719 49.2022 23.3934 49.5971C23.4017 49.7343 23.3993 49.8083 23.5282 49.819L23.6153 49.8274C23.632 49.8441 23.6284 49.8846 23.6093 49.8954C23.4972 49.8894 23.385 49.887 23.286 49.887C23.187 49.887 23.0665 49.8894 22.9543 49.8954C22.9353 49.8822 22.9329 49.8429 22.9484 49.8274L23.0283 49.819C23.1631 49.8059 23.1631 49.7617 23.1631 49.5864L23.1548 48.4435H23.1488C23.1297 48.4733 23.0259 48.6928 22.9711 48.8002L22.7277 49.2798C22.6048 49.5208 22.4807 49.7784 22.4318 49.9049C22.4259 49.9133 22.4151 49.9156 22.4044 49.9156C22.3984 49.9156 22.3853 49.9133 22.3793 49.9049C22.3328 49.7594 22.2016 49.4909 22.1383 49.3573L21.8914 48.8288C21.8341 48.7024 21.7769 48.5604 21.716 48.434H21.7101C21.6993 48.6034 21.691 48.7632 21.6826 48.9219C21.6743 49.0889 21.6635 49.3335 21.6635 49.5661C21.6635 49.7689 21.6802 49.813 21.7864 49.8214L21.8902 49.8297C21.9093 49.8464 21.9069 49.8894 21.8878 49.8977C21.7948 49.8918 21.6874 49.8894 21.5836 49.8894C21.4965 49.8894 21.3975 49.8918 21.3045 49.8977C21.2878 49.8846 21.283 49.8429 21.2985 49.8297L21.3593 49.8214C21.4739 49.8047 21.5132 49.788 21.5287 49.5971C21.5454 49.4158 21.5586 49.2655 21.5753 48.9947C21.5884 48.7668 21.6003 48.5342 21.6051 48.3838C21.6111 48.2109 21.5884 48.1703 21.4214 48.1488L21.3772 48.1429C21.3641 48.1262 21.3665 48.0856 21.388 48.0749C21.4703 48.0808 21.5359 48.0832 21.6039 48.0832C21.6671 48.0832 21.7411 48.0832 21.8318 48.0749C21.821 48.1822 21.889 48.3516 21.9737 48.527L22.2863 49.1593L22.2899 49.1557Z" fill="white"/>
<path d="M25.3387 48.496C25.3387 48.2061 25.3327 48.1596 25.1717 48.1453L25.1037 48.1393C25.087 48.1285 25.0929 48.0796 25.1097 48.0713C25.2468 48.0773 25.3399 48.0796 25.4544 48.0796C25.5689 48.0796 25.6572 48.0773 25.7944 48.0713C25.8111 48.0796 25.8159 48.1285 25.8004 48.1393L25.7324 48.1453C25.5713 48.1584 25.5654 48.2049 25.5654 48.496V49.4718C25.5654 49.7617 25.5713 49.7999 25.7324 49.8202L25.8004 49.8285C25.8171 49.8393 25.8111 49.8882 25.7944 49.8966C25.6572 49.8906 25.5642 49.8882 25.4544 49.8882C25.3399 49.8882 25.2457 49.8906 25.1097 49.8966C25.0929 49.8882 25.0882 49.8441 25.1037 49.8285L25.1717 49.8202C25.3327 49.8011 25.3387 49.7629 25.3387 49.4718V48.496Z" fill="white"/>
<path d="M27.5213 48.49C27.5213 48.2025 27.5154 48.1584 27.3436 48.1453L27.2756 48.1393C27.2589 48.1285 27.2648 48.0796 27.2815 48.0713C27.4354 48.0773 27.5285 48.0796 27.6382 48.0796C27.748 48.0796 27.8386 48.0773 27.9746 48.0713C27.9913 48.0796 27.9961 48.1285 27.9806 48.1393L27.915 48.1453C27.7539 48.1584 27.748 48.2025 27.748 48.49V49.4432C27.748 49.6162 27.7563 49.6866 27.8052 49.7391C27.8351 49.7689 27.8876 49.8023 28.1035 49.8023C28.3361 49.8023 28.3934 49.7916 28.4375 49.7665C28.4924 49.7331 28.564 49.6353 28.6189 49.4957C28.6356 49.4826 28.6869 49.4933 28.6869 49.5124C28.6869 49.5422 28.6105 49.8226 28.5723 49.8954C28.4328 49.8894 28.1727 49.887 27.8899 49.887H27.6382C27.5237 49.887 27.4354 49.8894 27.2815 49.8954C27.2648 49.887 27.2601 49.8429 27.2756 49.8274L27.3579 49.819C27.5165 49.8023 27.5225 49.7641 27.5225 49.4766V48.49H27.5213Z" fill="white"/>
<path d="M30.6771 49.4707C30.6771 49.7641 30.6938 49.8071 30.8417 49.819L30.9455 49.8274C30.9622 49.8441 30.9563 49.887 30.9396 49.8954C30.7701 49.8894 30.6771 49.887 30.5673 49.887C30.4528 49.887 30.3538 49.8894 30.2083 49.8954C30.1916 49.887 30.1868 49.8429 30.2023 49.8274L30.287 49.819C30.4457 49.8023 30.4516 49.7641 30.4516 49.4707V49.3311C30.4516 49.1808 30.4433 49.145 30.3645 48.9911L30.0412 48.3612C29.9482 48.1798 29.9064 48.1667 29.8253 48.1524L29.749 48.1393C29.7323 48.1202 29.7358 48.082 29.7549 48.0713C29.842 48.0773 29.941 48.0796 30.0723 48.0796C30.2035 48.0796 30.2965 48.0773 30.3657 48.0713C30.3908 48.0796 30.3908 48.1238 30.3741 48.1393L30.3383 48.1453C30.2429 48.1584 30.2238 48.1727 30.2238 48.1942C30.2238 48.2216 30.2953 48.3779 30.3085 48.4053C30.4099 48.6081 30.5113 48.8241 30.6186 49.0137C30.7033 48.8682 30.794 48.7095 30.8763 48.5509C30.9527 48.4089 31.0541 48.2228 31.0541 48.1894C31.0541 48.1727 31.0052 48.1536 30.9396 48.1453L30.8906 48.1393C30.8716 48.1202 30.8739 48.082 30.8966 48.0713C30.9956 48.0773 31.0744 48.0796 31.1591 48.0796C31.2438 48.0796 31.3201 48.0773 31.4144 48.0713C31.4358 48.0844 31.4394 48.1238 31.4203 48.1393L31.344 48.1524C31.202 48.1775 31.1197 48.3493 30.9825 48.5855L30.8095 48.8837C30.689 49.0925 30.6807 49.1163 30.6807 49.3275V49.4695L30.6771 49.4707Z" fill="white"/>
<path d="M35.1082 48.8515C35.1082 48.9255 35.1165 48.9255 35.1988 48.9255H35.3849C35.4971 48.9255 35.5854 48.9195 35.6176 48.9088C35.6474 48.898 35.6701 48.8837 35.6856 48.8133L35.7106 48.7036C35.7249 48.6869 35.7715 48.6869 35.7822 48.7036C35.7822 48.7692 35.7715 48.8789 35.7715 48.9803C35.7715 49.0817 35.7822 49.1831 35.7822 49.2464C35.7715 49.2631 35.7297 49.2631 35.7106 49.2464L35.6832 49.139C35.6701 49.0901 35.6474 49.0507 35.5961 49.0352C35.5579 49.0245 35.4887 49.0221 35.3849 49.0221H35.1988C35.1165 49.0221 35.1082 49.0245 35.1082 49.0961V49.4766C35.1082 49.7641 35.1141 49.8059 35.2752 49.819L35.3682 49.8274C35.3849 49.8381 35.379 49.887 35.3623 49.8954C35.2012 49.8894 35.107 49.887 34.9984 49.887C34.8779 49.887 34.7849 49.8894 34.656 49.8954C34.6393 49.887 34.6345 49.8429 34.6501 49.8274L34.7181 49.819C34.8767 49.7999 34.8827 49.7641 34.8827 49.4766V48.49C34.8827 48.2025 34.8767 48.1643 34.7181 48.1453L34.6739 48.1393C34.6572 48.1285 34.6632 48.0796 34.6799 48.0713C34.7944 48.0773 34.8886 48.0796 34.9972 48.0796H35.5018C35.6772 48.0796 35.8359 48.0796 35.8717 48.0713C35.8717 48.1977 35.8741 48.329 35.88 48.4328C35.8717 48.4495 35.8335 48.4578 35.8144 48.4411C35.7929 48.3182 35.7595 48.2168 35.6223 48.181C35.5627 48.1643 35.472 48.1643 35.3563 48.1643H35.1893C35.107 48.1643 35.107 48.1703 35.107 48.2741V48.8527L35.1082 48.8515Z" fill="white"/>
<path d="M37.3906 49.0017C37.3906 48.4541 37.801 48.0342 38.3665 48.0342C38.9988 48.0342 39.3173 48.4923 39.3173 48.9742C39.3173 49.5278 38.895 49.9298 38.3665 49.9298C37.7581 49.9298 37.3906 49.4944 37.3906 49.0017ZM39.0417 49.0601C39.0417 48.608 38.8413 48.1201 38.3188 48.1201C38.0336 48.1201 37.6638 48.3145 37.6638 48.9146C37.6638 49.3202 37.8607 49.8463 38.4011 49.8463C38.7303 49.8463 39.0417 49.5994 39.0417 49.0601Z" fill="white"/>
<path d="M42.3594 48.7668C42.3594 48.5974 42.3535 48.2824 42.3069 48.2001C42.2878 48.1667 42.2389 48.1476 42.1697 48.1429L42.1017 48.1369C42.085 48.1178 42.091 48.082 42.1077 48.0713C42.2115 48.0773 42.3129 48.0796 42.4203 48.0796C42.5348 48.0796 42.6088 48.0773 42.7078 48.0713C42.7292 48.0844 42.7269 48.1202 42.7137 48.1369L42.6481 48.1429C42.5801 48.1488 42.5276 48.1727 42.5109 48.2085C42.4728 48.2991 42.4728 48.6141 42.4728 48.768V49.077C42.4728 49.3156 42.4346 49.5673 42.2807 49.7319C42.1626 49.8608 41.9598 49.9323 41.757 49.9323C41.5685 49.9323 41.3788 49.8966 41.2452 49.782C41.0996 49.6615 41.0316 49.4611 41.0316 49.1354V48.4888C41.0316 48.2037 41.0257 48.1572 40.867 48.1441L40.799 48.1381C40.7823 48.1274 40.7883 48.0808 40.805 48.0725C40.9422 48.0784 41.0352 48.0808 41.145 48.0808C41.2547 48.0808 41.3478 48.0784 41.4814 48.0725C41.4981 48.0808 41.5029 48.1274 41.4874 48.1381L41.4217 48.1441C41.2631 48.1572 41.2571 48.2037 41.2571 48.4888V49.0806C41.2571 49.522 41.3943 49.8119 41.813 49.8119C42.2103 49.8119 42.3606 49.4993 42.3606 49.0829V48.768L42.3594 48.7668Z" fill="white"/>
<path d="M45.8277 49.4217C45.8277 49.5041 45.8277 49.8297 45.8361 49.9013C45.8301 49.918 45.8146 49.9311 45.7836 49.9311C45.7502 49.8846 45.6714 49.7892 45.4328 49.5172L44.797 48.7942C44.723 48.7095 44.5369 48.4841 44.4797 48.4244H44.4737C44.463 48.4578 44.4606 48.5198 44.4606 48.6022V49.1998C44.4606 49.3287 44.463 49.6842 44.5095 49.7665C44.5262 49.7963 44.5811 49.813 44.6491 49.819L44.7338 49.8274C44.7505 49.8488 44.7469 49.8822 44.7278 49.8954C44.6049 49.8894 44.5083 49.887 44.4069 49.887C44.2924 49.887 44.2184 49.8894 44.1218 49.8954C44.1027 49.8822 44.1003 49.8429 44.1158 49.8274L44.1898 49.819C44.253 49.8107 44.2971 49.794 44.3102 49.7641C44.3484 49.6651 44.346 49.3311 44.346 49.1998V48.4077C44.346 48.3314 44.3437 48.2729 44.2864 48.2109C44.2482 48.1727 44.1826 48.1536 44.117 48.1453L44.0705 48.1393C44.0538 48.1226 44.0538 48.082 44.0764 48.0713C44.191 48.0796 44.3365 48.0796 44.3866 48.0796C44.4307 48.0796 44.4773 48.0773 44.5131 48.0713C44.5679 48.2109 44.8912 48.5723 44.9819 48.6737L45.2479 48.972C45.4364 49.1831 45.5712 49.3358 45.7001 49.4683H45.706C45.7168 49.4551 45.7168 49.411 45.7168 49.3537V48.768C45.7168 48.6391 45.7144 48.2836 45.6619 48.2013C45.6452 48.1763 45.6022 48.1608 45.4925 48.1464L45.446 48.1405C45.4269 48.1238 45.4293 48.0808 45.4519 48.0725C45.5784 48.0784 45.6714 48.0808 45.7752 48.0808C45.8933 48.0808 45.9637 48.0784 46.058 48.0725C46.0794 48.0856 46.0794 48.125 46.0639 48.1405L46.0258 48.1464C45.9375 48.1596 45.8838 48.1822 45.8719 48.2037C45.8253 48.3027 45.8301 48.6415 45.8301 48.768V49.4229L45.8277 49.4217Z" fill="white"/>
<path d="M47.7646 48.4351C47.7646 48.2431 47.7515 48.1858 47.6358 48.1691L47.5761 48.1608C47.5547 48.1476 47.5511 48.1035 47.5785 48.0928C47.8112 48.0796 48.0331 48.0713 48.2657 48.0713C48.4983 48.0713 48.6904 48.088 48.8681 48.1536C49.238 48.2884 49.4241 48.5998 49.4241 48.9613C49.4241 49.3227 49.2571 49.6078 48.9445 49.7773C48.7667 49.8727 48.5413 49.9085 48.3313 49.9085C48.1559 49.9085 47.9806 49.887 47.8851 49.887C47.7706 49.887 47.6716 49.8894 47.5427 49.8954C47.526 49.887 47.5213 49.8429 47.5368 49.8274L47.6 49.819C47.7587 49.7975 47.7646 49.7641 47.7646 49.4766V48.4351ZM47.9889 49.4134C47.9889 49.5589 47.9973 49.646 48.0438 49.7116C48.1034 49.7963 48.2084 49.8238 48.3802 49.8238C48.9111 49.8238 49.1497 49.4754 49.1497 48.966C49.1497 48.6642 49.0041 48.1548 48.2872 48.1548C48.1261 48.1548 48.0378 48.1763 48.0163 48.193C47.9949 48.2097 47.9889 48.2777 47.9889 48.4017V49.4122V49.4134Z" fill="white"/>
<path d="M51.9255 49.2513C51.9064 49.1916 51.8957 49.1833 51.8134 49.1833H51.3994C51.3314 49.1833 51.3147 49.1916 51.2956 49.2489L51.2002 49.5364C51.1596 49.6593 51.1405 49.7333 51.1405 49.7643C51.1405 49.7977 51.1536 49.8132 51.2205 49.8192L51.3111 49.8275C51.3302 49.8406 51.3302 49.8848 51.3052 49.8955C51.2336 49.8895 51.1489 49.8895 51.02 49.8872C50.9294 49.8872 50.8315 49.8931 50.7576 49.8955C50.7409 49.8848 50.7361 49.8406 50.7516 49.8275L50.8423 49.8192C50.9079 49.8132 50.9687 49.7834 51.0069 49.6843C51.0558 49.5579 51.1334 49.3801 51.2479 49.0735L51.5271 48.3339C51.5652 48.2349 51.5819 48.1836 51.5736 48.1394C51.6392 48.1203 51.6857 48.0714 51.7155 48.0356C51.7322 48.0356 51.7513 48.0416 51.7561 48.0607C51.7919 48.1812 51.836 48.3076 51.8766 48.4281L52.2524 49.5293C52.3323 49.7643 52.3669 49.806 52.485 49.8192L52.559 49.8275C52.5781 49.8406 52.5721 49.8848 52.559 49.8955C52.4468 49.8895 52.3502 49.8872 52.2273 49.8872C52.0961 49.8872 51.9923 49.8931 51.9124 49.8955C51.8909 49.8848 51.8873 49.8406 51.9064 49.8275L51.9863 49.8192C52.0436 49.8132 52.0818 49.7977 52.0818 49.7702C52.0818 49.7404 52.0687 49.6903 52.046 49.6247L51.9255 49.2525V49.2513ZM51.3827 49.0079C51.3612 49.0712 51.3636 49.0735 51.44 49.0735H51.7764C51.8563 49.0735 51.8611 49.0628 51.836 48.9888L51.6881 48.5427C51.6666 48.477 51.6416 48.4031 51.6249 48.3697H51.6189C51.6106 48.3828 51.5831 48.4496 51.5533 48.5307L51.3803 49.0079H51.3827Z" fill="white"/>
<path d="M54.5905 49.4766C54.5905 49.7641 54.5965 49.8058 54.7552 49.819L54.8423 49.8273C54.859 49.838 54.853 49.8869 54.8363 49.8953C54.68 49.8893 54.587 49.887 54.4772 49.887C54.3675 49.887 54.272 49.8893 54.0966 49.8953C54.0799 49.8869 54.0752 49.8404 54.0966 49.8273L54.1957 49.819C54.3519 49.8058 54.3651 49.7641 54.3651 49.4766V48.2526C54.3651 48.1679 54.3651 48.1643 54.2828 48.1643H54.1324C54.0143 48.1643 53.864 48.1702 53.796 48.2323C53.7304 48.2919 53.703 48.3528 53.6731 48.4208C53.6517 48.4375 53.6123 48.4232 53.6016 48.4017C53.6457 48.2788 53.6863 48.1034 53.7054 47.9937C53.7137 47.9877 53.7495 47.9853 53.7578 47.9937C53.7745 48.082 53.8652 48.0784 53.9905 48.0784H55.0999C55.2479 48.0784 55.2729 48.0724 55.3135 48.002C55.3266 47.9961 55.3576 47.9997 55.3624 48.0104C55.3326 48.1225 55.3135 48.3444 55.3218 48.4267C55.3111 48.4482 55.2646 48.4482 55.2503 48.4327C55.2419 48.3647 55.2228 48.2633 55.1823 48.2323C55.119 48.1858 55.0152 48.1643 54.8649 48.1643H54.6705C54.5882 48.1643 54.5905 48.1667 54.5905 48.2573V49.4766Z" fill="white"/>
<path d="M57.0028 48.496C57.0028 48.2061 56.9968 48.1596 56.8357 48.1453L56.7677 48.1393C56.751 48.1285 56.757 48.0796 56.7737 48.0713C56.9109 48.0773 57.004 48.0796 57.1185 48.0796C57.233 48.0796 57.3213 48.0773 57.4585 48.0713C57.4752 48.0796 57.48 48.1285 57.4645 48.1393L57.3965 48.1453C57.2354 48.1584 57.2294 48.2049 57.2294 48.496V49.4718C57.2294 49.7617 57.2354 49.7999 57.3965 49.8202L57.4645 49.8285C57.4812 49.8393 57.4752 49.8882 57.4585 49.8966C57.3213 49.8906 57.2282 49.8882 57.1185 49.8882C57.004 49.8882 56.9097 49.8906 56.7737 49.8966C56.757 49.8882 56.7522 49.8441 56.7677 49.8285L56.8357 49.8202C56.9968 49.8011 57.0028 49.7629 57.0028 49.4718V48.496Z" fill="white"/>
<path d="M58.9648 49.0017C58.9648 48.4541 59.3752 48.0342 59.9395 48.0342C60.5718 48.0342 60.8903 48.4923 60.8903 48.9742C60.8903 49.5278 60.468 49.9298 59.9395 49.9298C59.3311 49.9298 58.9648 49.4944 58.9648 49.0017ZM60.6171 49.0601C60.6171 48.608 60.4167 48.1201 59.8942 48.1201C59.6091 48.1201 59.2392 48.3145 59.2392 48.9146C59.2392 49.3202 59.4361 49.8463 59.9765 49.8463C60.3058 49.8463 60.6171 49.5994 60.6171 49.0601Z" fill="white"/>
<path d="M64.1012 49.4217C64.1012 49.5041 64.1012 49.8297 64.1095 49.9013C64.1035 49.918 64.088 49.9311 64.057 49.9311C64.0236 49.8846 63.9449 49.7892 63.7063 49.5172L63.0704 48.7942C62.9965 48.7095 62.8104 48.4841 62.7531 48.4244H62.7471C62.7364 48.4578 62.734 48.5198 62.734 48.6022V49.1998C62.734 49.3287 62.7364 49.6842 62.7829 49.7665C62.7996 49.7963 62.8545 49.813 62.9225 49.819L63.0072 49.8274C63.0239 49.8488 63.0203 49.8822 63.0012 49.8954C62.8784 49.8894 62.7817 49.887 62.6803 49.887C62.5658 49.887 62.4918 49.8894 62.3952 49.8954C62.3761 49.8822 62.3737 49.8429 62.3892 49.8274L62.4632 49.819C62.5264 49.8107 62.5706 49.794 62.5837 49.7641C62.6219 49.6651 62.6195 49.3311 62.6195 49.1998V48.4077C62.6195 48.3314 62.6171 48.2729 62.5598 48.2109C62.5216 48.1727 62.456 48.1536 62.3904 48.1453L62.3439 48.1393C62.3272 48.1226 62.3272 48.082 62.3499 48.0713C62.4644 48.0796 62.6099 48.0796 62.66 48.0796C62.7042 48.0796 62.7507 48.0773 62.7865 48.0713C62.8414 48.2109 63.1647 48.5723 63.2553 48.6737L63.5214 48.972C63.7099 49.1831 63.8447 49.3358 63.9735 49.4683H63.9795C63.9902 49.4551 63.9902 49.411 63.9902 49.3537V48.768C63.9902 48.6391 63.9878 48.2836 63.9353 48.2013C63.9186 48.1763 63.8757 48.1608 63.7659 48.1464L63.7194 48.1405C63.7003 48.1238 63.7027 48.0808 63.7254 48.0725C63.8518 48.0784 63.9449 48.0808 64.0487 48.0808C64.1668 48.0808 64.2372 48.0784 64.3314 48.0725C64.3529 48.0856 64.3529 48.125 64.3374 48.1405L64.2992 48.1464C64.2109 48.1596 64.1572 48.1822 64.1453 48.2037C64.0988 48.3027 64.1035 48.6415 64.1035 48.768V49.4229L64.1012 49.4217Z" fill="white"/>
<path d="M15.6953 47.3726H64.3929" stroke="white" stroke-width="0.238596" stroke-miterlimit="10"/>
</g>
<defs>
<clipPath id="clip0_2004_842">
<rect width="85" height="78.5722" fill="white"/>
</clipPath>
</defs>
</svg>
