<svg width="126" height="126" viewBox="0 0 126 126" fill="none" xmlns="http://www.w3.org/2000/svg">
<g filter="url(#filter0_d_2004_1873)">
<circle cx="63.2047" cy="58.2047" r="58.2047" fill="#F5F1EA"/>
<g clip-path="url(#clip0_2004_1873)">
<path d="M62.878 22.531L71.1982 37.0331C71.4449 37.4672 71.9566 37.6774 72.4364 37.5449L88.5742 33.1723L84.2017 49.3102C84.0692 49.7899 84.2839 50.3016 84.7134 50.5484L99.2155 58.8686L84.7134 67.1888C84.2794 67.4355 84.0692 67.9473 84.2017 68.427L88.5742 84.5649L72.4364 80.1923C71.9566 80.0598 71.4449 80.2746 71.1982 80.704L62.878 95.2062L54.5577 80.704C54.311 80.27 53.7993 80.0598 53.3195 80.1923L37.1817 84.5649L41.5543 68.427C41.6868 67.9473 41.472 67.4355 41.0425 67.1888L26.5312 58.8777L41.0334 50.5575C41.4674 50.3108 41.6776 49.799 41.5451 49.3193L37.1725 33.1814L53.3104 37.554C53.7901 37.6865 54.3019 37.4718 54.5486 37.0423L62.878 22.531Z" fill="#F37E43"/>
</g>
</g>
<defs>
<filter id="filter0_d_2004_1873" x="0.479249" y="0" width="125.451" height="125.451" filterUnits="userSpaceOnUse" color-interpolation-filters="sRGB">
<feFlood flood-opacity="0" result="BackgroundImageFix"/>
<feColorMatrix in="SourceAlpha" type="matrix" values="0 0 0 0 0 0 0 0 0 0 0 0 0 0 0 0 0 0 127 0" result="hardAlpha"/>
<feOffset dy="4.52075"/>
<feGaussianBlur stdDeviation="2.26038"/>
<feComposite in2="hardAlpha" operator="out"/>
<feColorMatrix type="matrix" values="0 0 0 0 0 0 0 0 0 0 0 0 0 0 0 0 0 0 0.25 0"/>
<feBlend mode="normal" in2="BackgroundImageFix" result="effect1_dropShadow_2004_1873"/>
<feBlend mode="normal" in="SourceGraphic" in2="effect1_dropShadow_2004_1873" result="shape"/>
</filter>
<clipPath id="clip0_2004_1873">
<rect width="72.6889" height="72.6889" fill="white" transform="translate(26.5312 22.531)"/>
</clipPath>
</defs>
</svg>
