<svg width="64" height="28" viewBox="0 0 64 28" fill="none" xmlns="http://www.w3.org/2000/svg">
<path d="M53.0108 27.072C45.1818 27.072 39.3281 21.6851 39.3281 14.0717V13.9998C39.3281 6.67372 45.0741 0.927734 52.8671 0.927734C57.2843 0.927734 60.4087 2.29241 63.0662 4.5908L58.9722 9.5108C57.1766 8.00248 55.381 7.14058 52.903 7.14058C49.2759 7.14058 46.4747 10.1931 46.4747 14.0358V14.1076C46.4747 18.1657 49.3118 21.0746 53.298 21.0746C54.9859 21.0746 56.2788 20.7155 57.3202 20.0331V16.9806H52.3643V11.881H63.9281V23.1934C61.2706 25.3841 57.5716 27.072 53.0108 27.072Z" fill="#111313"/>
<path d="M10.9336 26.5692L21.6355 1.25098H28.3511L39.053 26.5692H31.5832L29.7517 22.0802H20.0553L18.2597 26.5692H10.9336ZM22.1023 16.6574H27.7406L24.9394 9.51083L22.1023 16.6574Z" fill="#111313"/>
<path d="M0 26.6711V1.1709H7.04291V26.6711H0Z" fill="#111313"/>
</svg>
