<svg width="49" height="50" viewBox="0 0 49 50" fill="none" xmlns="http://www.w3.org/2000/svg">
<path d="M24.6452 0.869629C37.9868 0.869629 48.8017 11.6845 48.8017 25.0261C48.8017 38.3677 37.9868 49.1825 24.6452 49.1825C20.3762 49.1899 16.1822 48.0601 12.4946 45.9093L0.498469 49.1825L3.76442 37.1816C1.61198 33.4927 0.481325 29.297 0.488806 25.0261C0.488806 11.6845 11.3036 0.869629 24.6452 0.869629ZM16.4127 13.6725L15.9296 13.6919C15.6172 13.7134 15.312 13.7954 15.031 13.9334C14.7691 14.082 14.5299 14.2675 14.3208 14.4842C14.0309 14.7572 13.8666 14.9939 13.6903 15.2234C12.7968 16.3851 12.3157 17.8113 12.323 19.2768C12.3279 20.4605 12.6371 21.6128 13.1202 22.6901C14.1082 24.869 15.7339 27.176 17.879 29.3138C18.396 29.8284 18.9033 30.3453 19.4492 30.826C22.1147 33.1726 25.2909 34.8649 28.7253 35.7684L30.0974 35.9786C30.5442 36.0027 30.9911 35.9689 31.4404 35.9472C32.1438 35.9101 32.8306 35.7196 33.4527 35.3892C33.7688 35.2257 34.0775 35.0484 34.3779 34.8577C34.3779 34.8577 34.4801 34.7885 34.6798 34.6403C35.0059 34.3988 35.2064 34.2272 35.477 33.9446C35.6799 33.7353 35.849 33.4921 35.9843 33.2151C36.1727 32.8213 36.3611 32.0701 36.4384 31.4444C36.4964 30.9661 36.4795 30.7052 36.4722 30.5434C36.4626 30.2849 36.2476 30.0168 36.0133 29.9032L34.6074 29.2728C34.6074 29.2728 32.5057 28.3572 31.2206 27.7726C31.0861 27.7141 30.942 27.6805 30.7955 27.6736C30.6302 27.6563 30.4631 27.6748 30.3055 27.7277C30.148 27.7806 30.0037 27.8668 29.8824 27.9804C29.8703 27.9756 29.7084 28.1133 27.9619 30.2294C27.8617 30.3641 27.7236 30.4659 27.5653 30.5218C27.407 30.5777 27.2356 30.5852 27.073 30.5434C26.9155 30.5014 26.7613 30.4482 26.6116 30.384C26.312 30.2583 26.2082 30.21 26.0028 30.1231C24.616 29.5189 23.3322 28.7014 22.1982 27.7002C21.8938 27.4345 21.6112 27.1446 21.3213 26.8644C20.371 25.9542 19.5428 24.9246 18.8574 23.8013L18.7148 23.5718C18.614 23.4168 18.5313 23.2506 18.4684 23.0766C18.3766 22.7215 18.6158 22.4365 18.6158 22.4365C18.6158 22.4365 19.2028 21.7939 19.4758 21.4461C19.7415 21.1079 19.9661 20.7794 20.1111 20.545C20.3961 20.0861 20.4855 19.615 20.3357 19.2503C19.6594 17.598 18.9604 15.9545 18.239 14.3199C18.0964 13.9962 17.6737 13.7643 17.2896 13.7184C17.1592 13.7023 17.0287 13.6894 16.8983 13.6798C16.5739 13.6612 16.2487 13.6644 15.9248 13.6894L16.4127 13.6725Z" fill="white"/>
</svg>
