<svg width="48" height="48" viewBox="0 0 48 48" fill="none" xmlns="http://www.w3.org/2000/svg">
<path d="M26.0068 0.019043C28.6597 0.0261174 30.0062 0.0402661 31.1687 0.0732799L31.6262 0.0897868C32.1544 0.108652 32.6756 0.132233 33.3052 0.160531C35.8143 0.278437 37.5263 0.674603 39.0284 1.25706C40.5848 1.85603 41.8959 2.66722 43.207 3.97598C44.4061 5.1548 45.3339 6.58075 45.9259 8.15459C46.5084 9.65672 46.9045 11.3687 47.0225 13.8801C47.0508 14.5074 47.0743 15.0285 47.0932 15.5591L47.1073 16.0166C47.1427 17.1768 47.1569 18.5233 47.1616 21.1762L47.1639 22.9353V26.0245C47.1697 27.7445 47.1516 29.4645 47.1097 31.1841L47.0956 31.6416C47.0767 32.1721 47.0531 32.6933 47.0248 33.3205C46.9069 35.8319 46.506 37.5416 45.9259 39.0461C45.3356 40.6208 44.4076 42.0471 43.207 43.2247C42.0278 44.4234 40.602 45.3511 39.0284 45.9436C37.5263 46.5261 35.8143 46.9222 33.3052 47.0401C32.7457 47.0665 32.186 47.0901 31.6262 47.1109L31.1687 47.125C30.0062 47.158 28.6597 47.1745 26.0068 47.1793L24.2476 47.1816H21.1608C19.44 47.1876 17.7192 47.1695 15.9989 47.1274L15.5414 47.1132C14.9816 47.092 14.422 47.0677 13.8624 47.0401C11.3534 46.9222 9.64139 46.5261 8.1369 45.9436C6.56325 45.3526 5.13788 44.4246 3.96066 43.2247C2.76048 42.0463 1.8318 40.6203 1.23938 39.0461C0.656921 37.5439 0.260755 35.8319 0.142848 33.3205C0.116576 32.761 0.0929944 32.2013 0.0721044 31.6416L0.0603141 31.1841C0.0168586 29.4646 -0.00279458 27.7445 0.00136064 26.0245V21.1762C-0.00522082 19.4562 0.012074 17.7361 0.0532397 16.0166L0.0697465 15.5591C0.0886115 15.0285 0.112193 14.5074 0.14049 13.8801C0.258397 11.3687 0.654562 9.65907 1.23702 8.15459C1.82918 6.57913 2.75971 5.15274 3.96302 3.97598C5.13994 2.77681 6.56437 1.84892 8.1369 1.25706C9.64139 0.674603 11.351 0.278437 13.8624 0.160531C14.4897 0.132233 15.0132 0.108652 15.5414 0.0897868L15.9989 0.0756379C17.7184 0.0337405 19.4385 0.0156598 21.1585 0.0214009L26.0068 0.019043ZM23.5826 11.8097C20.4556 11.8097 17.4566 13.0519 15.2454 15.2631C13.0342 17.4743 11.792 20.4733 11.792 23.6003C11.792 26.7274 13.0342 29.7264 15.2454 31.9376C17.4566 34.1488 20.4556 35.391 23.5826 35.391C26.7097 35.391 29.7087 34.1488 31.9199 31.9376C34.1311 29.7264 35.3733 26.7274 35.3733 23.6003C35.3733 20.4733 34.1311 17.4743 31.9199 15.2631C29.7087 13.0519 26.7097 11.8097 23.5826 11.8097ZM23.5826 16.5259C24.5117 16.5258 25.4316 16.7086 26.29 17.064C27.1484 17.4194 27.9283 17.9403 28.5853 18.5972C29.2424 19.254 29.7636 20.0337 30.1193 20.892C30.4749 21.7502 30.6581 22.6701 30.6582 23.5992C30.6584 24.5282 30.4755 25.4481 30.1202 26.3065C29.7648 27.1649 29.2438 27.9448 28.587 28.6018C27.9302 29.2589 27.1504 29.7801 26.2922 30.1358C25.4339 30.4914 24.514 30.6746 23.585 30.6747C21.7088 30.6747 19.9094 29.9294 18.5827 28.6027C17.256 27.276 16.5106 25.4766 16.5106 23.6003C16.5106 21.7241 17.256 19.9247 18.5827 18.598C19.9094 17.2713 21.7088 16.5259 23.585 16.5259M35.9652 8.27249C35.1834 8.27249 34.4337 8.58305 33.8809 9.13584C33.3281 9.68864 33.0175 10.4384 33.0175 11.2202C33.0175 12.0019 33.3281 12.7517 33.8809 13.3045C34.4337 13.8573 35.1834 14.1678 35.9652 14.1678C36.7469 14.1678 37.4967 13.8573 38.0495 13.3045C38.6023 12.7517 38.9128 12.0019 38.9128 11.2202C38.9128 10.4384 38.6023 9.68864 38.0495 9.13584C37.4967 8.58305 36.7469 8.27249 35.9652 8.27249Z" fill="#F7F7F7"/>
</svg>
