<svg width="408" height="166" viewBox="0 0 408 166" fill="none" xmlns="http://www.w3.org/2000/svg">
<g filter="url(#filter0_d_2004_4)">
<rect x="30" y="38.3559" width="344.539" height="91.4518" rx="11.4846" transform="rotate(-2.38803 30 38.3559)" fill="#F5F1EA"/>
<g clip-path="url(#clip0_2004_4)">
<path d="M67.8237 65.8818L71.9164 72.3729C72.0379 72.5673 72.2766 72.6538 72.494 72.5839L79.8107 70.2702L78.1142 77.7541C78.0626 77.9766 78.1709 78.2072 78.3725 78.3121L85.1819 81.8502L78.6908 85.9429C78.4964 86.0643 78.4098 86.303 78.4798 86.5205L80.7935 93.8372L73.3096 92.1407C73.0871 92.0891 72.8565 92.1973 72.7516 92.399L69.2135 99.2084L65.1208 92.7172C64.9994 92.5229 64.7607 92.4363 64.5432 92.5063L57.2265 94.82L58.923 87.3361C58.9746 87.1135 58.8664 86.883 58.6647 86.7781L51.8513 83.2444L58.3424 79.1516C58.5368 79.0302 58.6234 78.7915 58.5534 78.574L56.2397 71.2574L63.7236 72.9539C63.9461 73.0054 64.1767 72.8972 64.2816 72.6955L67.8237 65.8818Z" fill="#F37E43"/>
</g>
<path d="M101.769 64.4662C109.987 64.1235 116.926 70.5071 117.268 78.7244L117.273 78.7242L117.894 93.6028L103.015 94.2233L103.015 94.2223C103.013 94.2224 103.012 94.2235 103.01 94.2235C94.793 94.5662 87.8538 88.1826 87.5111 79.9653C87.1684 71.7481 93.552 64.8089 101.769 64.4662Z" fill="#00ADB5"/>
<g clip-path="url(#clip1_2004_4)">
<path d="M136.396 92.6434C136.023 83.6992 142.974 76.1131 151.906 75.6936L151.351 62.3986C135.087 63.1265 122.422 76.9231 123.101 93.1978C123.103 93.2604 123.106 93.323 123.111 93.3854L136.406 92.831C136.401 92.7685 136.398 92.7059 136.396 92.6434Z" fill="#A3BF5E"/>
</g>
<path d="M223.135 89.1179C214.253 89.4883 207.357 83.6537 206.997 75.016L206.993 74.9345C206.647 66.6228 212.894 59.8319 221.735 59.4632C226.747 59.2542 230.356 60.6546 233.48 63.1365L229.068 68.9121C226.959 67.2858 224.881 66.3929 222.07 66.5102C217.955 66.6818 214.921 70.2775 215.103 74.6371L215.107 74.7186C215.299 79.3226 218.655 82.4887 223.178 82.3C225.093 82.2202 226.542 81.7516 227.692 80.9282L227.547 77.465L221.925 77.6994L221.683 71.9138L234.803 71.3667L235.338 84.201C232.427 86.8121 228.31 88.9021 223.135 89.1179Z" fill="#111313"/>
<path d="M175.37 90.5386L186.314 61.3079L193.933 60.9902L207.272 89.2082L198.797 89.5616L196.507 84.5553L185.506 85.014L183.682 90.192L175.37 90.5386ZM187.572 78.7649L193.969 78.4981L190.453 70.5226L187.572 78.7649Z" fill="#111313"/>
<path d="M162.972 91.1713L161.766 62.2405L169.756 61.9073L170.963 90.8381L162.972 91.1713Z" fill="#111313"/>
<path d="M249.933 61.7725L246.303 61.9239L246.202 59.5039L256.086 59.0916L256.187 61.5116L252.557 61.663L252.954 71.1726L250.329 71.2821L249.933 61.7725ZM263.289 64.5957C263.936 64.5687 264.424 64.3947 264.752 64.0738C265.092 63.7523 265.251 63.336 265.229 62.8247L265.228 62.7906C265.204 62.2225 265.005 61.804 264.629 61.5352C264.254 61.2663 263.742 61.1454 263.095 61.1724L260.487 61.2811L260.63 64.7066L263.289 64.5957ZM257.764 59.0217L263.217 58.7942C264.729 58.7312 265.904 59.0862 266.745 59.8593C267.455 60.5125 267.833 61.4072 267.881 62.5434L267.882 62.5775C267.922 63.5432 267.717 64.3428 267.265 64.9762C266.825 65.5978 266.229 66.0665 265.48 66.3823L268.572 70.5213L265.504 70.6492L262.789 66.9384L262.755 66.9398L260.727 67.0244L260.886 70.8419L258.261 70.9513L257.764 59.0217ZM276.879 65.1728L275.133 61.3703L273.709 65.305L276.879 65.1728ZM273.825 58.2665L276.245 58.1656L281.859 69.9672L279.115 70.0816L277.913 67.4515L272.869 67.6618L271.889 70.383L269.214 70.4946L273.825 58.2665ZM281.839 58.0176L284.737 57.8968L288.206 66.1686L290.974 57.6367L293.803 57.5187L289.481 69.7347L287.164 69.8313L281.839 58.0176ZM295.303 57.4562L304.301 57.0809L304.399 59.4157L298.008 59.6822L298.109 62.1022L303.733 61.8677L303.83 64.2025L298.206 64.437L298.311 66.9423L304.787 66.6722L304.884 69.007L295.8 69.3858L295.303 57.4562ZM306.379 56.9943L309.004 56.8848L309.402 66.4285L315.349 66.1805L315.449 68.5664L306.877 68.9239L306.379 56.9943ZM325.233 66.178C325.528 66.1657 325.816 66.0968 326.095 65.9714C326.385 65.8341 326.662 65.6518 326.926 65.4245L324.546 63.202C324.156 63.4231 323.882 63.6736 323.723 63.9533C323.564 64.2331 323.491 64.5207 323.503 64.8161L323.505 64.8502C323.522 65.2706 323.69 65.605 324.007 65.8536C324.336 66.0902 324.744 66.1984 325.233 66.178ZM325.281 60.7813C325.796 60.5663 326.179 60.3341 326.43 60.0846C326.692 59.8233 326.816 59.5052 326.8 59.1302L326.799 59.0962C326.784 58.7553 326.665 58.4928 326.441 58.3087C326.228 58.1127 325.957 58.0216 325.628 58.0353C325.275 58.05 324.996 58.1755 324.79 58.4117C324.594 58.6361 324.504 58.9301 324.519 59.2936L324.521 59.3277C324.531 59.589 324.593 59.8312 324.705 60.0542C324.827 60.2653 325.019 60.5077 325.281 60.7813ZM328.454 66.8632C327.982 67.2812 327.462 67.6273 326.893 67.9014C326.334 68.1637 325.709 68.3092 325.016 68.3381C324.448 68.3618 323.916 68.3043 323.421 68.1657C322.926 68.027 322.49 67.8175 322.114 67.5373C321.749 67.2452 321.456 66.8932 321.234 66.4814C321.012 66.0695 320.89 65.5966 320.867 65.0626L320.866 65.0285C320.834 64.2673 321.006 63.6114 321.381 63.0608C321.756 62.4989 322.312 62.0319 323.047 61.6597C322.735 61.2631 322.502 60.8744 322.35 60.4938C322.209 60.1127 322.13 59.7177 322.113 59.3086L322.111 59.2746C322.094 58.8655 322.157 58.4703 322.301 58.0887C322.444 57.7071 322.663 57.3679 322.958 57.0711C323.253 56.7629 323.618 56.5144 324.054 56.3255C324.501 56.1247 325.014 56.0123 325.593 55.9881C326.105 55.9668 326.568 56.0271 326.984 56.1691C327.399 56.2998 327.76 56.4953 328.067 56.7556C328.373 57.016 328.614 57.3246 328.788 57.6816C328.962 58.0385 329.058 58.4272 329.076 58.8475L329.077 58.8816C329.094 59.2793 329.047 59.6455 328.935 59.9802C328.835 60.303 328.676 60.5942 328.46 60.8536C328.254 61.1125 328.002 61.345 327.703 61.5509C327.405 61.7569 327.071 61.9415 326.702 62.1048L328.353 63.6237C328.533 63.3089 328.713 62.977 328.892 62.6281C329.071 62.2678 329.249 61.9019 329.427 61.5303L331.397 62.5066C331.187 62.9364 330.96 63.3727 330.717 63.8153C330.474 64.258 330.213 64.6843 329.934 65.0942L331.762 66.7764L329.893 68.2031L328.454 66.8632ZM247.721 75.4544L250.345 75.345L250.743 84.8887L256.691 84.6406L256.79 87.0266L248.218 87.384L247.721 75.4544ZM264.165 84.4997C264.687 84.4779 265.166 84.3612 265.601 84.1495C266.036 83.9379 266.4 83.6553 266.693 83.3016C266.997 82.9475 267.225 82.5454 267.377 82.0952C267.539 81.6331 267.61 81.1465 267.589 80.6352L267.587 80.6011C267.566 80.0898 267.455 79.6108 267.254 79.1639C267.065 78.7165 266.798 78.3293 266.455 78.0022C266.122 77.6746 265.731 77.4235 265.279 77.2488C264.828 77.0628 264.341 76.9807 263.818 77.0025C263.284 77.0247 262.8 77.1417 262.364 77.3533C261.941 77.5644 261.577 77.8471 261.273 78.2012C260.981 78.5548 260.753 78.9627 260.59 79.4247C260.438 79.8749 260.373 80.3557 260.394 80.8669L260.396 80.901C260.417 81.4123 260.522 81.8916 260.712 82.339C260.912 82.7858 261.179 83.1731 261.511 83.5006C261.855 83.8278 262.247 84.0846 262.687 84.2711C263.138 84.4457 263.631 84.5219 264.165 84.4997ZM264.232 86.9211C263.311 86.9595 262.458 86.8357 261.672 86.5498C260.886 86.2525 260.198 85.8431 259.607 85.3214C259.027 84.7879 258.562 84.1585 258.213 83.4333C257.875 82.6962 257.689 81.9016 257.653 81.0495L257.652 81.0154C257.616 80.1633 257.742 79.3614 258.029 78.6096C258.316 77.8465 258.726 77.175 259.26 76.595C259.804 76.0033 260.456 75.5322 261.215 75.1819C261.986 74.8197 262.831 74.6194 263.751 74.581C264.672 74.5426 265.525 74.6721 266.311 74.9694C267.097 75.2553 267.78 75.665 268.36 76.1985C268.951 76.7201 269.415 77.3495 269.753 78.0866C270.102 78.8118 270.294 79.6005 270.33 80.4526L270.331 80.4867C270.367 81.3388 270.241 82.1464 269.954 82.9095C269.667 83.6613 269.251 84.3331 268.707 84.9248C268.173 85.5048 267.521 85.9758 266.751 86.338C265.992 86.6884 265.152 86.8827 264.232 86.9211ZM278.319 86.3336C277.387 86.3725 276.529 86.2546 275.743 85.9801C274.969 85.7051 274.293 85.3065 273.713 84.7843C273.145 84.2617 272.692 83.6319 272.354 82.8948C272.016 82.1577 271.829 81.3461 271.792 80.4599L271.79 80.4258C271.755 79.5737 271.875 78.772 272.151 78.0207C272.438 77.2576 272.848 76.5861 273.381 76.0061C273.914 75.4148 274.555 74.9442 275.303 74.5944C276.05 74.2331 276.879 74.0336 277.787 73.9957C278.321 73.9734 278.806 73.993 279.241 74.0546C279.687 74.1042 280.1 74.1894 280.481 74.3101C280.861 74.4308 281.221 74.5866 281.559 74.7774C281.897 74.9681 282.225 75.1878 282.542 75.4363L280.972 77.4992C280.737 77.3155 280.503 77.1546 280.269 77.0163C280.036 76.8781 279.792 76.7631 279.538 76.6713C279.295 76.579 279.03 76.5103 278.744 76.4654C278.458 76.4204 278.144 76.405 277.803 76.4192C277.326 76.4391 276.881 76.5601 276.47 76.7821C276.069 76.9923 275.716 77.2745 275.412 77.6286C275.119 77.9709 274.891 78.3731 274.729 78.8351C274.577 79.2853 274.511 79.766 274.533 80.2773L274.534 80.3114C274.557 80.8568 274.663 81.3588 274.853 81.8175C275.054 82.2644 275.32 82.6516 275.652 82.9792C275.996 83.3063 276.388 83.5574 276.828 83.7326C277.278 83.8959 277.771 83.9664 278.305 83.9441C279.282 83.9034 280.096 83.6304 280.746 83.1253L280.675 81.4211L278.033 81.5312L277.939 79.2646L283.12 79.0485L283.336 84.2294C282.744 84.7776 282.03 85.257 281.193 85.6674C280.368 86.0661 279.41 86.2881 278.319 86.3336ZM285.212 73.8909L287.837 73.7814L288.334 85.7111L285.71 85.8205L285.212 73.8909ZM295.226 85.5944C294.317 85.6323 293.418 85.5161 292.531 85.2458C291.643 84.9642 290.827 84.5145 290.084 83.8967L291.558 81.9745C292.122 82.3948 292.693 82.7238 293.272 82.9614C293.862 83.1986 294.498 83.3029 295.18 83.2745C295.725 83.2518 296.142 83.1377 296.429 82.9322C296.727 82.7149 296.869 82.4301 296.854 82.0779L296.853 82.0439C296.846 81.8734 296.806 81.7272 296.732 81.605C296.67 81.471 296.545 81.351 296.359 81.245C296.184 81.1385 295.935 81.0351 295.612 80.9347C295.3 80.8339 294.892 80.7314 294.387 80.6273C293.778 80.5047 293.226 80.3627 292.73 80.2013C292.234 80.0399 291.81 79.8356 291.458 79.5885C291.106 79.3301 290.825 79.006 290.615 78.6164C290.417 78.2264 290.306 77.7359 290.281 77.1451L290.279 77.111C290.257 76.5657 290.339 76.0729 290.525 75.6326C290.711 75.181 290.979 74.7885 291.33 74.4552C291.691 74.1215 292.124 73.8587 292.628 73.667C293.132 73.4752 293.691 73.3666 294.305 73.341C295.18 73.3045 295.986 73.4018 296.724 73.6327C297.474 73.8633 298.165 74.21 298.799 74.673L297.518 76.7067C296.969 76.3654 296.435 76.1032 295.915 75.92C295.394 75.7255 294.879 75.6388 294.367 75.6602C293.856 75.6815 293.474 75.7998 293.221 76.0153C292.979 76.2188 292.865 76.4683 292.877 76.7637L292.878 76.7978C292.886 76.9909 292.928 77.1599 293.002 77.3048C293.087 77.4378 293.229 77.5571 293.427 77.6627C293.625 77.7682 293.89 77.8653 294.224 77.9538C294.569 78.0418 295 78.1434 295.517 78.2584C296.126 78.3923 296.668 78.5518 297.142 78.7369C297.627 78.9102 298.035 79.1322 298.365 79.4029C298.706 79.6619 298.963 79.9755 299.138 80.3438C299.324 80.7116 299.428 81.1568 299.45 81.6795L299.451 81.7136C299.476 82.3044 299.39 82.8372 299.194 83.312C298.997 83.7755 298.712 84.1743 298.339 84.5086C297.965 84.8314 297.515 85.0892 296.988 85.2819C296.461 85.4632 295.873 85.5674 295.226 85.5944ZM303.917 75.5351L300.287 75.6865L300.186 73.2665L310.07 72.8542L310.171 75.2743L306.541 75.4256L306.938 84.9353L304.313 85.0447L303.917 75.5351ZM311.867 72.7793L314.492 72.6699L314.989 84.5995L312.365 84.7089L311.867 72.7793ZM323.228 84.4608C322.353 84.4972 321.534 84.3721 320.771 84.0852C320.008 83.7984 319.342 83.3936 318.774 82.871C318.206 82.337 317.752 81.7015 317.414 80.9644C317.076 80.2274 316.889 79.4328 316.854 78.5807L316.852 78.5466C316.817 77.6945 316.937 76.8928 317.213 76.1415C317.489 75.3788 317.887 74.7078 318.41 74.1283C318.931 73.5375 319.566 73.0671 320.314 72.7173C321.061 72.356 321.895 72.1562 322.816 72.1179C323.372 72.0946 323.88 72.119 324.338 72.1909C324.808 72.2624 325.233 72.3698 325.615 72.5133C325.996 72.6567 326.351 72.8354 326.679 73.0494C327.006 73.2633 327.312 73.501 327.596 73.7623L326.006 75.7577C325.523 75.3567 325.032 75.0472 324.533 74.8289C324.046 74.6103 323.502 74.5135 322.9 74.5386C322.4 74.5594 321.938 74.6754 321.514 74.8866C321.102 75.0972 320.749 75.3794 320.457 75.733C320.164 76.0867 319.942 76.4943 319.791 76.9559C319.639 77.4061 319.574 77.8868 319.595 78.3981L319.596 78.4322C319.618 78.9434 319.723 79.4227 319.912 79.8701C320.102 80.3175 320.351 80.7054 320.661 81.0339C320.982 81.362 321.357 81.6195 321.786 81.8065C322.225 81.9816 322.701 82.0585 323.212 82.0372C323.894 82.0088 324.462 81.8599 324.918 81.5905C325.385 81.3206 325.842 80.9601 326.29 80.509L328.03 82.1265C327.737 82.4688 327.431 82.7774 327.113 83.0525C326.794 83.3276 326.44 83.5699 326.051 83.7797C325.672 83.9776 325.251 84.1317 324.789 84.242C324.328 84.3637 323.807 84.4366 323.228 84.4608ZM334.121 83.9723C333.212 84.0102 332.314 83.894 331.427 83.6238C330.538 83.3421 329.723 82.8924 328.98 82.2747L330.454 80.3524C331.017 80.7727 331.589 81.1017 332.168 81.3394C332.758 81.5765 333.394 81.6809 334.076 81.6524C334.621 81.6297 335.038 81.5156 335.325 81.3101C335.623 81.0928 335.765 80.8081 335.75 80.4559L335.749 80.4218C335.742 80.2514 335.701 80.1051 335.628 79.9829C335.566 79.849 335.441 79.729 335.255 79.6229C335.079 79.5164 334.83 79.413 334.507 79.3126C334.196 79.2118 333.788 79.1094 333.283 79.0052C332.674 78.8826 332.122 78.7406 331.626 78.5792C331.13 78.4178 330.706 78.2136 330.354 77.9665C330.002 77.708 329.721 77.384 329.511 76.9944C329.313 76.6043 329.201 76.1139 329.177 75.5231L329.175 75.489C329.152 74.9436 329.234 74.4508 329.421 74.0105C329.607 73.5589 329.875 73.1664 330.225 72.8332C330.587 72.4994 331.02 72.2367 331.524 72.0449C332.028 71.8532 332.587 71.7445 333.201 71.7189C334.075 71.6824 334.882 71.7797 335.62 72.0107C336.369 72.2412 337.061 72.5879 337.695 73.0509L336.414 75.0847C335.865 74.7434 335.33 74.4811 334.811 74.2979C334.29 74.1034 333.774 74.0168 333.263 74.0381C332.752 74.0594 332.37 74.1778 332.117 74.3932C331.875 74.5967 331.76 74.8462 331.773 75.1416L331.774 75.1757C331.782 75.3689 331.823 75.5379 331.898 75.6827C331.983 75.8157 332.125 75.935 332.322 76.0406C332.52 76.1462 332.786 76.2432 333.12 76.3317C333.465 76.4197 333.896 76.5213 334.413 76.6363C335.022 76.7702 335.563 76.9298 336.038 77.1148C336.523 77.2881 336.931 77.5101 337.26 77.7809C337.601 78.0398 337.859 78.3534 338.034 78.7217C338.22 79.0895 338.324 79.5348 338.346 80.0574L338.347 80.0915C338.372 80.6823 338.286 81.2151 338.089 81.6899C337.892 82.1534 337.607 82.5522 337.234 82.8865C336.861 83.2093 336.411 83.4671 335.884 83.6598C335.356 83.8412 334.769 83.9453 334.121 83.9723Z" fill="#111313"/>
</g>
<defs>
<filter id="filter0_d_2004_4" x="0.468262" y="0.468353" width="407.114" height="164.792" filterUnits="userSpaceOnUse" color-interpolation-filters="sRGB">
<feFlood flood-opacity="0" result="BackgroundImageFix"/>
<feColorMatrix in="SourceAlpha" type="matrix" values="0 0 0 0 0 0 0 0 0 0 0 0 0 0 0 0 0 0 127 0" result="hardAlpha"/>
<feOffset dy="6"/>
<feGaussianBlur stdDeviation="15"/>
<feComposite in2="hardAlpha" operator="out"/>
<feColorMatrix type="matrix" values="0 0 0 0 0 0 0 0 0 0 0 0 0 0 0 0 0 0 0.25 0"/>
<feBlend mode="normal" in2="BackgroundImageFix" result="effect1_dropShadow_2004_4"/>
<feBlend mode="normal" in="SourceGraphic" in2="effect1_dropShadow_2004_4" result="shape"/>
</filter>
<clipPath id="clip0_2004_4">
<rect width="33.3618" height="33.3618" fill="white" transform="translate(51.1562 66.5769) rotate(-2.38803)"/>
</clipPath>
<clipPath id="clip1_2004_4">
<rect width="29.7833" height="29.5093" fill="white" transform="translate(151.352 62.3984) rotate(87.612)"/>
</clipPath>
</defs>
</svg>
