<svg width="306" height="38" viewBox="0 0 306 38" fill="none" xmlns="http://www.w3.org/2000/svg">
<path d="M18.6193 0L22.8815 7.429C23.0079 7.65135 23.27 7.75902 23.5158 7.69114L31.7827 5.45121L29.5428 13.7181C29.4749 13.9639 29.5849 14.226 29.8049 14.3524L37.2339 18.6146L29.8049 22.8768C29.5826 23.0032 29.4749 23.2654 29.5428 23.5111L31.7827 31.778L23.5158 29.5381C23.27 29.4702 23.0079 29.5802 22.8815 29.8002L18.6193 37.2292L14.3571 29.8002C14.2307 29.5779 13.9686 29.4702 13.7228 29.5381L5.45589 31.778L7.69582 23.5111C7.7637 23.2654 7.65369 23.0032 7.43368 22.8768L0 18.6193L7.429 14.3571C7.65135 14.2307 7.75902 13.9686 7.69114 13.7228L5.45121 5.45589L13.7181 7.69582C13.9639 7.7637 14.226 7.65369 14.3524 7.43368L18.6193 0Z" fill="#F37E43"/>
<path fill-rule="evenodd" clip-rule="evenodd" d="M73.9938 18.8916C73.9953 18.7995 73.9961 18.7071 73.9961 18.6146C73.9961 9.43504 66.5545 1.99353 57.375 1.99353C48.1954 1.99353 40.7539 9.43504 40.7539 18.6146C40.7539 27.7942 48.1954 35.2357 57.375 35.2357C57.4053 35.2357 57.4357 35.2356 57.466 35.2354H73.9938V18.8916Z" fill="#00ADB5"/>
<path d="M95.8921 35.026C95.8921 25.0344 103.997 16.8979 113.977 16.8455L113.977 1.99353C95.8048 2.04886 81.0402 16.8455 81.0402 35.026C81.0402 35.0959 81.0402 35.1658 81.0431 35.2357L95.895 35.2357C95.8921 35.1658 95.8921 35.0959 95.8921 35.026Z" fill="#A3BF5E"/>
<path d="M194.662 35.182C184.739 35.182 177.32 28.3547 177.32 18.7055V18.6145C177.32 9.32941 184.603 2.047 194.479 2.047C200.078 2.047 204.038 3.77657 207.406 6.68954L202.217 12.9251C199.941 11.0135 197.666 9.92111 194.525 9.92111C189.928 9.92111 186.378 13.7899 186.378 18.66V18.751C186.378 23.8942 189.974 27.581 195.026 27.581C197.165 27.581 198.803 27.1258 200.123 26.261V22.3922H193.842V15.9291H208.498V30.2664C205.13 33.0428 200.442 35.182 194.662 35.182Z" fill="#111313"/>
<path d="M141.33 34.5447L154.894 2.45654H163.405L176.968 34.5447H167.501L165.18 28.8553H152.891L150.615 34.5447H141.33ZM155.485 21.9825H162.631L159.081 12.925L155.485 21.9825Z" fill="#111313"/>
<path d="M127.473 34.6739V2.3551H136.399V34.6739H127.473Z" fill="#111313"/>
<path d="M301.822 33.0827C300.033 33.0827 298.345 32.4643 296.941 31.2108L298.178 29.7401C299.298 30.7094 300.434 31.261 301.872 31.261C303.142 31.261 303.944 30.6593 303.944 29.7902V29.7568C303.944 28.9212 303.476 28.4699 301.303 27.9685C298.813 27.3669 297.409 26.6315 297.409 24.4756V24.4421C297.409 22.4366 299.081 21.0494 301.404 21.0494C303.108 21.0494 304.462 21.5675 305.649 22.5202L304.546 24.0745C303.493 23.289 302.44 22.8711 301.37 22.8711C300.167 22.8711 299.465 23.4895 299.465 24.2583V24.2917C299.465 25.1942 300 25.5953 302.256 26.1301C304.73 26.7318 306 27.6176 306 29.5563V29.5897C306 31.7791 304.278 33.0827 301.822 33.0827Z" fill="#111313"/>
<path d="M291.153 33.1165C287.743 33.1165 285.203 30.4592 285.203 27.0999V27.0665C285.203 23.7407 287.693 21.0165 291.236 21.0165C293.392 21.0165 294.696 21.7686 295.816 22.8382L294.495 24.359C293.56 23.49 292.557 22.905 291.22 22.905C288.997 22.905 287.359 24.7434 287.359 27.0331V27.0665C287.359 29.3562 288.98 31.2113 291.22 31.2113C292.657 31.2113 293.576 30.643 294.579 29.7071L295.899 31.0442C294.679 32.3143 293.342 33.1165 291.153 33.1165Z" fill="#111313"/>
<path d="M280.865 32.9159V21.2169H282.921V32.9159H280.865Z" fill="#111313"/>
<path d="M273.118 32.9159V23.1222H269.408V21.2169H278.901V23.1222H275.191V32.9159H273.118Z" fill="#111313"/>
<path d="M264.23 33.0827C262.441 33.0827 260.753 32.4643 259.35 31.2108L260.586 29.7401C261.706 30.7094 262.843 31.261 264.28 31.261C265.55 31.261 266.352 30.6593 266.352 29.7902V29.7568C266.352 28.9212 265.884 28.4699 263.712 27.9685C261.221 27.3669 259.818 26.6315 259.818 24.4756V24.4421C259.818 22.4366 261.489 21.0494 263.812 21.0494C265.517 21.0494 266.87 21.5675 268.057 22.5202L266.954 24.0745C265.901 23.289 264.848 22.8711 263.779 22.8711C262.575 22.8711 261.873 23.4895 261.873 24.2583V24.2917C261.873 25.1942 262.408 25.5953 264.664 26.1301C267.138 26.7318 268.408 27.6176 268.408 29.5563V29.5897C268.408 31.7791 266.687 33.0827 264.23 33.0827Z" fill="#111313"/>
<path d="M255.277 32.9159V21.2169H257.333V32.9159H255.277Z" fill="#111313"/>
<path d="M247.942 33.1165C244.282 33.1165 241.875 30.5093 241.875 27.0999V27.0665C241.875 23.7908 244.382 21.0165 247.908 21.0165C249.947 21.0165 251.201 21.5847 252.404 22.6042L251.1 24.1585C250.198 23.3897 249.312 22.905 247.825 22.905C245.669 22.905 244.031 24.7936 244.031 27.0331V27.0665C244.031 29.4732 245.619 31.2447 248.009 31.2447C249.112 31.2447 250.114 30.8937 250.833 30.3589V28.1696H247.841V26.3813H252.822V31.2948C251.669 32.2809 250.014 33.1165 247.942 33.1165Z" fill="#111313"/>
<path d="M234.11 33.1165C230.517 33.1165 228.01 30.3924 228.01 27.0999V27.0665C228.01 23.7741 230.55 21.0165 234.143 21.0165C237.737 21.0165 240.244 23.7407 240.244 27.0331V27.0665C240.244 30.3589 237.703 33.1165 234.11 33.1165ZM234.143 31.2113C236.466 31.2113 238.088 29.3729 238.088 27.0999V27.0665C238.088 24.7936 236.433 22.905 234.11 22.905C231.787 22.905 230.166 24.7601 230.166 27.0331V27.0665C230.166 29.3395 231.82 31.2113 234.143 31.2113Z" fill="#111313"/>
<path d="M219.188 32.9159V21.2169H221.243V31.044H227.393V32.9159H219.188Z" fill="#111313"/>
<path d="M296.649 16.2458L295.095 14.6581C294.092 15.594 292.923 16.1789 291.519 16.1789C289.329 16.1789 287.691 14.8586 287.691 12.8364V12.803C287.691 11.2988 288.577 10.2125 290.182 9.52725C289.513 8.6749 289.212 7.93953 289.212 7.08718V7.05376C289.212 5.48275 290.482 4.1123 292.572 4.1123C294.427 4.1123 295.68 5.36576 295.68 6.93677V6.97019C295.68 8.50777 294.661 9.42697 293.106 10.0119L295.112 12.0509C295.563 11.3824 295.981 10.6136 296.365 9.79466L297.92 10.6136C297.452 11.5495 296.934 12.4687 296.332 13.2709L298.187 15.1428L296.649 16.2458ZM292.02 8.90888C293.223 8.47434 293.858 7.92282 293.858 7.08718V7.05376C293.858 6.26826 293.307 5.73345 292.538 5.73345C291.702 5.73345 291.134 6.31839 291.134 7.13732V7.17075C291.134 7.75569 291.368 8.19023 292.02 8.90888ZM291.719 14.4742C292.521 14.4742 293.257 14.0898 293.925 13.4548L291.318 10.7974C290.232 11.2654 289.764 11.984 289.764 12.7361V12.7695C289.764 13.7556 290.583 14.4742 291.719 14.4742Z" fill="#111313"/>
<path d="M275.697 16.0117V4.31274H277.753V14.1399H283.903V16.0117H275.697Z" fill="#111313"/>
<path d="M264.832 16.0117V4.31274H273.506V6.15115H266.888V9.19288H272.754V11.0313H266.888V14.1733H273.59V16.0117H264.832Z" fill="#111313"/>
<path d="M256.49 16.0953L251.627 4.31274H253.9L257.426 13.3042L260.936 4.31274H263.159L258.312 16.0953H256.49Z" fill="#111313"/>
<path d="M240.424 16.0118L245.571 4.22925H247.477L252.624 16.0118H250.452L249.265 13.1873H243.733L242.53 16.0118H240.424ZM244.485 11.3656H248.513L246.491 6.68603L244.485 11.3656Z" fill="#111313"/>
<path d="M229.682 16.0117V4.31274H234.896C236.367 4.31274 237.52 4.74728 238.272 5.48264C238.89 6.11773 239.241 6.98679 239.241 8.00627V8.0397C239.241 9.96167 238.088 11.1149 236.467 11.5828L239.626 16.0117H237.186L234.311 11.9338H231.737V16.0117H229.682ZM231.737 10.1121H234.746C236.216 10.1121 237.152 9.3433 237.152 8.15669V8.12326C237.152 6.8698 236.25 6.18458 234.729 6.18458H231.737V10.1121Z" fill="#111313"/>
<path d="M222.058 16.0117V6.218H218.348V4.31274H227.841V6.218H224.13V16.0117H222.058Z" fill="#111313"/>
</svg>
