<svg width="493" height="136" viewBox="0 0 493 136" fill="none" xmlns="http://www.w3.org/2000/svg">
<g filter="url(#filter0_d_343_9227)">
<rect x="4" y="1" width="485.395" height="128.839" rx="16.1798" fill="#111313"/>
<g clip-path="url(#clip0_343_9227)">
<path d="M70.3685 41.5362L75.6393 50.9751C75.7955 51.2575 76.1248 51.3973 76.436 51.3152L86.9029 48.6091L83.9548 59.0104C83.8655 59.3196 84.0005 59.652 84.2763 59.8148L93.5904 65.303L84.1516 70.5738C83.8691 70.7301 83.7294 71.0594 83.8114 71.3706L86.5176 81.8374L76.1163 78.8893C75.8071 78.8 75.4746 78.935 75.3119 79.2109L69.8236 88.525L64.5528 79.0861C64.3965 78.8036 64.0673 78.6639 63.7561 78.746L53.2892 81.4521L56.2373 71.0508C56.3266 70.7416 56.1916 70.4091 55.9157 70.2464L46.5957 64.764L56.0345 59.4932C56.317 59.3369 56.4568 59.0076 56.3747 58.6965L53.6685 48.2296L64.0698 51.1777C64.379 51.267 64.7115 51.132 64.8743 50.8561L70.3685 41.5362Z" fill="#F37E43"/>
</g>
<path fill-rule="evenodd" clip-rule="evenodd" d="M138.951 65.8336C138.951 65.8335 138.951 65.8334 138.951 65.8333C139.085 54.2473 129.802 44.7461 118.216 44.6118C106.63 44.4774 97.1284 53.7608 96.994 65.3468C96.8597 76.9328 106.143 86.434 117.729 86.5683C117.731 86.5683 117.732 86.5683 117.734 86.5684L117.734 86.5687L138.712 86.8119L138.955 65.8337L138.951 65.8336Z" fill="#00ADB5"/>
<g clip-path="url(#clip1_343_9227)">
<path d="M164.83 86.85C164.976 74.2392 175.324 64.0883 187.921 64.1682L188.139 45.4229C165.202 45.2267 146.351 63.6862 146.085 86.6327C146.084 86.7209 146.083 86.8091 146.085 86.8974L164.831 87.1147C164.828 87.0265 164.829 86.9383 164.83 86.85Z" fill="#A3BF5E"/>
</g>
<path d="M288.802 85.8958C276.278 85.7506 267.014 77.025 267.156 64.8463L267.157 64.7314C267.293 53.0123 276.591 43.9274 289.057 44.0719C296.123 44.1539 301.095 46.3948 305.304 50.1207L298.664 57.915C295.819 55.4689 292.963 54.0569 288.999 54.0109C283.197 53.9436 278.659 58.7746 278.588 64.9214L278.587 65.0363C278.512 71.5278 282.996 76.2336 289.373 76.3076C292.073 76.3389 294.147 75.7884 295.826 74.7162L295.882 69.8332L287.955 69.7413L288.049 61.5839L306.547 61.7984L306.337 79.8941C302.046 83.3491 296.097 85.9804 288.802 85.8958Z" fill="white"/>
<path d="M221.499 84.3114L239.088 44.0099L249.83 44.1345L266.48 84.833L254.531 84.6944L251.684 77.4796L236.174 77.2997L233.218 84.4473L221.499 84.3114ZM239.549 68.6632L248.568 68.7678L244.22 57.284L239.549 68.6632Z" fill="white"/>
<path d="M204.006 84.2714L204.479 43.4803L215.746 43.611L215.273 84.402L204.006 84.2714Z" fill="white"/>
<path d="M332.501 59.2291L327.821 59.1749L327.679 71.4337L324.296 71.3945L324.438 59.1356L319.759 59.0814L319.795 55.9617L332.537 56.1095L332.501 59.2291ZM347.813 71.6672L343.858 71.6213L340.62 66.662L337.962 66.6312L337.905 71.5523L334.521 71.513L334.7 56.1346L341.73 56.2161C345.355 56.2581 347.508 58.1947 347.471 61.3582L347.47 61.4022C347.442 63.8847 346.083 65.429 344.12 66.1313L347.813 71.6672ZM344.041 61.5382L344.042 61.4942C344.058 60.0443 343.057 59.2856 341.409 59.2665L338.048 59.2275L337.996 63.6433L341.424 63.6831C343.071 63.7022 344.026 62.8344 344.041 61.5382ZM364.941 71.8658L361.404 71.8248L360.038 68.3593L353.535 68.2839L352.089 71.7167L348.64 71.6768L355.41 56.2649L358.53 56.301L364.941 71.8658ZM358.864 65.3575L356.879 60.3467L354.778 65.3101L358.864 65.3575ZM378.97 56.6479L372.573 72.0641L369.585 72.0295L363.547 56.4691L367.282 56.5124L371.177 67.3898L375.323 56.6056L378.97 56.6479ZM392.434 72.1846L380.725 72.0488L380.903 56.6703L392.503 56.8048L392.468 59.8146L384.229 59.7191L384.193 62.8387L391.443 62.9228L391.408 65.9326L384.158 65.8485L384.121 69.078L392.469 69.1748L392.434 72.1846ZM406.053 72.3425L395.003 72.2144L395.181 56.8359L398.564 56.8751L398.422 69.1779L406.089 69.2668L406.053 72.3425ZM427.159 71.1591L424.657 72.8658L422.898 71.0437C421.634 72.0618 420.154 72.7257 418.374 72.7051C415.431 72.671 413.232 70.9316 413.263 68.1855C413.286 66.2082 414.357 64.8364 416.3 63.9801C415.566 62.8949 415.247 61.9464 415.26 60.8699C415.284 58.7389 416.999 56.8252 419.964 56.8596C422.579 56.8899 424.273 58.6014 424.247 60.7984C424.223 62.8854 422.891 64.0785 420.971 64.8032L422.99 66.8701C423.505 66.085 424.021 65.1902 424.515 64.2511L426.982 65.642C426.376 66.7116 425.704 67.8463 424.923 68.87L427.159 71.1591ZM421.301 60.9619C421.312 60.0392 420.725 59.5051 419.868 59.4952C418.967 59.4847 418.367 60.1149 418.356 61.0596C418.348 61.7626 418.605 62.271 419.234 63.0034C420.58 62.5136 421.29 61.9506 421.301 60.9619ZM421.031 69.0885L418.122 66.0666C417.105 66.5821 416.679 67.3242 416.67 68.0931C416.657 69.1916 417.55 69.927 418.802 69.9416C419.571 69.9505 420.322 69.6296 421.031 69.0885ZM331.511 93.4796L320.46 93.3515L320.638 77.973L324.022 78.0122L323.879 90.315L331.546 90.4039L331.511 93.4796ZM348.496 85.9863C348.446 90.3582 344.955 93.8992 340.21 93.8441C335.464 93.7891 332.1 90.2126 332.151 85.8407L332.151 85.7968C332.202 81.4249 335.693 77.8839 340.438 77.9389C345.183 77.9939 348.547 81.5705 348.497 85.9424L348.496 85.9863ZM344.959 85.9892L344.959 85.9453C344.99 83.309 343.082 81.0896 340.358 81.058C337.634 81.0264 335.719 83.1575 335.689 85.7938L335.688 85.8378C335.658 88.4741 337.565 90.6934 340.29 90.725C343.014 90.7566 344.928 88.6255 344.959 85.9892ZM364.967 91.6923C363.369 93.0141 361.182 94.0873 358.37 94.0547C353.58 93.9992 350.324 90.5997 350.377 86.052L350.377 86.0081C350.428 81.6362 353.874 78.0947 358.532 78.1487C361.3 78.1808 362.961 78.9471 364.549 80.3278L362.388 82.8735C361.213 81.8712 360.165 81.2877 358.386 81.2671C355.925 81.2386 353.945 83.3908 353.915 86.0052L353.914 86.0491C353.881 88.8612 355.791 90.9487 358.515 90.9803C359.745 90.9946 360.847 90.6997 361.711 90.0945L361.737 87.8976L358.331 87.8581L358.365 84.9362L365.044 85.0137L364.967 91.6923ZM371.294 93.9409L367.911 93.9017L368.089 78.5232L371.473 78.5625L371.294 93.9409ZM385.867 89.5617C385.832 92.6154 383.483 94.302 380.166 94.2635C377.837 94.2365 375.496 93.3964 373.67 91.7273L375.697 89.3558C377.068 90.5143 378.509 91.2561 380.267 91.2765C381.651 91.2925 382.492 90.753 382.502 89.8522L382.503 89.8083C382.513 88.9515 381.991 88.506 379.428 87.8171C376.339 86.9903 374.35 86.1103 374.386 83.0566L374.386 83.0126C374.418 80.2226 376.681 78.4031 379.822 78.4395C382.063 78.4655 383.966 79.1907 385.512 80.461L383.724 82.9891C382.373 82.0286 381.04 81.4419 379.744 81.4269C378.447 81.4118 377.76 81.9971 377.751 82.7441L377.75 82.788C377.739 83.7986 378.394 84.1358 381.044 84.8476C384.155 85.6967 385.899 86.8375 385.868 89.5177L385.867 89.5617ZM399.776 82.0107L395.096 81.9564L394.954 94.2153L391.571 94.176L391.713 81.9172L387.033 81.8629L387.07 78.7433L399.812 78.8911L399.776 82.0107ZM405.333 94.3356L401.95 94.2964L402.128 78.9179L405.511 78.9572L405.333 94.3356ZM422.277 92.0492C420.675 93.7225 418.906 94.7567 415.94 94.7223C411.414 94.6698 408.093 91.1377 408.144 86.7219L408.145 86.678C408.196 82.3061 411.533 78.7633 416.256 78.8181C419.156 78.8517 420.88 79.8385 422.292 81.2611L420.11 83.7186C418.936 82.6284 417.736 81.9553 416.198 81.9375C413.605 81.9074 411.713 84.0387 411.683 86.675L411.682 86.719C411.651 89.3553 413.449 91.5734 416.086 91.6039C417.843 91.6243 418.928 90.9338 420.149 89.8493L422.277 92.0492ZM435.686 90.1394C435.651 93.1931 433.302 94.8797 429.985 94.8412C427.656 94.8142 425.315 93.9741 423.488 92.305L425.515 89.9335C426.886 91.092 428.328 91.8338 430.085 91.8542C431.469 91.8702 432.311 91.3307 432.321 90.4299L432.322 90.386C432.332 89.5292 431.809 89.0837 429.247 88.3948C426.158 87.568 424.169 86.688 424.204 83.6343L424.205 83.5903C424.237 80.8002 426.499 78.9808 429.641 79.0172C431.882 79.0432 433.785 79.7684 435.33 81.0387L433.543 83.5668C432.192 82.6063 430.859 82.0196 429.562 82.0045C428.266 81.9895 427.578 82.5748 427.57 83.3217L427.569 83.3657C427.557 84.3763 428.213 84.7134 430.863 85.4253C433.973 86.2744 435.718 87.4152 435.687 90.0954L435.686 90.1394Z" fill="white"/>
</g>
<defs>
<filter id="filter0_d_343_9227" x="0.548711" y="0.105221" width="492.297" height="135.742" filterUnits="userSpaceOnUse" color-interpolation-filters="sRGB">
<feFlood flood-opacity="0" result="BackgroundImageFix"/>
<feColorMatrix in="SourceAlpha" type="matrix" values="0 0 0 0 0 0 0 0 0 0 0 0 0 0 0 0 0 0 127 0" result="hardAlpha"/>
<feOffset dy="2.55651"/>
<feGaussianBlur stdDeviation="1.72564"/>
<feComposite in2="hardAlpha" operator="out"/>
<feColorMatrix type="matrix" values="0 0 0 0 0 0 0 0 0 0 0 0 0 0 0 0 0 0 0.18 0"/>
<feBlend mode="normal" in2="BackgroundImageFix" result="effect1_dropShadow_343_9227"/>
<feBlend mode="normal" in="SourceGraphic" in2="effect1_dropShadow_343_9227" result="shape"/>
</filter>
<clipPath id="clip0_343_9227">
<rect width="47.0008" height="47.0008" fill="white" transform="translate(46.8682 41.2637) rotate(0.664361)"/>
</clipPath>
<clipPath id="clip1_343_9227">
<rect width="41.9593" height="41.5734" fill="white" transform="translate(188.139 45.4227) rotate(90.6644)"/>
</clipPath>
</defs>
</svg>
