<svg width="496" height="154" viewBox="0 0 496 154" fill="none" xmlns="http://www.w3.org/2000/svg">
<g filter="url(#filter0_d_343_9227)">
<rect x="3" y="18.8596" width="485.395" height="128.839" rx="16.1798" transform="rotate(-2.10862 3 18.8596)" fill="#111313"/>
<g clip-path="url(#clip0_343_9227)">
<path d="M70.8147 56.9264L76.4293 66.165C76.5958 66.4415 76.93 66.5691 77.238 66.4756L87.5982 63.3862L85.0348 73.8889C84.9569 74.2012 85.1041 74.5285 85.3857 74.6809L94.8955 79.8228L85.6569 85.4373C85.3804 85.6038 85.2528 85.9381 85.3463 86.246L88.4357 96.6062L77.933 94.0428C77.6207 93.965 77.2935 94.1121 77.141 94.3938L71.9991 103.903L66.3846 94.6649C66.2181 94.3884 65.8839 94.2609 65.5759 94.3543L55.2157 97.4438L57.7791 86.941C57.857 86.6288 57.7098 86.3015 57.4282 86.149L47.9127 81.0132L57.1512 75.3987C57.4278 75.2322 57.5553 74.8979 57.4618 74.59L54.3724 64.2298L64.8751 66.7932C65.1874 66.871 65.5147 66.7239 65.6672 66.4422L70.8147 56.9264Z" fill="#F37E43"/>
</g>
<path fill-rule="evenodd" clip-rule="evenodd" d="M140.244 78.684C140.244 78.6838 140.244 78.6837 140.244 78.6836C139.952 67.1006 130.326 57.9474 118.743 58.2394C107.159 58.5314 98.0063 68.1581 98.2983 79.7412C98.5903 91.3243 108.217 100.477 119.8 100.185C119.802 100.185 119.803 100.185 119.805 100.185L119.805 100.186L140.778 99.6568L140.249 78.6838L140.244 78.684Z" fill="#00ADB5"/>
<g clip-path="url(#clip1_343_9227)">
<path d="M166.88 98.7341C166.562 86.1264 176.53 75.6016 189.121 75.218L188.648 56.4773C165.72 57.1252 147.561 76.2658 148.139 99.2066C148.141 99.2947 148.144 99.3829 148.15 99.471L166.89 98.9985C166.884 98.9104 166.882 98.8223 166.88 98.7341Z" fill="#A3BF5E"/>
</g>
<path d="M290.731 93.2192C278.211 93.5348 268.632 85.156 268.325 72.9803L268.322 72.8655C268.027 61.1493 276.984 51.7284 289.447 51.4142C296.511 51.2361 301.563 53.2925 305.905 56.8611L299.557 64.8944C296.624 62.5546 293.718 61.2486 289.755 61.3485C283.954 61.4948 279.598 66.4895 279.752 72.6347L279.755 72.7496C279.919 79.2395 284.573 83.7771 290.948 83.6164C293.648 83.5483 295.701 82.9219 297.339 81.7887L297.216 76.9069L289.29 77.1067L289.085 68.9513L307.578 68.4851L308.034 86.5763C303.872 90.1868 298.025 93.0353 290.731 93.2192Z" fill="white"/>
<path d="M223.417 94.112L239.511 53.1907L250.251 52.9199L268.387 92.9782L256.441 93.2794L253.331 86.1742L237.824 86.5652L235.134 93.8166L223.417 94.112ZM240.879 77.8104L249.896 77.583L245.128 66.2669L240.879 77.8104Z" fill="white"/>
<path d="M205.934 94.7156L204.906 53.9348L216.17 53.6508L217.198 94.4317L205.934 94.7156Z" fill="white"/>
<path d="M333.421 64.9626L328.743 65.0805L329.052 77.3363L325.669 77.4216L325.36 65.1658L320.682 65.2837L320.603 62.1649L333.342 61.8437L333.421 64.9626ZM349.18 76.8288L345.227 76.9285L341.808 72.0917L339.15 72.1587L339.275 77.0785L335.892 77.1638L335.504 61.7892L342.533 61.612C346.157 61.5206 348.379 63.3767 348.459 66.5394L348.46 66.5834C348.523 69.0653 347.222 70.6585 345.286 71.4326L349.18 76.8288ZM345.038 66.8455L345.037 66.8015C345.001 65.3519 343.972 64.6306 342.324 64.6722L338.964 64.7569L339.075 69.1716L342.502 69.0852C344.149 69.0437 345.071 68.1413 345.038 66.8455ZM366.304 76.3971L362.768 76.4862L361.276 73.0733L354.774 73.2373L353.456 76.721L350.007 76.8079L356.206 61.1574L359.325 61.0787L366.304 76.3971ZM359.992 70.1167L357.824 65.1825L355.907 70.2197L359.992 70.1167ZM379.763 60.6733L373.938 76.3145L370.951 76.3898L364.345 61.0621L368.079 60.9679L372.371 71.6947L376.117 60.7653L379.763 60.6733ZM393.79 75.7041L382.084 75.9992L381.696 60.6246L393.293 60.3322L393.369 63.3412L385.132 63.5489L385.211 66.6678L392.459 66.485L392.535 69.4941L385.287 69.6768L385.368 72.9055L393.715 72.695L393.79 75.7041ZM407.406 75.3608L396.358 75.6393L395.971 60.2647L399.353 60.1794L399.663 72.4791L407.329 72.2859L407.406 75.3608ZM428.454 73.4016L426.016 75.1993L424.192 73.4431C422.966 74.507 421.511 75.2249 419.732 75.2698C416.789 75.344 414.528 73.6867 414.458 70.9413C414.409 68.9645 415.428 67.5542 417.339 66.627C416.565 65.5696 416.211 64.6334 416.184 63.5572C416.131 61.4267 417.773 59.4513 420.738 59.3765C423.352 59.3106 425.108 60.9586 425.163 63.155C425.216 65.2416 423.928 66.4828 422.036 67.2777L424.13 69.2689C424.616 68.4654 425.098 67.5522 425.557 66.5956L428.074 67.8947C427.508 68.9859 426.878 70.1447 426.135 71.1963L428.454 73.4016ZM422.225 63.4269C422.202 62.5044 421.595 61.9922 420.739 62.0138C419.838 62.0365 419.261 62.6884 419.285 63.6329C419.303 64.3357 419.579 64.8342 420.234 65.543C421.561 65.004 422.25 64.4153 422.225 63.4269ZM422.254 71.5579L419.236 68.645C418.239 69.1976 417.84 69.9549 417.859 70.7237C417.887 71.8219 418.806 72.524 420.058 72.4924C420.827 72.473 421.565 72.1247 422.254 71.5579ZM333.692 99.2263L322.644 99.5048L322.256 84.1302L325.639 84.0449L325.949 96.3446L333.614 96.1514L333.692 99.2263ZM350.39 91.1131C350.5 95.4839 347.142 99.1509 342.398 99.2705C337.654 99.3901 334.16 95.9398 334.05 91.569L334.049 91.5251C333.939 87.1543 337.297 83.4873 342.041 83.3677C346.785 83.248 350.279 86.6984 350.389 91.0692L350.39 91.1131ZM346.855 91.2462L346.854 91.2022C346.787 88.5666 344.799 86.4189 342.076 86.4876C339.352 86.5563 337.518 88.7564 337.584 91.392L337.585 91.4359C337.652 94.0716 339.64 96.2192 342.363 96.1506C345.087 96.0819 346.921 93.8818 346.855 91.2462ZM367.059 96.2092C365.512 97.5889 363.365 98.7419 360.553 98.8128C355.765 98.9335 352.386 95.6561 352.271 91.1096L352.27 91.0657C352.16 86.6949 355.474 83.029 360.131 82.9116C362.898 82.8418 364.586 83.5465 366.224 84.8678L364.158 87.4913C362.947 86.5328 361.878 85.9883 360.099 86.0332C357.639 86.0952 355.74 88.3189 355.805 90.9326L355.807 90.9765C355.877 93.7879 357.862 95.8037 360.586 95.7351C361.816 95.7041 362.906 95.3689 363.747 94.7323L363.692 92.5359L360.288 92.6218L360.214 89.7006L366.891 89.5322L367.059 96.2092ZM373.465 98.2235L370.083 98.3088L369.695 82.9342L373.078 82.8489L373.465 98.2235ZM387.868 93.311C387.944 96.364 385.66 98.1358 382.343 98.2195C380.015 98.2782 377.644 97.5247 375.758 95.924L377.696 93.4795C379.109 94.5868 380.576 95.275 382.334 95.2307C383.717 95.1958 384.538 94.6257 384.515 93.7252L384.514 93.6813C384.493 92.8247 383.954 92.3987 381.368 91.8046C378.251 91.0919 376.231 90.2858 376.154 87.2328L376.153 87.1889C376.083 84.3995 378.276 82.498 381.417 82.4188C383.657 82.3624 385.586 83.017 387.177 84.2296L385.484 86.8217C384.099 85.9116 382.744 85.3744 381.449 85.407C380.153 85.4397 379.487 86.0499 379.506 86.7966L379.507 86.8406C379.532 87.8509 380.199 88.1638 382.874 88.7776C386.014 89.5116 387.799 90.5875 387.866 93.2671L387.868 93.311ZM401.488 85.2534L396.81 85.3714L397.119 97.6271L393.737 97.7124L393.428 85.4566L388.749 85.5746L388.671 82.4557L401.41 82.1346L401.488 85.2534ZM407.496 97.3655L404.113 97.4508L403.726 82.0762L407.108 81.9909L407.496 97.3655ZM424.344 94.4573C422.805 96.1883 421.074 97.2869 418.109 97.3617C413.585 97.4757 410.136 94.0682 410.025 89.6535L410.024 89.6096C409.914 85.2388 413.118 81.5756 417.84 81.4566C420.739 81.3835 422.499 82.3061 423.962 83.6758L421.872 86.212C420.659 85.1657 419.434 84.5372 417.897 84.576C415.305 84.6413 413.492 86.8408 413.559 89.4765L413.56 89.5204C413.626 92.1561 415.505 94.3065 418.141 94.24C419.898 94.1957 420.956 93.4658 422.136 92.3371L424.344 94.4573ZM437.674 92.0553C437.751 95.1082 435.466 96.8801 432.149 96.9637C429.821 97.0224 427.45 96.269 425.564 94.6682L427.502 92.2238C428.915 93.331 430.383 94.0193 432.14 93.975C433.524 93.9401 434.344 93.37 434.322 92.4694L434.32 92.4255C434.299 91.5689 433.761 91.1429 431.174 90.5488C428.058 89.8362 426.037 89.03 425.96 85.9771L425.959 85.9331C425.889 83.1437 428.083 81.2423 431.223 81.1631C433.464 81.1066 435.392 81.7613 436.983 82.9739L435.29 85.566C433.905 84.6559 432.551 84.1186 431.255 84.1513C429.959 84.184 429.293 84.7941 429.312 85.5409L429.313 85.5848C429.338 86.5952 430.006 86.908 432.68 87.5219C435.82 88.2559 437.605 89.3318 437.673 92.0113L437.674 92.0553Z" fill="white"/>
</g>
<defs>
<filter id="filter0_d_343_9227" x="0.132695" y="0.689328" width="495.541" height="152.346" filterUnits="userSpaceOnUse" color-interpolation-filters="sRGB">
<feFlood flood-opacity="0" result="BackgroundImageFix"/>
<feColorMatrix in="SourceAlpha" type="matrix" values="0 0 0 0 0 0 0 0 0 0 0 0 0 0 0 0 0 0 127 0" result="hardAlpha"/>
<feOffset dy="2.55651"/>
<feGaussianBlur stdDeviation="1.72564"/>
<feComposite in2="hardAlpha" operator="out"/>
<feColorMatrix type="matrix" values="0 0 0 0 0 0 0 0 0 0 0 0 0 0 0 0 0 0 0.18 0"/>
<feBlend mode="normal" in2="BackgroundImageFix" result="effect1_dropShadow_343_9227"/>
<feBlend mode="normal" in="SourceGraphic" in2="effect1_dropShadow_343_9227" result="shape"/>
</filter>
<clipPath id="clip0_343_9227">
<rect width="47.0008" height="47.0008" fill="white" transform="translate(47.3203 57.5188) rotate(-1.44426)"/>
</clipPath>
<clipPath id="clip1_343_9227">
<rect width="41.9593" height="41.5734" fill="white" transform="translate(188.648 56.4772) rotate(88.5557)"/>
</clipPath>
</defs>
</svg>
