<svg width="309" height="308" viewBox="0 0 309 308" fill="none" xmlns="http://www.w3.org/2000/svg">
<g clip-path="url(#clip0_507_4187)">
<path d="M55.3492 226.846L57.7395 225.301L50.9475 214.894L32.9619 226.671L34.6235 229.207L42.3191 224.164L46.7791 230.985L49.1402 229.44L44.6803 222.619L50.2188 219.004L55.3492 226.846Z" fill="#003A70"/>
<path d="M55.522 240.051C51.1786 244.541 51.266 251.42 55.6969 255.705C57.854 257.804 60.5941 258.853 63.3633 258.853C66.2492 258.853 69.1351 257.687 71.3796 255.414C75.6938 250.954 75.6064 244.074 71.1756 239.76C66.7448 235.446 59.8653 235.591 55.522 240.051ZM69.1351 253.256C65.9577 256.521 60.973 256.667 57.7957 253.548C56.2507 252.061 55.4054 250.079 55.3762 247.951C55.3762 245.823 56.1924 243.783 57.7374 242.179C59.2823 240.576 61.2937 239.702 63.4216 239.643C65.5204 239.556 67.5318 240.401 69.0768 241.888C72.2833 244.978 72.3124 249.962 69.1642 253.227L69.1351 253.256Z" fill="#003A70"/>
<path d="M92.1648 272.058C91.4069 273.399 90.27 274.332 88.9874 274.711C87.6756 275.119 86.2473 274.915 84.9064 274.128C82.2246 272.583 81.4958 269.58 83.0991 266.811L89.8328 255.151L87.2092 253.635L80.3881 265.441C79.2513 267.423 78.9015 269.609 79.4553 271.679C79.98 273.749 81.4084 275.556 83.4197 276.722C84.7898 277.509 86.2764 277.917 87.7339 277.917C88.4335 277.917 89.104 277.83 89.7745 277.655C91.815 277.101 93.564 275.702 94.7008 273.719L101.522 261.914L98.8984 260.398L92.1648 272.058Z" fill="#003A70"/>
<path d="M121.491 285.671L114.699 267.248L112.338 266.577L106.304 287.216L109.16 288.061L113.591 272.932L120.383 291.355L122.744 292.055L128.808 271.387L125.922 270.542L121.491 285.671Z" fill="#003A70"/>
<path d="M148.047 273.632L140.76 273.312L139.827 294.824L147.115 295.145C147.29 295.145 147.464 295.145 147.61 295.145C150.379 295.145 152.974 294.154 154.956 292.347C157.055 290.423 158.279 287.741 158.396 284.826C158.658 278.792 154.082 273.895 148.018 273.632H148.047ZM143.646 276.343L147.698 276.518C149.855 276.605 151.837 277.48 153.236 278.996C154.665 280.512 155.393 282.552 155.306 284.709C155.102 289.198 151.516 292.463 147.027 292.259L142.975 292.084L143.646 276.343Z" fill="#003A70"/>
<path d="M174.602 272.088L170.113 294.766L173.261 294.183L174.602 287.45L182.794 285.963L186.437 291.793L189.556 291.239L177.372 271.592L174.602 272.088ZM181.219 283.34L175.156 284.447L176.76 276.052L181.249 283.34H181.219Z" fill="#003A70"/>
<path d="M206.493 265.325L205.473 262.672L190.577 268.502L191.627 271.155L197.661 268.793L204.453 286.167L207.28 285.059L200.488 267.686L206.493 265.325Z" fill="#003A70"/>
<path d="M217.073 256.055L214.479 257.629L225.293 275.614L225.556 276.052L228.15 274.507L217.364 256.492L217.073 256.055Z" fill="#003A70"/>
<path d="M234.388 242.587C229.811 246.756 229.461 253.606 233.659 258.212C235.904 260.69 238.906 261.943 241.909 261.943C244.532 261.943 247.156 260.981 249.313 259.057C253.889 254.889 254.21 248.009 250.041 243.404C245.873 238.798 238.994 238.419 234.417 242.587H234.388ZM247.272 256.842C243.949 259.844 238.994 259.524 235.933 256.142C232.901 252.761 233.105 247.805 236.399 244.803C237.915 243.433 239.81 242.733 241.705 242.733C243.891 242.733 246.077 243.666 247.739 245.473C250.799 248.855 250.595 253.839 247.301 256.842H247.272Z" fill="#003A70"/>
<path d="M276.83 224.864L258.903 213L257.241 215.478L270.388 224.193L250.799 225.214L249.458 227.254L267.385 239.147L269.047 236.64L255.9 227.954L275.489 226.904L276.83 224.864Z" fill="#003A70"/>
<path d="M16.579 123.567L30.2796 126.074L14.7134 133.682L14.043 137.267L35.7015 141.29L36.4885 136.976L22.788 134.44L38.3542 126.861L39.0246 123.275L17.3661 119.282L16.579 123.567Z" fill="#003A70"/>
<path d="M24.024 100.079L22.4209 104.115L42.9023 112.249L44.5054 108.213L24.024 100.079Z" fill="#003A70"/>
<path d="M55.6705 78.2675L51.6186 79.4918L51.9393 80.2497C52.9012 82.6108 52.7555 84.8262 51.4437 86.8667C50.4235 88.47 48.8785 89.5486 47.1003 89.9275C45.293 90.3065 43.4274 89.9275 41.7659 88.8781C38.3553 86.6918 37.3642 82.6108 39.463 79.3752C41.0663 76.8683 43.4274 76.227 45.1181 76.1395H45.9343L45.1764 71.7961H44.5351C41.008 72.0002 37.8598 73.895 35.8484 77.0432C34.216 79.5792 33.6913 82.5525 34.3035 85.4384C34.9448 88.3826 36.7521 90.9186 39.3756 92.5802C41.2703 93.8045 43.4274 94.4458 45.5845 94.4458C46.4007 94.4458 47.1878 94.3583 48.004 94.1834C50.919 93.5421 53.4259 91.764 55.0583 89.1696C57.0405 86.0797 57.3612 82.3485 55.9328 78.8796L55.6705 78.2675Z" fill="#003A70"/>
<path d="M76.3937 57.1632L72.167 57.3673L72.2836 58.1544C72.6625 60.6613 71.9921 62.7892 70.2139 64.4799C68.873 65.7625 67.124 66.4913 65.3458 66.433C63.4802 66.3747 61.7021 65.5876 60.332 64.1301C57.5627 61.2151 57.5627 56.9883 60.332 54.3357C62.4891 52.266 64.9086 52.2369 66.5701 52.5575L67.3863 52.7033L67.6778 48.3599L67.0365 48.2433C63.5677 47.5729 60.0697 48.6806 57.3587 51.2458C52.8113 55.5891 52.6947 62.5852 57.0964 67.1909C59.3701 69.5812 62.3434 70.7763 65.3167 70.7763C68.1151 70.7763 70.9135 69.7269 73.1289 67.599C75.7816 65.0629 76.9767 61.5066 76.4229 57.8337L76.3354 57.1924L76.3937 57.1632Z" fill="#003A70"/>
<path d="M93.2736 29.937C90.3877 29.15 87.327 29.5289 84.6452 31.0739C79.1066 34.2221 77.241 41.0141 80.3892 46.5526C82.5172 50.2838 86.2776 52.3534 90.2128 52.3534C92.1076 52.3534 94.0606 51.8579 95.8679 50.8376C101.406 47.6894 103.272 40.8975 100.124 35.3589C98.5789 32.648 96.1595 30.7241 93.2736 29.937ZM93.7691 47.1356C92.1659 48.0392 90.3003 48.3016 88.5513 47.806C86.7731 47.3105 85.2573 46.0862 84.2662 44.3955C82.3132 40.9266 83.4209 36.729 86.7731 34.8342C87.8517 34.2221 89.0177 33.9306 90.1545 33.9306C92.574 33.9306 94.9351 35.2423 96.276 37.6035C98.2291 41.0724 97.1214 45.27 93.7691 47.1647V47.1356Z" fill="#003A70"/>
<path d="M118.371 36.408L113.328 19.2095L109.159 20.4046L115.339 41.5385L128.223 37.7781L127.057 33.872L118.371 36.408Z" fill="#003A70"/>
<path d="M144.519 13.1169C138.164 13.5542 133.558 18.8595 133.967 25.2142C134.375 31.3066 139.272 35.7957 145.248 35.7957C145.51 35.7957 145.801 35.7957 146.064 35.7957C152.419 35.3585 157.024 30.0531 156.616 23.6693C156.179 17.3145 150.844 12.7088 144.519 13.1169ZM140.788 29.8782C139.388 28.6539 138.543 26.9049 138.397 24.9519C138.252 22.9988 138.864 21.1624 140.088 19.734C141.283 18.364 142.974 17.5186 144.81 17.402C144.985 17.402 145.131 17.402 145.306 17.402C146.967 17.402 148.571 17.985 149.824 19.0927C151.223 20.317 152.069 22.066 152.185 24.0191C152.331 25.9721 151.719 27.8377 150.495 29.2369C149.3 30.607 147.609 31.4232 145.772 31.569C143.965 31.7147 142.158 31.1026 140.788 29.9074V29.8782Z" fill="#003A70"/>
<path d="M171.248 12.1844C170.578 12.097 169.907 12.2719 169.412 12.68C168.887 13.0881 168.566 13.7002 168.479 14.3707C168.362 15.2743 168.8 16.0322 169.353 16.5569L167.604 20.0258L170.52 20.3756L173.026 16.1197C173.289 15.7116 173.405 15.3326 173.464 14.9537C173.551 14.2832 173.376 13.6128 172.968 13.0881C172.56 12.5634 171.948 12.2427 171.277 12.1553L171.248 12.1844Z" fill="#003A70"/>
<path d="M189.321 22.2997C189.962 21.9499 190.895 21.8916 191.915 22.1831C192.936 22.4746 194.277 23.2325 194.86 25.1564L195.064 25.8851L198.999 24.5442L198.853 23.9029C198.183 21.192 196.055 19.064 193.111 18.2187C190.924 17.6065 188.767 17.7814 187.047 18.7434C185.677 19.5013 184.686 20.7256 184.278 22.1831C183.17 26.0892 185.706 28.188 187.922 30.0536L189.117 31.0739C191.099 32.7354 191.974 33.5516 191.566 34.8925C191.449 35.3589 191.041 35.7379 190.458 35.9711C189.729 36.2626 188.825 36.2626 187.893 35.9711C186.144 35.4755 185.065 34.3095 184.686 32.4731L184.511 31.686L180.343 33.0561L180.489 33.6974C181.159 36.6998 183.462 39.061 186.668 39.9646C187.689 40.2561 188.621 40.3727 189.496 40.3727C192.936 40.3727 195.122 38.3031 195.792 35.9419C196.9 32.065 194.481 30.0245 191.711 27.6341L191.041 27.0803C189.059 25.4187 188.097 24.5442 188.476 23.2616C188.592 22.8244 188.884 22.4746 189.263 22.2414L189.321 22.2997Z" fill="#003A70"/>
<path d="M229.549 34.7466L217.015 52.8779L228.063 60.5153L230.365 57.1339L222.903 52.0034L233.106 37.1952L229.549 34.7466Z" fill="#003A70"/>
<path d="M250.673 51.2159L235.359 67.063L238.483 70.0812L253.797 54.2341L250.673 51.2159Z" fill="#003A70"/>
<path d="M262.432 79.9586L259.196 82.2323L262.169 86.4883L260.799 87.4502C258.555 87.3045 256.835 86.3134 255.494 84.4186C254.415 82.9028 254.037 81.0955 254.386 79.3173C254.736 77.5392 255.815 75.9359 257.418 74.8282C260.741 72.5254 264.909 73.1667 267.096 76.3149C268.786 78.7635 268.495 81.1829 267.912 82.757L267.65 83.5441L271.935 84.506L272.139 83.8647C273.246 80.3959 272.722 76.8396 270.623 73.8663C268.903 71.3885 266.338 69.7561 263.452 69.2314C260.508 68.7067 257.476 69.4063 254.911 71.1845C252.346 72.9626 250.655 75.557 250.13 78.5011C249.606 81.4161 250.276 84.3894 251.996 86.8672C254.182 89.9863 257.68 91.7644 261.616 91.7644H261.907L267.825 87.6251L262.461 79.9586H262.432Z" fill="#003A70"/>
<path d="M287.908 108.992L279.454 112.17L276.131 103.337L284.585 100.16L283.069 96.1079L262.431 103.804L263.976 107.885L272.429 104.707L275.723 113.569L267.27 116.717L268.785 120.798L289.424 113.073L287.908 108.992Z" fill="#003A70"/>
<path d="M292.862 126.977L288.81 127.531L289.626 133.653L271.815 136.043L272.398 140.357L290.209 137.967L291.025 144.088L295.077 143.535L292.862 126.977Z" fill="#003A70"/>
<path d="M154.195 43.1423C92.9795 43.1423 43.3369 92.785 43.3369 154C43.3369 215.215 92.9795 264.858 154.195 264.858C215.41 264.858 265.053 215.215 265.053 154C265.053 92.785 215.439 43.1423 154.195 43.1423ZM194.043 252.877C193.897 249.758 193.606 243.141 193.547 242.704C191.915 228.129 187.426 216.877 180.634 206.383C176.524 200.057 171.568 193.994 165.855 187.669C163.26 184.812 160.52 181.897 157.634 178.894C156.002 177.204 154.341 175.455 152.621 173.676C150.959 171.957 149.268 170.208 147.519 168.4C139.911 160.53 135.684 152.514 135.684 142.486C135.684 136.481 137.579 130.972 140.115 126.628C141.544 124.18 143.089 122.023 144.575 119.924C148.044 115.056 151.367 110.333 153.641 102.579C154.34 100.16 157.722 90.2197 148.715 76.8981C151.367 84.4189 151.221 87.6837 151.076 91.7355C150.697 103.366 145.187 111.033 140.815 117.242C139.27 119.428 137.667 121.673 136.151 124.267C134.46 127.153 133.207 130.126 132.332 133.158C132.216 130.068 132.507 127.065 132.449 124.092C132.186 110.421 127.493 105.99 123.529 104.124C128.426 110.013 129.067 118.962 128.397 125.812C127.406 136.102 128.747 145.809 133.702 156.536C138.133 166.156 150.23 178.632 154.428 182.859C163.96 192.449 172.588 201.165 181.479 221.687C173.317 211.018 157.78 206.15 139.008 201.223C102.891 191.75 86.3625 169.537 88.4321 133.304C89.4232 115.872 99.8298 97.1866 116.241 82.4367C119.39 79.6091 121.168 77.7435 126.327 76.4609C113.822 77.8601 106.243 85.6723 104.96 87.0715C92.3091 101.064 84.7009 117.271 83.7973 133.041C82.1066 162.366 92.4548 183.558 114.492 196.355C113.326 196.258 112.16 196.171 110.994 196.093C103.736 195.627 96.0694 201.107 90.1811 203.963C95.1949 203.206 101.637 200.116 111.315 200.728C120.06 201.282 128.834 202.943 137.725 205.712C137.754 205.712 137.783 205.712 137.812 205.742C154.69 210.172 167.167 213.437 176.378 224.427C175.882 224.077 175.416 223.698 174.862 223.436C171.51 221.774 168.216 221.279 165.009 221.279C146.616 221.279 143.555 235.329 115.979 235.329C109.333 235.329 102.191 234.134 94.9909 230.869C102.774 236.553 111.752 238.71 120.614 238.71C143.555 238.71 150.318 226.788 161.162 226.788C168.537 226.788 174.92 230.752 176.349 239.381C178.069 249.817 171.743 256.521 164.601 258.649C157.955 260.602 150.551 260.631 147.607 260.456C93.5625 257.162 50.0414 212.825 47.7094 158.752C44.9402 94.4174 99.2468 42.0055 164.193 47.923C215.789 52.6161 256.949 94.738 260.563 146.421C263.916 194.461 235.407 236.262 194.043 252.936V252.877Z" fill="#003A70"/>
<path d="M153.467 234.571C145.801 239.468 147.841 248.126 142.448 251.973C158.218 253.577 159.589 241.246 165.419 238.593C167.255 237.748 171.54 236.67 173.231 241.188C171.948 231.947 161.075 229.703 153.438 234.571H153.467Z" fill="#88BDE7"/>
<path d="M115.134 241.042C116.941 244.424 121.722 249.175 131.545 248.855C137.317 248.651 142.068 244.074 143.526 237.544C137.609 241.421 126.619 244.395 115.134 241.042Z" fill="#88BDE7"/>
<path d="M97.0934 213.437C90.5638 211.484 83.9175 215.157 78.6122 208.161C78.3207 218.217 89.048 230.227 115.72 231.51C103.477 227.924 107.063 216.41 97.1225 213.408L97.0934 213.437Z" fill="#88BDE7"/>
<path d="M132.128 110.449C131.866 101.209 131.487 97.0111 129.854 93.9212C126.473 87.5956 123.325 87.4498 123.325 80.5413C118.165 84.3891 116.329 91.7349 118.311 96.3989C120.701 101.967 130.466 102.141 132.128 110.42V110.449Z" fill="#88BDE7"/>
<path d="M134.288 70.3098C142.508 66.4329 140.235 59.2619 145.336 55.9097C136.941 56.5218 128.225 59.7283 124.465 63.1389C119.013 68.0653 117.847 69.6977 114.699 76.2273C122.045 71.3009 129.012 72.8167 134.288 70.3098Z" fill="#88BDE7"/>
<path d="M157.373 86.8961C161.395 81.1535 161.57 74.5947 159.617 68.3566C158.131 63.576 159.501 58.1832 162.124 55.8804C153.117 57.2504 149.502 64.5088 149.939 69.7558C150.464 76.5186 154.254 74.9445 157.402 86.8961H157.373Z" fill="#88BDE7"/>
<path d="M152.62 140.679C155.36 137.472 157.634 133.828 157.984 129.514C158.304 125.2 156.934 120.857 154.544 116.717C153.582 124.413 144.108 128.815 140.435 137.968C138.045 143.943 138.22 152.805 144.05 159.859C142.913 157.323 143.671 153.767 144.779 151.085C146.469 147.033 149.822 144.002 152.62 140.708V140.679Z" fill="#88BDE7"/>
<path d="M143.265 71.2134C135.57 75.2361 133.5 82.7277 133.325 85.905C132.713 95.4954 140.525 100.218 139.855 111.849C143.732 106.572 149.504 95.612 146.297 86.7212C144.286 81.1244 141.925 78.326 143.265 71.2134Z" fill="#88BDE7"/>
<path d="M118.343 154.35C118.722 160.092 111.58 166.126 112.542 174.9C113.009 179.04 115.516 187.435 128.721 192.39C127.234 189.33 124.669 183.296 126.272 179.069C129.887 169.595 126.826 160.792 118.343 154.35Z" fill="#88BDE7"/>
<path d="M145.773 190.263C145.423 181.168 136.387 180.964 134.375 174.201C131.81 179.477 128.895 196.443 148.484 200.203C146.181 197.026 145.948 195.306 145.773 190.234V190.263Z" fill="#88BDE7"/>
<path d="M101.815 173.122C101.436 166.447 107.382 162.657 109.073 156.973C111.113 150.181 109.743 139.395 105.429 132.895C103.709 140.416 98.2291 141.115 95.5181 150.531C93.8857 156.127 96.859 168.283 101.815 173.122Z" fill="#88BDE7"/>
<path d="M80.0672 148.578C80.7668 139.192 80.417 128.319 77.5603 122.897C73.9166 116.017 67.6493 112.636 68.8444 104.794C51.4418 133.74 75.4615 137.647 80.0672 148.578Z" fill="#88BDE7"/>
<path d="M84.6163 112.286C90.0674 104.823 93.4197 97.4193 91.8456 91.6184C89.6885 83.6896 89.8634 80.0749 90.1549 79.2004C84.937 83.8645 79.6608 88.6159 80.0398 95.6119C80.3896 102.404 84.6455 106.427 84.6455 112.286H84.6163Z" fill="#88BDE7"/>
<path d="M111.579 120.943C115.776 115.755 115.397 105.261 111.2 100.742C109.188 107.01 103.708 108.321 99.0149 113.452C95.0505 117.766 91.5816 129.397 93.1266 137.442C97.674 127.298 106.944 126.686 111.579 120.943Z" fill="#88BDE7"/>
<path d="M99.6281 87.5081C117.118 74.9153 110.589 68.0067 116.564 62.9346C104.963 67.5694 99.803 72.2918 98.9285 76.7809C98.1123 81.0951 100.299 84.0392 99.5989 87.479L99.6281 87.5081Z" fill="#88BDE7"/>
<path d="M116.039 120.681C117.118 126.686 111.375 131.962 112.454 138.987C113.299 144.526 119.129 153.009 130.585 155.836C119.916 142.602 129.011 128.96 116.039 120.681Z" fill="#88BDE7"/>
<path d="M88.4626 176.212C78.6099 148.053 60.9741 163.124 55.902 146.479C54.7068 158.897 56.7765 169.333 65.6381 172.452C72.8382 174.988 78.5807 170.965 88.4335 176.241L88.4626 176.212Z" fill="#88BDE7"/>
<path d="M103.679 193.528C97.995 187.465 89.046 184.52 82.7495 186.095C76.9195 187.552 66.9793 190.788 61.3242 187.231C63.3356 192.42 66.4255 197.813 69.8944 199.97C84.7609 209.152 96.625 193.557 103.679 193.557V193.528Z" fill="#88BDE7"/>
<path d="M106.683 212.067C116.681 214.719 114.699 220.17 122.132 224.863C125.659 227.079 133.238 229.09 145.102 222.561C141.692 222.415 135.483 219.937 132.218 216.818C122.89 207.898 113.912 208.627 106.712 212.067H106.683Z" fill="#88BDE7"/>
<path d="M156.584 218.742C160.665 217.226 165.3 218.159 165.3 218.159C165.3 218.159 153.028 209.064 142.242 214.544C149.092 216.526 150.375 221.016 156.584 218.742Z" fill="#88BDE7"/>
<path d="M169.704 209.706C169.704 209.706 166.934 196.647 152.534 190.205C156.732 194.431 154.458 202.593 161.133 204.546C166.526 206.121 169.733 209.735 169.733 209.735L169.704 209.706Z" fill="#88BDE7"/>
<path d="M249.664 134.061C250.043 134.061 250.393 134.061 250.713 133.973C250.072 130.854 249.227 127.823 248.294 124.849L162.155 129.426L249.664 134.061Z" fill="#FED780"/>
<path d="M157.869 143.389L165.798 187.697C171.511 194.023 176.467 200.057 180.577 206.412L157.84 143.418L157.869 143.389Z" fill="#FED780"/>
<path d="M241.619 110.77C241.968 110.683 242.289 110.566 242.581 110.42C241.619 108.496 240.627 106.631 239.549 104.794C239.053 103.92 238.47 103.074 237.946 102.229L161.98 127.327L241.589 110.799L241.619 110.77Z" fill="#FED780"/>
<path d="M209.727 234.979C209.727 234.979 209.902 235.241 209.989 235.358C212.554 233.609 215.032 231.714 217.393 229.732L159.938 139.425L209.727 234.949V234.979Z" fill="#FED780"/>
<path d="M154.867 146.654L152.594 173.705C154.314 175.483 155.975 177.203 157.608 178.923L154.867 146.683V146.654Z" fill="#FED780"/>
<path d="M229.142 91.4725C229.404 91.3267 229.637 91.1518 229.87 90.9769C227.859 88.5866 225.76 86.2546 223.545 84.0684L161.63 125.112L229.171 91.4725H229.142Z" fill="#FED780"/>
<path d="M231.793 213.612C231.968 213.816 232.172 213.962 232.377 214.137C234.271 211.659 236.049 209.123 237.711 206.47L161.104 136.364L231.793 213.612Z" fill="#FED780"/>
<path d="M213.723 76.4023C213.898 76.2274 214.044 76.0525 214.19 75.8776C211.712 73.9828 209.147 72.2338 206.523 70.5723L160.933 122.634L213.723 76.4023Z" fill="#FED780"/>
<path d="M245.935 187.755C246.197 187.93 246.459 188.047 246.751 188.164C247.829 185.249 248.762 182.246 249.578 179.185L161.778 133.799L245.935 187.755Z" fill="#FED780"/>
<path d="M196.406 65.4999C196.406 65.4999 196.523 65.2376 196.61 65.121C193.841 63.7801 190.984 62.5849 188.069 61.5063L159.765 119.719L196.435 65.4999H196.406Z" fill="#FED780"/>
<path d="M252.694 151.085L162.096 131.554L251.616 160.354C251.936 160.471 252.257 160.529 252.578 160.559C252.723 158.431 252.811 156.273 252.811 154.116C252.811 153.096 252.753 152.105 252.723 151.114L252.694 151.085Z" fill="#FED780"/>
<path d="M177.925 58.5622C177.925 58.5622 177.925 58.4747 177.955 58.4164C174.981 57.6877 171.95 57.0464 168.86 56.6091L157.695 116.075L177.896 58.5622H177.925Z" fill="#FED780"/>
<path d="M154.196 308C69.282 308 0.196289 238.914 0.196289 154C0.196289 69.0857 69.282 0 154.196 0C239.111 0 308.196 69.0857 308.196 154C308.196 238.914 239.111 308 154.196 308ZM154.196 3.93526C71.4391 3.93526 4.13155 71.2429 4.13155 154C4.13155 236.757 71.4391 304.065 154.196 304.065C236.953 304.065 304.261 236.757 304.261 154C304.261 71.2429 236.953 3.93526 154.196 3.93526Z" fill="#003A70"/>
</g>
<defs>
<clipPath id="clip0_507_4187">
<rect width="308" height="308" fill="white" transform="translate(0.196289)"/>
</clipPath>
</defs>
</svg>
