<svg width="442" height="54" viewBox="0 0 442 54" fill="none" xmlns="http://www.w3.org/2000/svg">
<path d="M26.8946 0L33.0511 10.7308C33.2336 11.052 33.6123 11.2075 33.9673 11.1094L45.9084 7.87397L42.6729 19.8151C42.5749 20.1701 42.7338 20.5487 43.0516 20.7313L53.7823 26.8878L43.0516 33.0443C42.7304 33.2269 42.5749 33.6055 42.6729 33.9605L45.9084 45.9016L33.9673 42.6661C33.6123 42.5681 33.2336 42.727 33.0511 43.0448L26.8946 53.7756L20.738 43.0448C20.5555 42.7236 20.1768 42.5681 19.8218 42.6661L7.88073 45.9016L11.1162 33.9605C11.2142 33.6055 11.0553 33.2269 10.7375 33.0443L0 26.8946L10.7308 20.738C11.052 20.5555 11.2075 20.1768 11.1094 19.8218L7.87397 7.88073L19.8151 11.1162C20.1701 11.2142 20.5487 11.0553 20.7313 10.7375L26.8946 0Z" fill="#F37E43"/>
<path d="M82.876 2.87988C96.1352 2.87988 106.885 13.6285 106.885 26.8877C106.885 26.9651 106.883 27.0429 106.882 27.1201V50.8965H82.873V50.8955C69.6152 50.8937 58.8682 40.146 58.8682 26.8877C58.8684 13.6286 69.6169 2.8801 82.876 2.87988Z" fill="#00ADB5"/>
<path d="M138.509 50.5935C138.509 36.1612 150.216 24.4084 164.631 24.3327L164.631 2.87988C138.383 2.9598 117.057 24.3327 117.057 50.5935C117.057 50.6944 117.057 50.7954 117.061 50.8963L138.514 50.8963C138.509 50.7954 138.509 50.6944 138.509 50.5935Z" fill="#A3BF5E"/>
<path d="M281.179 50.8187C266.847 50.8187 256.13 40.9571 256.13 27.0193V26.8879C256.13 13.4761 266.649 2.95703 280.916 2.95703C289.002 2.95703 294.722 5.4553 299.587 9.66292L292.092 18.6699C288.805 15.9086 285.518 14.3307 280.982 14.3307C274.341 14.3307 269.213 19.919 269.213 26.9536V27.0851C269.213 34.5142 274.407 39.8394 281.705 39.8394C284.795 39.8394 287.162 39.182 289.068 37.9328V32.3446H279.995V23.009H301.165V43.7183C296.3 47.7287 289.528 50.8187 281.179 50.8187Z" fill="white"/>
<path d="M204.144 49.8984L223.735 3.54883H236.029L255.621 49.8984H241.946L238.593 41.6804H220.843L217.555 49.8984H204.144ZM224.59 31.753H234.912L229.784 18.67L224.59 31.753Z" fill="white"/>
<path d="M184.128 50.085V3.40234H197.021V50.085H184.128Z" fill="white"/>
<path d="M435.965 47.7866C433.382 47.7866 430.943 46.8934 428.916 45.0828L430.702 42.9584C432.319 44.3586 433.961 45.1552 436.037 45.1552C437.872 45.1552 439.03 44.2862 439.03 43.0309V42.9826C439.03 41.7755 438.355 41.1237 435.216 40.3995C431.619 39.5305 429.591 38.4683 429.591 35.3541V35.3058C429.591 32.409 432.006 30.4053 435.361 30.4053C437.823 30.4053 439.779 31.1536 441.493 32.5297L439.9 34.7747C438.379 33.6401 436.858 33.0366 435.313 33.0366C433.575 33.0366 432.561 33.9298 432.561 35.0403V35.0886C432.561 36.3922 433.333 36.9715 436.592 37.744C440.165 38.6131 442 39.8926 442 42.6929V42.7412C442 45.9036 439.513 47.7866 435.965 47.7866Z" fill="white"/>
<path d="M420.554 47.8358C415.629 47.8358 411.959 43.9974 411.959 39.1451V39.0968C411.959 34.2928 415.556 30.3579 420.674 30.3579C423.788 30.3579 425.671 31.4442 427.289 32.9892L425.382 35.1861C424.03 33.9307 422.581 33.0858 420.65 33.0858C417.439 33.0858 415.074 35.7413 415.074 39.0486V39.0968C415.074 42.4041 417.415 45.0837 420.65 45.0837C422.726 45.0837 424.054 44.263 425.502 42.9111L427.41 44.8423C425.647 46.677 423.716 47.8358 420.554 47.8358Z" fill="white"/>
<path d="M405.696 47.546V30.6475H408.665V47.546H405.696Z" fill="white"/>
<path d="M394.504 47.546V33.3995H389.145V30.6475H402.857V33.3995H397.498V47.546H394.504Z" fill="white"/>
<path d="M381.667 47.7866C379.084 47.7866 376.646 46.8934 374.618 45.0828L376.405 42.9584C378.022 44.3586 379.664 45.1552 381.74 45.1552C383.574 45.1552 384.733 44.2862 384.733 43.0309V42.9826C384.733 41.7755 384.057 41.1237 380.919 40.3995C377.322 39.5305 375.294 38.4683 375.294 35.3541V35.3058C375.294 32.409 377.708 30.4053 381.064 30.4053C383.526 30.4053 385.481 31.1536 387.195 32.5297L385.602 34.7747C384.081 33.6401 382.56 33.0366 381.015 33.0366C379.277 33.0366 378.263 33.9298 378.263 35.0403V35.0886C378.263 36.3922 379.036 36.9715 382.295 37.744C385.868 38.6131 387.702 39.8926 387.702 42.6929V42.7412C387.702 45.9036 385.216 47.7866 381.667 47.7866Z" fill="white"/>
<path d="M368.736 47.546V30.6475H371.705V47.546H368.736Z" fill="white"/>
<path d="M358.138 47.8358C352.851 47.8358 349.375 44.0698 349.375 39.1451V39.0968C349.375 34.3653 352.996 30.3579 358.09 30.3579C361.035 30.3579 362.846 31.1787 364.584 32.6513L362.701 34.8964C361.397 33.7859 360.118 33.0858 357.969 33.0858C354.855 33.0858 352.489 35.8137 352.489 39.0486V39.0968C352.489 42.5731 354.783 45.132 358.235 45.132C359.828 45.132 361.276 44.6251 362.314 43.8526V40.6901H357.993V38.1071H365.187V45.2044C363.521 46.6287 361.132 47.8358 358.138 47.8358Z" fill="white"/>
<path d="M338.159 47.8358C332.969 47.8358 329.348 43.9008 329.348 39.1451V39.0968C329.348 34.3411 333.017 30.3579 338.207 30.3579C343.398 30.3579 347.019 34.2928 347.019 39.0486V39.0968C347.019 43.8526 343.349 47.8358 338.159 47.8358ZM338.207 45.0837C341.563 45.0837 343.905 42.4283 343.905 39.1451V39.0968C343.905 35.8137 341.515 33.0858 338.159 33.0858C334.803 33.0858 332.462 35.7654 332.462 39.0486V39.0968C332.462 42.38 334.852 45.0837 338.207 45.0837Z" fill="white"/>
<path d="M316.606 47.546V30.6475H319.576V44.8422H328.46V47.546H316.606Z" fill="white"/>
<path d="M428.494 23.4666L426.249 21.1732C424.801 22.5251 423.111 23.37 421.083 23.37C417.92 23.37 415.555 21.4629 415.555 18.5419V18.4936C415.555 16.3209 416.834 14.7518 419.152 13.762C418.186 12.5308 417.751 11.4687 417.751 10.2375V10.1892C417.751 7.91997 419.586 5.94043 422.604 5.94043C425.283 5.94043 427.094 7.75098 427.094 10.0202V10.0685C427.094 12.2894 425.621 13.6172 423.376 14.4621L426.273 17.4073C426.925 16.4416 427.528 15.3312 428.084 14.1483L430.329 15.3312C429.653 16.683 428.904 18.0108 428.035 19.1695L430.715 21.8733L428.494 23.4666ZM421.807 12.8688C423.545 12.2412 424.463 11.4445 424.463 10.2375V10.1892C424.463 9.05458 423.666 8.28208 422.555 8.28208C421.348 8.28208 420.528 9.127 420.528 10.3099V10.3582C420.528 11.2031 420.866 11.8308 421.807 12.8688ZM421.373 20.9077C422.531 20.9077 423.594 20.3524 424.559 19.4351L420.793 15.5967C419.224 16.2727 418.548 17.3107 418.548 18.397V18.4453C418.548 19.8696 419.731 20.9077 421.373 20.9077Z" fill="white"/>
<path d="M398.23 23.1285V6.22998H401.199V20.4247H410.083V23.1285H398.23Z" fill="white"/>
<path d="M382.536 23.1285V6.22998H395.065V8.88546H385.505V13.2791H393.979V15.9345H385.505V20.473H395.186V23.1285H382.536Z" fill="white"/>
<path d="M370.487 23.2492L363.462 6.22998H366.745L371.839 19.2177L376.908 6.22998H380.119L373.118 23.2492H370.487Z" fill="white"/>
<path d="M347.279 23.1286L354.715 6.10938H357.467L364.902 23.1286H361.764L360.05 19.0488H352.059L350.321 23.1286H347.279ZM353.145 16.4175H358.963L356.042 9.65806L353.145 16.4175Z" fill="white"/>
<path d="M331.764 23.1285V6.22998H339.296C341.42 6.22998 343.086 6.85764 344.172 7.91983C345.066 8.83718 345.573 10.0925 345.573 11.5651V11.6134C345.573 14.3895 343.907 16.0552 341.565 16.7312L346.128 23.1285H342.603L338.451 17.2381H334.733V23.1285H331.764ZM334.733 14.6068H339.079C341.203 14.6068 342.555 13.4963 342.555 11.7823V11.7341C342.555 9.92351 341.251 8.93374 339.055 8.93374H334.733V14.6068Z" fill="white"/>
<path d="M320.751 23.1285V8.98202H315.392V6.22998H329.104V8.98202H323.745V23.1285H320.751Z" fill="white"/>
</svg>
