<svg width="244" height="60" viewBox="0 0 244 60" fill="none" xmlns="http://www.w3.org/2000/svg">
<g clip-path="url(#clip0_2004_884)">
<path d="M29.4823 0.697754C13.1998 0.697754 0 13.8975 0 30.1801C0 46.4626 13.1998 59.6624 29.4823 59.6624C45.7649 59.6624 58.9647 46.4626 58.9647 30.1801C58.9647 13.8975 45.7572 0.697754 29.4823 0.697754ZM40.0683 56.472C40.0299 55.6418 39.9453 53.8813 39.9376 53.766C39.5071 49.8914 38.3155 46.8932 36.5012 44.1102C35.4096 42.4266 34.0873 40.8122 32.5651 39.1363C31.8809 38.3752 31.1506 37.6064 30.3818 36.7992C29.9513 36.3456 29.5054 35.8844 29.0441 35.4154C28.5983 34.9618 28.1524 34.4929 27.6834 34.0086C25.6615 31.9098 24.5391 29.7803 24.5391 27.1204C24.5391 25.529 25.0388 24.053 25.7231 22.8998C26.0997 22.2541 26.5149 21.6775 26.907 21.1163C27.8218 19.8171 28.7136 18.564 29.3132 16.5037C29.4977 15.8579 30.4049 13.2133 27.9986 9.67699C28.7059 11.6835 28.6598 12.5445 28.629 13.6208C28.5214 16.7112 27.0607 18.7562 25.8999 20.4013C25.4924 20.9779 25.0619 21.5776 24.6545 22.2694C24.2009 23.0382 23.8703 23.83 23.6397 24.6373C23.6089 23.8147 23.6858 23.0152 23.6704 22.2233C23.6012 18.5947 22.3482 17.4108 21.2949 16.9188C22.6018 18.4871 22.771 20.8626 22.5942 22.6846C22.3328 25.4214 22.6864 28.0045 24.001 30.8566C25.1772 33.4166 28.3907 36.73 29.5054 37.8601C32.0347 40.4124 34.3333 42.7264 36.7011 48.1847C34.5332 45.3479 30.4049 44.0487 25.4079 42.7418C15.8059 40.2279 11.4086 34.3161 11.9621 24.6834C12.2311 20.0477 14.991 15.0814 19.3576 11.153C20.1956 10.3996 20.6645 9.90762 22.033 9.56167C18.7119 9.93837 16.69 12.0064 16.3517 12.3831C12.9922 16.1039 10.9704 20.409 10.7243 24.6065C10.2785 32.4095 13.0307 38.0369 18.8887 41.4426C18.5761 41.417 18.266 41.3913 17.9585 41.3657C16.0212 41.2427 13.9916 42.6957 12.4233 43.4644C13.761 43.2569 15.4753 42.4343 18.043 42.6034C20.3724 42.7495 22.7018 43.1954 25.0619 43.9257C25.0696 43.9257 25.0773 43.9257 25.085 43.9334C29.5746 45.1096 32.888 45.9783 35.3404 48.8996C35.202 48.8074 35.0867 48.7075 34.9329 48.6306C34.0411 48.1924 33.1647 48.054 32.3114 48.054C27.422 48.054 26.6071 51.7902 19.2731 51.7902C17.5126 51.7902 15.606 51.475 13.6918 50.6063C15.7675 52.1131 18.1507 52.6897 20.5108 52.6897C26.6071 52.6897 28.4061 49.5224 31.2889 49.5224C33.2493 49.5224 34.9483 50.5756 35.325 52.8742C35.7786 55.6495 34.1026 57.433 32.2038 57.9942C30.4356 58.517 28.4676 58.5247 27.6834 58.4785C13.3458 57.5944 1.77586 45.8092 1.16084 31.4255C0.422824 14.3204 14.8603 0.382558 32.1346 1.95085C45.8571 3.19626 56.7967 14.3972 57.7577 28.1429C58.6495 40.9121 51.0694 52.0362 40.076 56.4643L40.0683 56.472Z" fill="white"/>
<path d="M29.2884 51.6059C27.2511 52.9128 27.7893 55.2115 26.3594 56.2339C30.5492 56.6644 30.9182 53.3818 32.4711 52.6745C32.9554 52.4516 34.1009 52.1671 34.5468 53.3664C34.2008 50.914 31.3103 50.3067 29.2884 51.6059Z" fill="white"/>
<path d="M19.0898 53.3277C19.5742 54.2271 20.8426 55.4956 23.4488 55.4034C24.9786 55.3495 26.2471 54.1349 26.6392 52.3975C25.0632 53.4276 22.1419 54.2194 19.0898 53.3277Z" fill="white"/>
<path d="M14.2966 45.9861C12.5592 45.4633 10.7987 46.4473 9.37651 44.5869C9.29963 47.2622 12.1518 50.4603 19.2398 50.7986C15.9802 49.8453 16.9412 46.7856 14.289 45.9861H14.2966Z" fill="white"/>
<path d="M23.6181 18.5947C23.5489 16.1423 23.449 15.0199 23.0108 14.205C22.1113 12.5214 21.2734 12.483 21.2734 10.6533C19.905 11.6758 19.4129 13.6285 19.9434 14.8739C20.5738 16.3499 23.1799 16.4037 23.6181 18.6024V18.5947Z" fill="white"/>
<path d="M24.1889 7.91637C26.3723 6.88621 25.7726 4.97966 27.1333 4.08789C24.9039 4.24933 22.5822 5.10267 21.5828 6.00982C20.1375 7.31673 19.8223 7.75492 18.9844 9.49235C20.9371 8.18544 22.7898 8.5852 24.1889 7.92405V7.91637Z" fill="white"/>
<path d="M30.3235 12.3368C31.3921 10.8146 31.4383 9.06183 30.9155 7.40129C30.5157 6.13282 30.8847 4.70291 31.5843 4.08789C29.1935 4.44921 28.2325 6.37883 28.3401 7.7703C28.4785 9.56922 29.4933 9.1464 30.3235 12.3291V12.3368Z" fill="white"/>
<path d="M29.0598 26.6285C29.7901 25.7751 30.3974 24.8065 30.482 23.661C30.5666 22.5156 30.2052 21.3547 29.5672 20.2554C29.3135 22.3003 26.7919 23.4688 25.8156 25.9058C25.1775 27.4895 25.2236 29.8496 26.7765 31.7254C26.4767 31.0489 26.6766 30.111 26.9764 29.3884C27.43 28.3044 28.3218 27.5049 29.0675 26.6285H29.0598Z" fill="white"/>
<path d="M26.5715 8.1626C24.5266 9.23119 23.9807 11.2223 23.9269 12.0756C23.7655 14.628 25.8412 15.8887 25.6644 18.9715C26.6945 17.5647 28.232 14.651 27.3787 12.2909C26.8406 10.7995 26.2102 10.0538 26.5715 8.1626Z" fill="white"/>
<path d="M19.9451 30.2645C20.045 31.7867 18.1462 33.3934 18.4075 35.7228C18.5305 36.8221 19.1994 39.0516 22.705 40.3739C22.3052 39.559 21.6287 37.9522 22.0515 36.8298C23.0125 34.3083 22.1976 31.9712 19.9451 30.2568V30.2645Z" fill="white"/>
<path d="M27.2393 39.8204C27.1471 37.4064 24.7485 37.3526 24.2104 35.5537C23.5261 36.9606 22.7497 41.4732 27.962 42.465C27.3546 41.6193 27.2854 41.158 27.2393 39.8204Z" fill="white"/>
<path d="M15.5444 35.2615C15.4445 33.4933 17.0205 32.4785 17.474 30.9717C18.0199 29.1651 17.6509 26.2976 16.5054 24.5679C16.0441 26.5667 14.5912 26.7512 13.8685 29.2574C13.438 30.7488 14.2221 33.9776 15.5444 35.2692V35.2615Z" fill="white"/>
<path d="M9.76014 28.7349C9.94465 26.2441 9.8524 23.3458 9.09131 21.9082C8.12266 20.0785 6.45443 19.1791 6.77731 17.0957C2.14932 24.7911 8.5378 25.8289 9.76014 28.7349Z" fill="white"/>
<path d="M10.9774 19.0788C12.4303 17.0954 13.3144 15.1273 12.8993 13.5821C12.3304 11.4756 12.3688 10.5147 12.4457 10.2764C11.0619 11.5141 9.65509 12.7826 9.75503 14.643C9.85497 16.4496 10.9774 17.5182 10.9774 19.0788Z" fill="white"/>
<path d="M18.1515 21.3854C19.2739 20.0016 19.1663 17.211 18.0516 16.0117C17.5134 17.68 16.0605 18.0259 14.8074 19.3943C13.7542 20.5475 12.8316 23.6379 13.2391 25.7751C14.446 23.0767 16.9061 22.9153 18.1515 21.3931V21.3854Z" fill="white"/>
<path d="M14.9704 12.4984C19.6214 9.14658 17.884 7.30922 19.4753 5.96387C16.3926 7.20159 15.0165 8.45468 14.7858 9.64628C14.5629 10.7917 15.1472 11.5759 14.9704 12.4907V12.4984Z" fill="white"/>
<path d="M19.3326 21.3236C19.6171 22.915 18.0949 24.3218 18.3794 26.1899C18.6023 27.666 20.1552 29.9185 23.1995 30.6642C20.3628 27.1432 22.7844 23.5146 19.3326 21.3159V21.3236Z" fill="white"/>
<path d="M12.0029 36.084C9.38137 28.5962 4.69956 32.6015 3.34652 28.1733C3.03133 31.4791 3.58484 34.2466 5.93728 35.0769C7.85152 35.7534 9.38137 34.6848 12.0029 36.084Z" fill="white"/>
<path d="M16.0515 40.689C14.5371 39.0746 12.1616 38.2905 10.4857 38.7133C8.93273 39.1054 6.29585 39.9587 4.78906 39.0131C5.3272 40.3892 6.1421 41.8268 7.07231 42.3957C11.0238 44.8327 14.1834 40.689 16.0592 40.689H16.0515Z" fill="white"/>
<path d="M16.8436 45.6169C19.5036 46.3165 18.9808 47.7695 20.9489 49.0226C21.8868 49.6145 23.9009 50.145 27.0529 48.4152C26.1457 48.3768 24.4929 47.7156 23.6242 46.8854C21.1487 44.5176 18.7502 44.7098 16.8359 45.6169H16.8436Z" fill="white"/>
<path d="M30.114 47.3926C31.198 46.9929 32.4357 47.2312 32.4357 47.2312C32.4357 47.2312 29.1761 44.8096 26.3086 46.2702C28.1306 46.8007 28.4765 47.9923 30.1217 47.3926H30.114Z" fill="white"/>
<path d="M33.6017 44.9861C33.6017 44.9861 32.8636 41.5112 29.0352 39.7969C30.1499 40.9193 29.5425 43.0872 31.3184 43.61C32.756 44.0251 33.6017 44.9861 33.6017 44.9861Z" fill="white"/>
<path d="M54.8644 24.8752C54.9644 24.8752 55.0566 24.8752 55.1412 24.8522C54.9721 24.0296 54.7491 23.2147 54.5031 22.4229L31.5938 23.6375L54.8644 24.8752Z" fill="white"/>
<path d="M30.4609 27.3506L32.5751 39.1281C34.0972 40.8041 35.4118 42.4185 36.5112 44.1021L30.4686 27.3506H30.4609Z" fill="white"/>
<path d="M52.7267 18.6789C52.819 18.6558 52.9036 18.6251 52.9881 18.5866C52.7344 18.0792 52.4654 17.5795 52.1886 17.0875C52.0502 16.8569 51.9042 16.634 51.7658 16.4033L31.5625 23.0762L52.7344 18.6789H52.7267Z" fill="white"/>
<path d="M44.246 51.7053C44.246 51.7053 44.2922 51.7745 44.3152 51.8053C44.9994 51.3363 45.6529 50.8366 46.2833 50.3139L31.0078 26.3052L44.246 51.7053Z" fill="white"/>
<path d="M29.6581 28.2196L29.0508 35.4076C29.512 35.8842 29.9502 36.3378 30.3884 36.7914L29.6658 28.2119L29.6581 28.2196Z" fill="white"/>
<path d="M49.4116 13.5432C49.4808 13.5048 49.5423 13.4587 49.6038 13.4126C49.0733 12.7745 48.5121 12.1595 47.9202 11.5752L31.4531 22.484L49.4116 13.5432Z" fill="white"/>
<path d="M50.1128 46.0314C50.159 46.0852 50.2128 46.1237 50.2666 46.1698C50.774 45.5163 51.2429 44.8321 51.6888 44.1325L31.3164 25.4976L50.1128 46.0391V46.0314Z" fill="white"/>
<path d="M45.3072 9.53839C45.3533 9.49227 45.3917 9.44614 45.4302 9.40001C44.7767 8.89263 44.0925 8.43136 43.3852 7.99316L31.2617 21.8387L45.2995 9.54608L45.3072 9.53839Z" fill="white"/>
<path d="M53.8672 39.1509C53.9364 39.197 54.0056 39.2278 54.0824 39.2585C54.3669 38.4821 54.6206 37.6826 54.8358 36.8754L31.4883 24.8057L53.8672 39.1509Z" fill="white"/>
<path d="M40.6972 6.64C40.6972 6.64 40.728 6.57082 40.751 6.54006C40.013 6.18643 39.2519 5.86355 38.4755 5.5791L30.9492 21.0544L40.6972 6.64Z" fill="white"/>
<path d="M55.6714 29.3956L31.5781 24.1987L55.3792 31.8557C55.4638 31.8864 55.5484 31.9018 55.6406 31.9095C55.6791 31.3406 55.7021 30.7717 55.7021 30.1951C55.7021 29.9261 55.6868 29.6647 55.6791 29.3956H55.6714Z" fill="white"/>
<path d="M35.7917 4.80255C35.7917 4.80255 35.7917 4.77949 35.7994 4.76411C35.0075 4.56423 34.2003 4.40279 33.3854 4.27979L30.418 20.0934L35.7917 4.80255Z" fill="white"/>
<path d="M74.7195 25.5368L68.2618 16.7959H66.1016V30.2724H68.6693V21.5161L75.1269 30.2724H77.2718V16.7959H74.7195V25.5368Z" fill="white"/>
<path d="M84.3297 16.7959H81.7773V30.2724H84.3297V16.7959Z" fill="white"/>
<path d="M98.5664 25.9981C97.6516 27.3127 96.4216 27.9739 94.9071 27.9739C92.4393 27.9739 90.5789 26.0673 90.5789 23.5381C90.5789 21.0088 92.4009 19.1023 94.8225 19.1023C96.6906 19.1023 97.813 20.1324 98.4357 20.9934L98.6894 21.3471L100.573 19.6173L100.373 19.3406C99.1276 17.5878 97.1058 16.5884 94.8225 16.5884C90.9864 16.5884 87.9805 19.6404 87.9805 23.5381C87.9805 27.4357 91.0248 30.4877 94.9148 30.4877C97.1519 30.4877 99.1891 29.4192 100.504 27.551L100.704 27.2666L98.8201 25.6445L98.5741 25.9981H98.5664Z" fill="white"/>
<path d="M113.387 25.9981C112.472 27.3127 111.242 27.9739 109.727 27.9739C107.26 27.9739 105.399 26.0673 105.399 23.5381C105.399 21.0088 107.221 19.1023 109.643 19.1023C111.511 19.1023 112.633 20.1324 113.256 20.9934L113.51 21.3471L115.393 19.6173L115.193 19.3406C113.948 17.5878 111.926 16.5884 109.643 16.5884C105.807 16.5884 102.801 19.6404 102.801 23.5381C102.801 27.4357 105.845 30.4877 109.735 30.4877C111.972 30.4877 114.009 29.4192 115.324 27.551L115.524 27.2666L113.64 25.6445L113.394 25.9981H113.387Z" fill="white"/>
<path d="M124.548 16.5806C120.658 16.5806 117.613 19.6326 117.613 23.5303C117.613 27.4279 120.658 30.4799 124.548 30.4799C128.438 30.4799 131.482 27.4279 131.482 23.5303C131.482 19.6326 128.438 16.5806 124.548 16.5806ZM124.548 27.9737C122.118 27.9737 120.219 26.0211 120.219 23.5379C120.219 21.0548 122.118 19.1021 124.548 19.1021C126.977 19.1021 128.876 21.0548 128.876 23.5379C128.876 26.0211 126.977 27.9737 124.548 27.9737Z" fill="white"/>
<path d="M137.673 16.7959H135.121V30.2724H143.27V27.8816H137.673V16.7959Z" fill="white"/>
<path d="M151.669 16.5806C147.779 16.5806 144.734 19.6326 144.734 23.5303C144.734 27.4279 147.779 30.4799 151.669 30.4799C155.559 30.4799 158.603 27.4279 158.603 23.5303C158.603 19.6326 155.559 16.5806 151.669 16.5806ZM151.669 27.9737C149.239 27.9737 147.341 26.0211 147.341 23.5379C147.341 21.0548 149.239 19.1021 151.669 19.1021C154.098 19.1021 155.997 21.0548 155.997 23.5379C155.997 26.0211 154.098 27.9737 151.669 27.9737Z" fill="white"/>
<path d="M162.615 15.5967C161.769 15.5967 161.131 16.2348 161.131 17.0804C161.131 17.6109 161.446 18.0644 161.831 18.3258L161.016 20.5399H162.699L163.914 17.7954C164.037 17.5263 164.091 17.3033 164.091 17.0804C164.091 16.2348 163.453 15.5967 162.607 15.5967H162.615Z" fill="white"/>
<path d="M172.075 22.431L171.583 22.2081C170.091 21.5393 169.369 21.1779 169.369 20.3169C169.369 19.5328 170.13 19.01 171.268 19.01C171.944 19.01 172.89 19.2329 173.574 20.3092L173.789 20.6475L175.796 19.2714L175.627 18.9639C174.789 17.4802 173.182 16.5884 171.314 16.5884C168.746 16.5884 166.809 18.2182 166.809 20.3707C166.809 22.8308 168.646 23.6534 170.268 24.376L171.152 24.7758C172.644 25.4446 173.297 25.7829 173.297 26.69C173.297 27.3512 172.528 28.0354 171.237 28.0354C170.091 28.0354 169.23 27.5049 168.677 26.4594L168.477 26.0827L166.34 27.528L166.501 27.8355C167.393 29.496 169.146 30.4877 171.175 30.4877C174.397 30.4877 175.857 28.4889 175.857 26.6285C175.857 24.1761 174.104 23.3766 172.067 22.4464L172.075 22.431Z" fill="white"/>
<path d="M188.216 16.7959H185.664V30.2724H193.813V27.8816H188.216V16.7959Z" fill="white"/>
<path d="M199.521 16.7959H196.969V30.2724H199.521V16.7959Z" fill="white"/>
<path d="M210.26 25.1986H213.465V26.321C212.581 27.4357 211.451 27.9739 209.998 27.9739C207.584 27.9739 205.755 26.0673 205.755 23.5381C205.755 21.0088 207.577 19.1023 209.998 19.1023C211.866 19.1023 212.989 20.1324 213.612 20.9934L213.865 21.3471L215.756 19.6096L215.541 19.3329C214.188 17.5647 212.22 16.5884 209.998 16.5884C206.162 16.5884 203.156 19.6404 203.156 23.5381C203.156 27.4357 206.162 30.4877 209.998 30.4877C212.335 30.4877 214.465 29.3423 215.841 27.3512L215.91 27.2512V22.8769H210.267V25.1909L210.26 25.1986Z" fill="white"/>
<path d="M228.166 22.3772H222.201V16.7959H219.648V30.2724H222.201V24.6912H228.166V30.2724H230.711V16.7959H228.166V22.3772Z" fill="white"/>
<path d="M233.824 16.7959V19.1868H237.645V30.2724H240.19V19.1868H244.003V16.7959H233.824Z" fill="white"/>
<path d="M66.1719 44.5099H67.3712V41.6731H69.885V40.5738H67.3712V38.721H70.2848V37.5986H66.1719V44.5099Z" fill="white"/>
<path d="M79.6414 37.4912C77.6426 37.4912 76.082 39.0595 76.082 41.0583C76.082 43.0571 77.6426 44.6254 79.6414 44.6254C81.6402 44.6254 83.2008 43.0571 83.2008 41.0583C83.2008 39.0595 81.6402 37.4912 79.6414 37.4912ZM79.6414 43.4415C78.3345 43.4415 77.3121 42.396 77.3121 41.0506C77.3121 39.7053 78.3345 38.6674 79.6414 38.6674C80.9483 38.6674 81.9708 39.713 81.9708 41.0506C81.9708 42.3883 80.9483 43.4415 79.6414 43.4415Z" fill="white"/>
<path d="M93.7872 41.9191C93.7872 42.7801 93.1261 43.4567 92.2881 43.4567C91.4501 43.4567 90.7813 42.7955 90.7813 41.9191V37.5986H89.582V41.9729C89.582 43.4797 90.7429 44.6175 92.2881 44.6175C93.8333 44.6175 94.9942 43.4567 94.9942 41.9729V37.5986H93.7949V41.9191H93.7872Z" fill="white"/>
<path d="M106.333 42.304L102.858 37.5991H101.828V44.5104H103.035V39.8055L106.518 44.5104H107.532V37.5991H106.333V42.304Z" fill="white"/>
<path d="M116.913 37.5991H114.469V44.5104H116.913C118.897 44.5104 120.396 43.019 120.396 41.0432C120.396 39.0675 118.897 37.5991 116.913 37.5991ZM115.66 38.7215H116.837C118.136 38.7215 119.158 39.744 119.158 41.0509C119.158 42.3578 118.159 43.388 116.829 43.388H115.668V38.7138L115.66 38.7215Z" fill="white"/>
<path d="M128.484 37.5986L125.801 44.5099H127.046L127.746 42.7033H130.383L131.082 44.5099H132.328L129.645 37.5986H128.484ZM129.983 41.5655H128.153L129.068 39.1362L129.983 41.5655Z" fill="white"/>
<path d="M136.914 38.721H138.905V44.5099H140.104V38.721H142.103V37.5986H136.914V38.721Z" fill="white"/>
<path d="M149.5 37.5986H148.301V44.5099H149.5V37.5986Z" fill="white"/>
<path d="M159.524 37.4912C157.525 37.4912 155.965 39.0595 155.965 41.0583C155.965 43.0571 157.525 44.6254 159.524 44.6254C161.523 44.6254 163.084 43.0571 163.084 41.0583C163.084 39.0595 161.523 37.4912 159.524 37.4912ZM159.524 43.4415C158.217 43.4415 157.195 42.396 157.195 41.0506C157.195 39.7053 158.217 38.6674 159.524 38.6674C160.831 38.6674 161.854 39.713 161.854 41.0506C161.854 42.3883 160.831 43.4415 159.524 43.4415Z" fill="white"/>
<path d="M174.056 37.5986V42.3035L170.581 37.5986H169.551V44.5099H170.758V39.805L174.233 44.5099H175.255V37.5986H174.056Z" fill="white"/>
</g>
<defs>
<clipPath id="clip0_2004_884">
<rect width="244" height="58.957" fill="white" transform="translate(0 0.697754)"/>
</clipPath>
</defs>
</svg>
