<svg width="334" height="308" viewBox="0 0 334 308" fill="none" xmlns="http://www.w3.org/2000/svg">
<g clip-path="url(#clip0_4054_4735)">
<path fill-rule="evenodd" clip-rule="evenodd" d="M266.271 10.396C276.349 11.8738 284.187 14.4505 290.935 17.7895C297.954 21.2641 303.262 27.7597 307.971 32.7588C322.216 47.8777 340.725 83.1849 330.002 110.463C325.269 122.504 320.887 134.532 312.881 143.375C308.238 148.351 303.594 153.332 298.955 158.307L299.465 158.382C300.227 158.494 300.994 158.611 301.756 158.724C302.476 157.704 304.071 157.124 305.427 156.783L306.414 157.138C304.824 165.406 296.042 171.411 290.804 176.382C285.038 182.503 279.267 188.629 273.501 194.751C272.243 196.051 263.447 205.306 262.558 205.357C260.725 205.469 256.483 199.792 255.226 198.67C256.362 192.244 263.816 190.159 266.935 184.654C265.846 184.701 266.416 185.094 265.663 184.467C265.378 182.615 267.426 178.93 268.02 177.354C267.698 176.616 267.37 175.877 267.048 175.138C266.524 172.374 270.63 170.363 269.376 168.226C268.867 167.548 268.455 167.417 268.058 166.58C279.426 154.014 291.248 142.725 301.027 128.56C302.846 125.928 302.598 123.313 304.015 120.713C308.21 113.011 312.839 102.073 311.408 91.9579C310.95 88.7031 312.203 86.4491 311.623 83.4889C309.463 72.4057 305.998 60.9671 299.951 51.6937C293.6 41.9527 281.661 26.7262 259.514 27.8579C241.93 28.7557 228.991 37.8187 219.848 47.8824C216.528 51.5394 210.753 63.4784 206.16 64.7176C203.546 63.0294 202.821 60.3451 199.155 59.321C196.779 60.102 195.217 60.0412 191.846 59.48C191.224 58.4184 190.597 57.3616 189.975 56.3L189.723 56.2626C189.208 56.7677 189.016 57.3429 188.881 58.4184C188.09 58.2127 186.309 57.1745 187.099 58.1519L186.337 58.0396C185.808 56.8331 186.197 57.7591 184.901 57.2026C183.816 50.8099 179.818 46.0399 175.805 41.3401C169.6 34.0588 163.96 26.02 153.831 21.077C146.031 17.2657 135.111 17.6118 126.75 17.6772C101.511 17.869 81.2805 24.3225 63.5521 33.1703C53.8905 37.9917 42.466 43.4117 38.8043 54.3733C46.4363 51.3944 49.345 41.9948 57.8234 40.199L58.3004 40.4796C57.4446 43.8794 53.7315 45.9978 51.6599 48.4062C48.363 53.0966 45.0614 57.7918 41.7598 62.4869C40.3943 65.2554 39.0288 68.0239 37.6633 70.7923C36.3024 74.3885 38.0467 76.8623 35.7366 80.2528L33.4451 79.9114C30.2932 87.1131 27.1413 94.3195 23.9893 101.521C21.9598 106.104 24.0735 107.334 20.15 109.864L17.9474 108.915C13.7058 133.396 19.4625 154.37 28.6938 171.467C30.2417 174.46 31.7943 177.457 33.3469 180.45C38.5845 186.675 47.582 190.874 52.1462 197.547C57.4306 205.278 65.1795 211.03 71.1981 218.208C80.2704 229.029 89.0106 239.818 99.8413 249.624C106.454 256.48 113.071 263.34 119.688 270.196C126.544 277.959 131.057 286.596 144.015 290.393C148.869 290.422 153.723 290.454 158.573 290.482C160.855 288.542 163.142 286.601 165.424 284.66C171.545 280.25 177.667 275.836 183.783 271.421L184.77 271.777L184.845 273.03L185.098 273.067C185.949 272.02 186.795 270.968 187.646 269.92C175.941 266.104 170.568 256.045 176.596 244.438C181.543 234.917 189.592 225.671 202.527 224.03C205.538 223.647 210.883 225.092 212.623 226.153C222.322 232.069 214.04 242.474 212.305 249.325L221.415 244.045C229.065 240.295 250.75 235.712 254.982 247.581C257.363 254.254 248.038 259.398 244.516 261.989C232.18 271.075 217.889 275.377 198.098 276.659C198.561 286.091 181.052 294.434 174.608 299.915C172.387 301.804 169.698 305.578 166.396 306.158L165.919 305.877C165.513 305.124 165.101 304.371 164.694 303.623L164.442 303.586L164.292 304.6C165.592 305.461 165.447 306.476 164.605 307.757C159.681 307.757 153.181 308.879 147.621 306.48C144.412 305.096 142.49 302.795 140.105 301.009C136.196 298.147 132.282 295.285 128.368 292.423C123.855 287.321 119.337 282.373 113.309 278.16C103.802 271.51 95.0058 263.752 87.1868 256.036C81.4254 251.032 75.6594 246.028 69.898 241.029C54.7183 226.022 40.2213 210.09 27.4873 193.68C20.0798 184.135 7.86963 167.894 6.99514 156.427L6.90628 157.035C6.34979 156.54 6.41058 156.521 6.32173 155.703L6.77067 156.184C5.31629 150.788 3.86192 145.386 2.41222 139.985C1.79025 135.402 1.17296 130.814 0.550994 126.232C-0.613441 120.508 0.237672 112.146 1.69205 106.291C3.1698 100.343 2.58525 94.7357 4.79253 88.9229C10.3294 74.3277 13.2662 63.6935 21.0151 51.5254C21.45 49.1731 21.8896 46.8162 22.3245 44.4639C25.107 38.7259 27.4359 33.5772 31.5792 29.4619C38.173 22.9102 59.1983 13.9782 70.3937 9.93306C87.6825 3.66662 107.791 -0.191444 130.926 0.0423784C137.206 0.103172 145.6 -0.528148 152.811 1.63237C164.343 5.08826 172.78 8.78733 180.664 13.8566C185.397 16.901 190.214 19.646 193.267 23.607C194.867 25.6833 191.434 26.8103 192.005 28.6014C194.609 32.0994 197.214 35.5927 199.814 39.0907L200.352 38.9644C210.425 24.6779 228.411 15.2268 247.739 10.7561C252.293 10.4662 256.848 10.1716 261.398 9.88162C263.021 10.0546 264.644 10.2277 266.267 10.396H266.271ZM208.466 241.899C207.273 244.307 201.39 253.651 201.699 254.165C199.599 255.493 192.276 264.537 190.995 266.675L190.171 266.964C172.967 251.986 186.949 234.533 203.013 227.823C210.996 228.954 211.328 236.133 208.47 241.903L208.466 241.899ZM240.074 258.617C233.316 264.626 222.458 268.592 212.006 270.621C207.315 271.529 198.276 271.014 194.927 273.474C194.404 272.59 195.231 271.954 195.83 270.911C197.546 271.028 199.267 271.145 200.983 271.262C201.764 269.513 202.545 267.764 203.326 266.01C205.931 263.078 208.536 260.151 211.136 257.219C218.754 249.652 228.401 246.954 240.434 243.947C252.719 245.663 243.534 255.54 240.079 258.612L240.074 258.617Z" fill="#D54A6E"/>
<path d="M85.9902 109.602C85.5225 106.572 83.1937 97.3685 72.5922 97.3685C60.5877 97.3685 56.7437 109.022 56.7437 120.208C56.7437 131.394 60.5877 143.048 72.5922 143.048C81.2155 143.048 84.5919 136.987 86.1071 129.182H111.276C111.276 145.961 97.6439 163.788 73.289 163.788C46.3713 163.788 31.1074 144.792 31.1074 120.208C31.1074 93.992 47.6527 76.6284 73.289 76.6284C96.1287 76.7453 108.713 88.7451 110.925 109.607H85.9902V109.602Z" fill="#1D1D1B"/>
<path d="M110.925 109.602H146.297V129.177H110.925V109.602Z" fill="#D54A6E"/>
<path d="M145.133 78.6067H170.769V161.805H145.133V78.6067Z" fill="#1D1D1B"/>
<path d="M170.542 78.6067H234.862V99.9313H196.173V110.304H229.381V130.113H196.173V161.81H170.537V78.6114L170.542 78.6067Z" fill="#D54A6E"/>
<path d="M229.432 78.6067H288.317V99.9313H255.068V110.304H288.275V130.113H255.068V161.81H229.432V78.6114V78.6067Z" fill="#CEB1BD"/>
<path d="M63.5212 172.781C64.7417 171.827 66.299 171.359 68.0386 171.359C68.9412 171.359 70.2132 171.541 70.9988 171.761C71.1999 171.813 71.3168 171.845 71.4665 171.827C71.4852 172.21 71.5647 173.267 71.7003 174.286C71.6161 174.403 71.3636 174.422 71.2467 174.319C70.9941 173.183 70.2412 171.878 67.8188 171.878C65.2608 171.878 63.0863 173.501 63.0863 176.966C63.0863 180.431 65.3123 182.419 68.0527 182.419C70.2132 182.419 71.1625 181.011 71.5506 180.024C71.6675 179.94 71.9201 179.973 71.9855 180.09C71.8686 180.96 71.4337 182.063 71.1812 182.381C70.9801 182.414 70.779 182.479 70.5966 182.55C70.2272 182.685 69.0254 182.933 67.9545 182.933C66.4486 182.933 65.0083 182.634 63.7877 181.811C62.4503 180.889 61.4121 179.37 61.4121 177.209C61.4121 175.353 62.2492 173.763 63.5212 172.776V172.781Z" fill="#1D1D1B"/>
<path d="M83.148 178.79C83.0311 178.421 82.9657 178.374 82.4606 178.374H79.9353C79.5191 178.374 79.4162 178.425 79.2993 178.776L78.7148 180.534C78.4622 181.287 78.3453 181.741 78.3453 181.923C78.3453 182.124 78.4295 182.223 78.8317 182.26L79.3835 182.312C79.5004 182.396 79.5004 182.662 79.3508 182.728C78.9158 182.695 78.3968 182.695 77.6111 182.676C77.0593 182.676 76.456 182.709 76.0071 182.728C75.9089 182.662 75.8715 182.391 75.9744 182.312L76.5262 182.26C76.9284 182.227 77.2978 182.04 77.5316 181.442C77.8309 180.67 78.3032 179.585 79.0047 177.71L80.7116 173.192C80.9454 172.589 81.0483 172.271 80.9969 172.005C81.399 171.888 81.6843 171.588 81.8667 171.369C81.9649 171.369 82.0818 171.401 82.1192 171.518C82.3343 172.252 82.6056 173.024 82.8534 173.758L85.1449 180.483C85.6312 181.923 85.8463 182.171 86.5665 182.255L87.0201 182.307C87.137 182.391 87.1043 182.658 87.0201 182.723C86.3327 182.69 85.7481 182.672 84.9952 182.672C84.1909 182.672 83.5549 182.704 83.0732 182.723C82.9376 182.658 82.9236 182.386 83.0405 182.307L83.5268 182.255C83.8776 182.223 84.1114 182.12 84.1114 181.956C84.1114 181.774 84.0272 181.47 83.8916 181.068L83.1574 178.795L83.148 178.79ZM79.8324 177.298C79.6968 177.682 79.7155 177.701 80.1832 177.701H82.2408C82.7272 177.701 82.7599 177.635 82.6102 177.181L81.7077 174.455C81.5721 174.053 81.4224 173.604 81.3242 173.403H81.2915C81.24 173.487 81.0764 173.889 80.8893 174.39L79.8371 177.303L79.8324 177.298Z" fill="#1D1D1B"/>
<path d="M92.9161 174.137C92.9161 172.397 92.8834 172.145 91.8967 172.028L91.6301 171.995C91.5319 171.93 91.5646 171.626 91.6628 171.579C92.383 171.612 92.9489 171.63 93.6363 171.63H96.7836C97.8545 171.63 98.8412 171.63 99.0423 171.579C99.1405 171.864 99.2434 173.066 99.3088 173.805C99.2434 173.908 98.9721 173.94 98.8926 173.838C98.6401 173.052 98.4905 172.467 97.6206 172.248C97.2699 172.163 96.7321 172.149 95.9979 172.149H94.7914C94.291 172.149 94.291 172.182 94.291 172.818V176.166C94.291 176.634 94.3424 176.634 94.8428 176.634H95.8109C96.5123 176.634 97.0314 176.601 97.2325 176.531C97.4336 176.466 97.5505 176.363 97.6347 175.947L97.7703 175.259C97.8545 175.161 98.1397 175.161 98.2052 175.278C98.2052 175.68 98.1397 176.33 98.1397 176.966C98.1397 177.569 98.2052 178.205 98.2052 178.57C98.1397 178.687 97.8545 178.687 97.7703 178.589L97.6206 177.939C97.5552 177.64 97.4383 177.387 97.1015 177.303C96.8677 177.237 96.4656 177.219 95.8155 177.219H94.8475C94.3471 177.219 94.2957 177.237 94.2957 177.672V180.029C94.2957 180.918 94.3471 181.484 94.6137 181.769C94.8148 181.97 95.1655 182.152 96.6386 182.152C97.9246 182.152 98.411 182.087 98.7804 181.9C99.0797 181.731 99.5333 181.147 99.9682 180.277C100.085 180.193 100.319 180.244 100.384 180.394C100.268 180.979 99.8513 182.269 99.6315 182.718C98.1257 182.685 96.6386 182.667 95.1468 182.667H93.641C92.9208 182.667 92.355 182.685 91.3635 182.718C91.2653 182.667 91.2279 182.4 91.3308 182.302L91.8826 182.251C92.8366 182.166 92.9208 181.914 92.9208 180.16V174.137H92.9161Z" fill="#1D1D1B"/>
<path d="M108.312 182.938C106.904 182.938 106.021 182.503 105.703 182.321C105.502 181.951 105.286 180.763 105.249 179.978C105.333 179.861 105.586 179.828 105.651 179.926C105.904 180.777 106.586 182.419 108.527 182.419C109.935 182.419 110.618 181.498 110.618 180.497C110.618 179.763 110.468 178.94 109.247 178.154L107.657 177.116C106.82 176.564 105.852 175.61 105.852 174.24C105.852 172.65 107.092 171.364 109.266 171.364C109.785 171.364 110.388 171.462 110.823 171.579C111.038 171.644 111.277 171.682 111.408 171.682C111.558 172.084 111.707 173.019 111.707 173.721C111.642 173.824 111.37 173.87 111.291 173.772C111.076 172.968 110.622 171.883 109.014 171.883C107.405 171.883 107.021 172.972 107.021 173.739C107.021 174.707 107.826 175.414 108.443 175.797L109.78 176.634C110.833 177.289 111.871 178.257 111.871 179.847C111.871 181.685 110.482 182.943 108.307 182.943L108.312 182.938Z" fill="#1D1D1B"/>
<path d="M123.572 178.79C123.455 178.421 123.389 178.374 122.884 178.374H120.359C119.943 178.374 119.84 178.425 119.723 178.776L119.139 180.534C118.886 181.287 118.769 181.741 118.769 181.923C118.769 182.124 118.853 182.223 119.256 182.26L119.807 182.312C119.924 182.396 119.924 182.662 119.775 182.728C119.34 182.695 118.821 182.695 118.035 182.676C117.483 182.676 116.88 182.709 116.431 182.728C116.333 182.662 116.295 182.391 116.398 182.312L116.95 182.26C117.352 182.227 117.722 182.04 117.955 181.442C118.255 180.67 118.727 179.585 119.429 177.71L121.135 173.192C121.369 172.589 121.472 172.271 121.421 172.005C121.823 171.888 122.108 171.588 122.291 171.369C122.389 171.369 122.506 171.401 122.543 171.518C122.758 172.252 123.029 173.024 123.277 173.758L125.569 180.483C126.055 181.923 126.27 182.171 126.99 182.255L127.444 182.307C127.561 182.391 127.528 182.658 127.444 182.723C126.757 182.69 126.172 182.672 125.419 182.672C124.615 182.672 123.979 182.704 123.497 182.723C123.361 182.658 123.347 182.386 123.464 182.307L123.951 182.255C124.301 182.223 124.535 182.12 124.535 181.956C124.535 181.774 124.451 181.47 124.32 181.068L123.586 178.795L123.572 178.79ZM120.261 177.298C120.125 177.682 120.144 177.701 120.612 177.701H122.669C123.156 177.701 123.188 177.635 123.039 177.181L122.136 174.455C122.001 174.053 121.851 173.604 121.753 173.403H121.72C121.669 173.487 121.505 173.889 121.318 174.39L120.266 177.303L120.261 177.298Z" fill="#1D1D1B"/>
<path d="M133.345 174.156C133.345 172.566 133.293 172.28 132.61 172.196L132.077 172.131C131.96 172.046 131.96 171.78 132.096 171.714C133.031 171.63 134.186 171.579 135.828 171.579C136.866 171.579 137.853 171.663 138.62 172.079C139.424 172.495 140.009 173.248 140.009 174.422C140.009 176.012 138.755 176.882 137.918 177.214C137.834 177.312 137.918 177.481 138.002 177.616C139.34 179.772 140.228 181.114 141.365 182.068C141.65 182.321 142.066 182.503 142.52 182.536C142.604 182.568 142.618 182.704 142.539 182.77C142.389 182.821 142.122 182.854 141.804 182.854C140.383 182.854 139.527 182.438 138.339 180.745C137.904 180.127 137.217 178.972 136.698 178.219C136.445 177.85 136.179 177.682 135.51 177.682C134.757 177.682 134.724 177.7 134.724 178.051V180.16C134.724 181.918 134.757 182.12 135.73 182.251L136.08 182.302C136.179 182.386 136.146 182.671 136.048 182.718C135.295 182.685 134.724 182.667 134.055 182.667C133.354 182.667 132.751 182.685 131.965 182.718C131.867 182.667 131.829 182.419 131.932 182.302L132.349 182.251C133.317 182.134 133.354 181.914 133.354 180.16V174.156H133.345ZM134.715 176.545C134.715 176.845 134.715 177.032 134.766 177.097C134.818 177.149 135.066 177.181 135.921 177.181C136.525 177.181 137.161 177.116 137.642 176.746C138.096 176.396 138.479 175.811 138.479 174.67C138.479 173.347 137.661 172.093 135.804 172.093C134.766 172.093 134.715 172.159 134.715 172.626V176.541V176.545Z" fill="#1D1D1B"/>
<path d="M150.579 178.537C150.761 178.654 150.831 178.855 150.831 179.07C150.831 179.239 150.78 179.388 150.696 179.486L146.796 179.856C146.613 179.706 146.543 179.486 146.543 179.318C146.543 179.15 146.594 179 146.679 178.902L150.579 178.532V178.537Z" fill="#1D1D1B"/>
<path d="M157.522 174.17C157.522 172.397 157.49 172.112 156.503 172.028L156.087 171.995C155.988 171.93 156.021 171.626 156.119 171.579C156.956 171.612 157.527 171.63 158.228 171.63C158.93 171.63 159.468 171.612 160.305 171.579C160.408 171.63 160.44 171.93 160.338 171.995L159.921 172.028C158.935 172.112 158.902 172.397 158.902 174.17V180.127C158.902 181.9 158.935 182.134 159.921 182.251L160.338 182.302C160.436 182.367 160.403 182.671 160.305 182.718C159.468 182.685 158.897 182.667 158.228 182.667C157.527 182.667 156.956 182.685 156.119 182.718C156.021 182.667 155.984 182.4 156.087 182.302L156.503 182.251C157.49 182.134 157.522 181.9 157.522 180.127V174.17Z" fill="#1D1D1B"/>
<path d="M175.897 180.964C175.897 181.633 175.995 182.035 176.299 182.152C176.35 182.204 176.35 182.302 176.28 182.353C176.079 182.353 175.78 182.419 175.462 182.503C174.573 182.737 173.371 182.938 172.469 182.938C170.477 182.938 168.653 182.386 167.367 181.081C166.361 180.076 165.828 178.757 165.828 177.284C165.828 175.811 166.296 174.422 167.334 173.318C168.456 172.149 170.112 171.359 172.637 171.359C173.591 171.359 174.475 171.541 174.76 171.611C175.078 171.677 175.597 171.794 175.798 171.761C175.798 172.313 175.901 173.183 176.051 174.188C175.999 174.324 175.7 174.338 175.597 174.24C175.13 172.434 173.876 171.864 172.169 171.864C168.924 171.864 167.502 174.174 167.502 176.681C167.502 179.893 169.158 182.419 172.52 182.419C173.558 182.419 174.176 182.199 174.358 181.918C174.442 181.801 174.526 181.502 174.526 180.964V180.296C174.526 178.888 174.475 178.79 173.437 178.673L172.702 178.589C172.567 178.523 172.586 178.219 172.702 178.172C173.189 178.205 174.11 178.224 175.097 178.224C175.752 178.224 176.317 178.205 176.869 178.172C176.986 178.238 177.005 178.49 176.888 178.589L176.621 178.621C175.92 178.706 175.901 179.173 175.901 180.029V180.964H175.897Z" fill="#1D1D1B"/>
<path d="M183.71 174.137C183.71 172.379 183.678 172.112 182.621 172.028L182.205 171.995C182.106 171.93 182.139 171.626 182.237 171.579C183.173 171.612 183.743 171.63 184.412 171.63C185.081 171.63 185.632 171.612 186.47 171.579C186.568 171.63 186.605 171.93 186.502 171.995L186.1 172.028C185.113 172.112 185.081 172.379 185.081 174.137V179.959C185.081 181.011 185.132 181.446 185.431 181.764C185.614 181.947 185.932 182.148 187.255 182.148C188.677 182.148 189.028 182.082 189.294 181.928C189.631 181.727 190.066 181.123 190.398 180.272C190.496 180.188 190.814 180.254 190.814 180.371C190.814 180.553 190.346 182.26 190.113 182.713C189.257 182.681 187.671 182.662 185.946 182.662H184.407C183.706 182.662 183.168 182.681 182.233 182.713C182.134 182.662 182.097 182.395 182.2 182.297L182.7 182.246C183.673 182.148 183.706 181.909 183.706 180.155V174.132L183.71 174.137Z" fill="#1D1D1B"/>
<path d="M196.977 174.137C196.977 172.397 196.944 172.145 195.957 172.028L195.691 171.995C195.592 171.93 195.625 171.626 195.723 171.579C196.444 171.612 197.009 171.63 197.697 171.63H200.844C201.915 171.63 202.902 171.63 203.103 171.579C203.206 171.864 203.304 173.066 203.369 173.805C203.304 173.908 203.033 173.94 202.953 173.838C202.701 173.052 202.551 172.467 201.681 172.248C201.33 172.163 200.793 172.149 200.058 172.149H198.852C198.352 172.149 198.352 172.182 198.352 172.818V176.166C198.352 176.634 198.403 176.634 198.903 176.634H199.876C200.578 176.634 201.097 176.601 201.298 176.531C201.499 176.466 201.616 176.363 201.7 175.947L201.836 175.259C201.92 175.161 202.205 175.161 202.27 175.278C202.27 175.68 202.205 176.33 202.205 176.966C202.205 177.569 202.27 178.205 202.27 178.57C202.205 178.687 201.92 178.687 201.836 178.589L201.686 177.939C201.62 177.64 201.503 177.387 201.167 177.303C200.933 177.237 200.531 177.219 199.881 177.219H198.908C198.408 177.219 198.356 177.237 198.356 177.672V180.029C198.356 180.918 198.408 181.484 198.674 181.769C198.875 181.97 199.226 182.152 200.699 182.152C201.985 182.152 202.471 182.087 202.841 181.9C203.14 181.731 203.594 181.147 204.029 180.277C204.146 180.193 204.379 180.244 204.445 180.394C204.328 180.979 203.907 182.269 203.692 182.718C202.186 182.685 200.699 182.667 199.207 182.667H197.702C196.981 182.667 196.416 182.685 195.424 182.718C195.326 182.667 195.288 182.4 195.391 182.302L195.943 182.251C196.897 182.166 196.981 181.914 196.981 180.16V174.137H196.977Z" fill="#1D1D1B"/>
<path d="M212.372 182.938C210.964 182.938 210.08 182.503 209.762 182.321C209.561 181.951 209.346 180.763 209.309 179.978C209.393 179.861 209.645 179.828 209.711 179.926C209.963 180.777 210.646 182.419 212.587 182.419C213.994 182.419 214.677 181.498 214.677 180.497C214.677 179.763 214.528 178.94 213.307 178.154L211.717 177.116C210.88 176.564 209.912 175.61 209.912 174.24C209.912 172.65 211.151 171.364 213.326 171.364C213.845 171.364 214.448 171.462 214.883 171.579C215.103 171.644 215.337 171.682 215.467 171.682C215.617 172.084 215.767 173.019 215.767 173.721C215.701 173.824 215.43 173.87 215.351 173.772C215.131 172.968 214.682 171.883 213.073 171.883C211.464 171.883 211.081 172.972 211.081 173.739C211.081 174.707 211.885 175.414 212.503 175.797L213.84 176.634C214.892 177.289 215.93 178.257 215.93 179.847C215.93 181.685 214.542 182.943 212.367 182.943L212.372 182.938Z" fill="#1D1D1B"/>
<path d="M222.964 174.17C222.964 172.397 222.931 172.112 221.944 172.028L221.528 171.995C221.425 171.93 221.463 171.626 221.561 171.579C222.398 171.612 222.968 171.63 223.67 171.63C224.371 171.63 224.909 171.612 225.746 171.579C225.844 171.63 225.882 171.93 225.779 171.995L225.363 172.028C224.376 172.112 224.343 172.397 224.343 174.17V180.127C224.343 181.9 224.376 182.134 225.363 182.251L225.779 182.302C225.877 182.367 225.844 182.671 225.746 182.718C224.909 182.685 224.339 182.667 223.67 182.667C222.968 182.667 222.398 182.685 221.561 182.718C221.463 182.667 221.425 182.4 221.528 182.302L221.944 182.251C222.931 182.134 222.964 181.9 222.964 180.127V174.17Z" fill="#1D1D1B"/>
<path d="M237.303 178.79C237.186 178.421 237.121 178.374 236.616 178.374H234.091C233.674 178.374 233.571 178.425 233.455 178.776L232.87 180.534C232.618 181.287 232.501 181.741 232.501 181.923C232.501 182.124 232.585 182.223 232.987 182.26L233.539 182.312C233.656 182.396 233.656 182.662 233.506 182.728C233.071 182.695 232.552 182.695 231.766 182.676C231.215 182.676 230.611 182.709 230.162 182.728C230.064 182.662 230.027 182.391 230.13 182.312L230.681 182.26C231.084 182.227 231.453 182.04 231.687 181.442C231.986 180.67 232.459 179.585 233.16 177.71L234.867 173.192C235.101 172.589 235.204 172.271 235.152 172.005C235.554 171.888 235.84 171.588 236.022 171.369C236.12 171.369 236.242 171.401 236.274 171.518C236.494 172.252 236.761 173.024 237.009 173.758L239.3 180.483C239.786 181.923 240.002 182.171 240.722 182.255L241.175 182.307C241.292 182.391 241.26 182.658 241.175 182.723C240.488 182.69 239.903 182.672 239.151 182.672C238.346 182.672 237.71 182.704 237.228 182.723C237.093 182.658 237.079 182.386 237.196 182.307L237.682 182.255C238.033 182.223 238.267 182.12 238.267 181.956C238.267 181.774 238.182 181.47 238.052 181.068L237.317 178.795L237.303 178.79ZM233.992 177.298C233.857 177.682 233.875 177.701 234.343 177.701H236.401C236.887 177.701 236.92 177.635 236.77 177.181L235.868 174.455C235.732 174.053 235.582 173.604 235.484 173.403H235.451C235.4 173.487 235.232 173.889 235.049 174.39L233.997 177.303L233.992 177.298Z" fill="#1D1D1B"/>
<path d="M248.68 182.938C247.273 182.938 246.389 182.503 246.071 182.321C245.87 181.951 245.655 180.763 245.617 179.978C245.701 179.861 245.954 179.828 246.019 179.926C246.272 180.777 246.955 182.419 248.895 182.419C250.303 182.419 250.986 181.498 250.986 180.497C250.986 179.763 250.836 178.94 249.616 178.154L248.026 177.116C247.188 176.564 246.22 175.61 246.22 174.24C246.22 172.65 247.46 171.364 249.634 171.364C250.153 171.364 250.757 171.462 251.192 171.579C251.411 171.644 251.645 171.682 251.776 171.682C251.926 172.084 252.075 173.019 252.075 173.721C252.01 173.824 251.739 173.87 251.659 173.772C251.439 172.968 250.99 171.883 249.382 171.883C247.773 171.883 247.39 172.972 247.39 173.739C247.39 174.707 248.194 175.414 248.811 175.797L250.149 176.634C251.201 177.289 252.239 178.257 252.239 179.847C252.239 181.685 250.85 182.943 248.676 182.943L248.68 182.938Z" fill="#1D1D1B"/>
<path d="M63.5104 191.496C63.5104 191.786 63.5432 191.786 63.8659 191.786H64.5954C65.035 191.786 65.381 191.763 65.5073 191.721C65.6242 191.679 65.713 191.622 65.7738 191.346L65.872 190.916C65.9282 190.851 66.1105 190.851 66.1526 190.916C66.1526 191.173 66.1105 191.604 66.1105 192.001C66.1105 192.399 66.1526 192.796 66.1526 193.044C66.1105 193.11 65.9469 193.11 65.872 193.044L65.7645 192.623C65.7131 192.431 65.6242 192.277 65.4231 192.216C65.2735 192.174 65.0022 192.165 64.5954 192.165H63.8659C63.5432 192.165 63.5104 192.174 63.5104 192.455V193.947C63.5104 195.074 63.5338 195.237 64.1651 195.289L64.5299 195.321C64.5954 195.364 64.572 195.555 64.5065 195.588C63.8752 195.565 63.5058 195.555 63.0802 195.555C62.6079 195.555 62.2431 195.565 61.7381 195.588C61.6726 195.555 61.6539 195.382 61.7147 195.321L61.9812 195.289C62.6032 195.214 62.6266 195.074 62.6266 193.947V190.079C62.6266 188.952 62.6032 188.803 61.9812 188.728L61.8082 188.704C61.7427 188.662 61.7661 188.47 61.8316 188.438C62.2805 188.461 62.65 188.47 63.0755 188.47H65.0537C65.7411 188.47 66.3631 188.47 66.5034 188.438C66.5034 188.933 66.5127 189.448 66.5361 189.855C66.5034 189.92 66.3537 189.953 66.2789 189.887C66.1947 189.406 66.0638 189.008 65.526 188.868C65.2922 188.802 64.9368 188.803 64.4831 188.803H63.8284C63.5058 188.803 63.5058 188.826 63.5058 189.233V191.501L63.5104 191.496Z" fill="#1D1D1B"/>
<path d="M75.954 193.062C75.8792 192.828 75.8371 192.796 75.5144 192.796H73.8917C73.6251 192.796 73.5597 192.828 73.4848 193.053L73.1107 194.18C72.9517 194.662 72.8769 194.951 72.8769 195.073C72.8769 195.204 72.9283 195.265 73.1902 195.288L73.5456 195.321C73.6205 195.372 73.6205 195.545 73.5223 195.587C73.2417 195.564 72.9096 195.564 72.4046 195.555C72.0492 195.555 71.6657 195.578 71.3758 195.587C71.3103 195.545 71.2916 195.372 71.3524 195.321L71.7078 195.288C71.965 195.265 72.2035 195.148 72.3531 194.76C72.5449 194.264 72.8488 193.567 73.2978 192.365L74.3921 189.466C74.5417 189.078 74.6072 188.877 74.5745 188.704C74.8317 188.629 75.014 188.437 75.131 188.297C75.1964 188.297 75.2712 188.32 75.2899 188.395C75.4302 188.867 75.6033 189.363 75.7623 189.835L77.2354 194.152C77.5487 195.073 77.6843 195.237 78.1473 195.288L78.4372 195.321C78.512 195.372 78.4886 195.545 78.4372 195.587C77.9976 195.564 77.6188 195.555 77.1371 195.555C76.6227 195.555 76.2159 195.578 75.9026 195.587C75.8184 195.545 75.8044 195.372 75.8792 195.321L76.1925 195.288C76.417 195.265 76.5666 195.204 76.5666 195.096C76.5666 194.98 76.5152 194.783 76.4263 194.526L75.954 193.067V193.062ZM73.8309 192.108C73.7467 192.356 73.7561 192.365 74.0554 192.365H75.3741C75.6874 192.365 75.7062 192.323 75.6126 192.033L75.0327 190.284C74.9486 190.027 74.8504 189.737 74.7849 189.606H74.7615C74.7288 189.658 74.6212 189.92 74.5043 190.238L73.8262 192.108H73.8309Z" fill="#1D1D1B"/>
<path d="M87.3948 192.689C87.6426 193.194 87.8764 193.689 88.1336 194.162H88.157C88.447 193.657 88.7135 193.1 88.9847 192.553L89.9949 190.5C90.4765 189.523 90.7899 188.933 90.8132 188.438C91.178 188.47 91.4025 188.47 91.6176 188.47C91.8841 188.47 92.2396 188.461 92.5716 188.438C92.6371 188.48 92.6371 188.662 92.5809 188.704L92.3565 188.728C91.6784 188.793 91.5942 188.994 91.6036 189.747C91.6269 190.884 91.6363 192.871 91.7205 194.419C91.7532 194.957 91.7438 195.247 92.2489 195.289L92.5903 195.321C92.6558 195.387 92.6417 195.546 92.5669 195.588C92.1273 195.565 91.6877 195.555 91.2996 195.555C90.9114 195.555 90.4391 195.565 89.9995 195.588C89.9247 195.537 89.9154 195.382 89.9762 195.321L90.2895 195.289C90.8179 195.237 90.8179 195.064 90.8179 194.377L90.7852 189.897H90.7618C90.687 190.014 90.2801 190.874 90.065 191.295L89.111 193.175C88.6293 194.12 88.143 195.13 87.9513 195.625C87.9279 195.658 87.8858 195.668 87.8437 195.668C87.8203 195.668 87.7689 195.658 87.7455 195.625C87.5631 195.055 87.0487 194.003 86.8009 193.479L85.8328 191.407C85.6084 190.912 85.3839 190.355 85.1454 189.859H85.122C85.0799 190.523 85.0472 191.15 85.0144 191.772C84.9817 192.427 84.9396 193.385 84.9396 194.297C84.9396 195.092 85.0051 195.265 85.4213 195.298L85.8281 195.331C85.903 195.396 85.8936 195.565 85.8188 195.597C85.454 195.574 85.0332 195.565 84.6263 195.565C84.2849 195.565 83.8968 195.574 83.532 195.597C83.4665 195.546 83.4478 195.382 83.5086 195.331L83.7471 195.298C84.1961 195.233 84.3504 195.167 84.4112 194.419C84.4767 193.708 84.5281 193.119 84.5936 192.057C84.645 191.164 84.6918 190.252 84.7105 189.663C84.7339 188.985 84.645 188.826 83.9903 188.742L83.8173 188.718C83.7658 188.653 83.7752 188.494 83.8594 188.452C84.182 188.475 84.4392 188.484 84.7058 188.484C84.9537 188.484 85.2436 188.485 85.599 188.452C85.5569 188.873 85.8235 189.537 86.1555 190.224L87.3807 192.703L87.3948 192.689Z" fill="#1D1D1B"/>
<path d="M99.3225 190.103C99.3225 188.966 99.2991 188.784 98.6678 188.728L98.4012 188.704C98.3358 188.662 98.3592 188.47 98.4246 188.438C98.9624 188.461 99.3272 188.47 99.7761 188.47C100.225 188.47 100.571 188.461 101.109 188.438C101.174 188.47 101.193 188.662 101.132 188.704L100.866 188.728C100.234 188.779 100.211 188.962 100.211 190.103V193.928C100.211 195.064 100.234 195.214 100.866 195.293L101.132 195.326C101.198 195.368 101.174 195.56 101.109 195.593C100.571 195.569 100.206 195.56 99.7761 195.56C99.3272 195.56 98.9577 195.569 98.4246 195.593C98.3592 195.56 98.3405 195.387 98.4012 195.326L98.6678 195.293C99.2991 195.219 99.3225 195.069 99.3225 193.928V190.103Z" fill="#1D1D1B"/>
<path d="M107.89 190.079C107.89 188.952 107.867 188.779 107.193 188.728L106.927 188.704C106.861 188.662 106.885 188.47 106.95 188.438C107.553 188.461 107.918 188.47 108.348 188.47C108.779 188.47 109.134 188.461 109.667 188.438C109.733 188.47 109.751 188.662 109.69 188.704L109.433 188.728C108.802 188.779 108.779 188.952 108.779 190.079V193.816C108.779 194.494 108.811 194.77 109.003 194.975C109.12 195.092 109.326 195.223 110.172 195.223C111.084 195.223 111.308 195.181 111.482 195.083C111.697 194.952 111.977 194.569 112.192 194.021C112.258 193.97 112.459 194.012 112.459 194.087C112.459 194.204 112.16 195.303 112.01 195.588C111.463 195.565 110.443 195.555 109.335 195.555H108.348C107.899 195.555 107.553 195.565 106.95 195.588C106.885 195.555 106.866 195.382 106.927 195.321L107.249 195.289C107.871 195.223 107.895 195.074 107.895 193.947V190.079H107.89Z" fill="#1D1D1B"/>
<path d="M120.25 193.923C120.25 195.074 120.316 195.242 120.896 195.289L121.303 195.321C121.368 195.387 121.345 195.555 121.279 195.588C120.615 195.565 120.25 195.555 119.82 195.555C119.371 195.555 118.983 195.565 118.413 195.588C118.347 195.555 118.328 195.382 118.389 195.321L118.721 195.289C119.343 195.223 119.367 195.074 119.367 193.923V193.376C119.367 192.787 119.334 192.647 119.025 192.043L117.758 189.574C117.393 188.863 117.229 188.812 116.911 188.756L116.612 188.704C116.547 188.629 116.561 188.48 116.636 188.438C116.977 188.461 117.365 188.47 117.879 188.47C118.394 188.47 118.759 188.461 119.03 188.438C119.128 188.47 119.128 188.643 119.063 188.704L118.922 188.728C118.548 188.779 118.473 188.835 118.473 188.919C118.473 189.027 118.754 189.64 118.805 189.747C119.203 190.542 119.6 191.389 120.021 192.132C120.353 191.562 120.709 190.94 121.031 190.318C121.331 189.761 121.728 189.032 121.728 188.901C121.728 188.835 121.536 188.76 121.279 188.728L121.088 188.704C121.013 188.629 121.022 188.48 121.111 188.438C121.499 188.461 121.808 188.47 122.14 188.47C122.472 188.47 122.771 188.461 123.14 188.438C123.225 188.489 123.239 188.643 123.164 188.704L122.865 188.756C122.308 188.854 121.985 189.527 121.448 190.453L120.77 191.622C120.297 192.441 120.264 192.534 120.264 193.362V193.919L120.25 193.923Z" fill="#1D1D1B"/>
<path d="M137.629 191.496C137.629 191.786 137.661 191.786 137.984 191.786H138.714C139.153 191.786 139.499 191.763 139.625 191.721C139.742 191.679 139.831 191.622 139.892 191.346L139.99 190.916C140.046 190.851 140.229 190.851 140.271 190.916C140.271 191.173 140.229 191.604 140.229 192.001C140.229 192.399 140.271 192.796 140.271 193.044C140.229 193.11 140.065 193.11 139.99 193.044L139.883 192.623C139.831 192.431 139.742 192.277 139.541 192.216C139.392 192.174 139.12 192.165 138.714 192.165H137.984C137.661 192.165 137.629 192.174 137.629 192.455V193.947C137.629 195.074 137.652 195.237 138.283 195.289L138.648 195.321C138.714 195.364 138.69 195.555 138.625 195.588C137.993 195.565 137.624 195.555 137.198 195.555C136.726 195.555 136.361 195.565 135.856 195.588C135.791 195.555 135.772 195.382 135.833 195.321L136.099 195.289C136.721 195.214 136.745 195.074 136.745 193.947V190.079C136.745 188.952 136.721 188.803 136.099 188.728L135.926 188.704C135.861 188.662 135.884 188.47 135.95 188.438C136.399 188.461 136.768 188.47 137.194 188.47H139.172C139.859 188.47 140.481 188.47 140.622 188.438C140.622 188.933 140.631 189.448 140.654 189.855C140.622 189.92 140.472 189.953 140.397 189.887C140.313 189.406 140.182 189.008 139.644 188.868C139.41 188.802 139.055 188.803 138.601 188.803H137.947C137.624 188.803 137.624 188.826 137.624 189.233V191.501L137.629 191.496Z" fill="#1D1D1B"/>
<path d="M146.584 192.085C146.584 189.938 148.193 188.292 150.409 188.292C152.888 188.292 154.136 190.088 154.136 191.977C154.136 194.147 152.481 195.723 150.409 195.723C148.024 195.723 146.584 194.016 146.584 192.085ZM153.056 192.314C153.056 190.542 152.271 188.629 150.222 188.629C149.105 188.629 147.655 189.391 147.655 191.743C147.655 193.333 148.427 195.396 150.545 195.396C151.836 195.396 153.056 194.428 153.056 192.314Z" fill="#1D1D1B"/>
<path d="M166.062 191.164C166.062 190.5 166.039 189.265 165.856 188.943C165.781 188.812 165.59 188.737 165.318 188.718L165.052 188.695C164.986 188.62 165.01 188.48 165.075 188.438C165.482 188.461 165.88 188.47 166.3 188.47C166.749 188.47 167.039 188.461 167.428 188.438C167.512 188.489 167.502 188.629 167.451 188.695L167.194 188.718C166.927 188.742 166.721 188.835 166.656 188.976C166.506 189.331 166.506 190.566 166.506 191.169V192.38C166.506 193.315 166.357 194.302 165.753 194.947C165.29 195.452 164.495 195.733 163.7 195.733C162.961 195.733 162.218 195.593 161.694 195.144C161.124 194.671 160.857 193.886 160.857 192.609V190.074C160.857 188.957 160.834 188.774 160.212 188.723L159.945 188.7C159.88 188.658 159.903 188.475 159.969 188.442C160.506 188.466 160.871 188.475 161.301 188.475C161.732 188.475 162.096 188.466 162.62 188.442C162.686 188.475 162.704 188.658 162.644 188.7L162.386 188.723C161.764 188.774 161.741 188.957 161.741 190.074V192.394C161.741 194.124 162.279 195.261 163.92 195.261C165.477 195.261 166.067 194.035 166.067 192.403V191.169L166.062 191.164Z" fill="#1D1D1B"/>
<path d="M179.665 193.731C179.665 194.054 179.665 195.331 179.698 195.611C179.675 195.677 179.614 195.728 179.492 195.728C179.361 195.546 179.053 195.172 178.117 194.106L175.625 191.272C175.335 190.94 174.605 190.056 174.381 189.822H174.358C174.316 189.953 174.306 190.196 174.306 190.519V192.862C174.306 193.367 174.316 194.76 174.498 195.083C174.563 195.2 174.778 195.265 175.045 195.289L175.377 195.321C175.443 195.406 175.429 195.537 175.354 195.588C174.872 195.565 174.493 195.555 174.096 195.555C173.647 195.555 173.357 195.565 172.978 195.588C172.903 195.537 172.894 195.382 172.955 195.321L173.245 195.289C173.492 195.256 173.666 195.191 173.717 195.074C173.867 194.685 173.857 193.376 173.857 192.862V189.756C173.857 189.457 173.848 189.228 173.623 188.985C173.474 188.835 173.217 188.76 172.959 188.728L172.777 188.704C172.712 188.639 172.712 188.48 172.8 188.438C173.249 188.47 173.82 188.47 174.016 188.47C174.189 188.47 174.372 188.461 174.512 188.438C174.727 188.985 175.994 190.402 176.35 190.799L177.393 191.968C178.132 192.796 178.66 193.395 179.165 193.914H179.188C179.23 193.862 179.23 193.689 179.23 193.465V191.169C179.23 190.664 179.221 189.27 179.015 188.947C178.95 188.849 178.782 188.788 178.351 188.732L178.169 188.709C178.094 188.644 178.103 188.475 178.192 188.442C178.688 188.466 179.053 188.475 179.46 188.475C179.923 188.475 180.198 188.466 180.568 188.442C180.652 188.494 180.652 188.648 180.591 188.709L180.442 188.732C180.096 188.784 179.885 188.873 179.838 188.957C179.656 189.345 179.675 190.673 179.675 191.169V193.736L179.665 193.731Z" fill="#1D1D1B"/>
<path d="M187.236 189.864C187.236 189.111 187.184 188.887 186.731 188.821L186.497 188.788C186.413 188.737 186.399 188.564 186.506 188.522C187.418 188.47 188.288 188.438 189.2 188.438C190.112 188.438 190.865 188.503 191.562 188.76C193.011 189.289 193.741 190.509 193.741 191.926C193.741 193.343 193.086 194.461 191.861 195.125C191.164 195.499 190.28 195.639 189.457 195.639C188.77 195.639 188.082 195.555 187.708 195.555C187.259 195.555 186.871 195.565 186.366 195.588C186.301 195.555 186.282 195.382 186.343 195.321L186.59 195.289C187.212 195.205 187.236 195.074 187.236 193.947V189.864ZM188.115 193.699C188.115 194.269 188.148 194.611 188.33 194.868C188.564 195.2 188.975 195.307 189.649 195.307C191.73 195.307 192.665 193.942 192.665 191.945C192.665 190.762 192.095 188.765 189.284 188.765C188.653 188.765 188.307 188.849 188.223 188.915C188.138 188.98 188.115 189.247 188.115 189.733V193.694V193.699Z" fill="#1D1D1B"/>
<path d="M203.547 193.062C203.472 192.828 203.43 192.796 203.107 192.796H201.484C201.218 192.796 201.152 192.828 201.078 193.053L200.703 194.18C200.544 194.662 200.47 194.951 200.47 195.073C200.47 195.204 200.521 195.265 200.783 195.288L201.138 195.321C201.213 195.372 201.213 195.545 201.115 195.587C200.834 195.564 200.502 195.564 199.997 195.555C199.642 195.555 199.258 195.578 198.969 195.587C198.903 195.545 198.884 195.372 198.945 195.321L199.301 195.288C199.558 195.265 199.796 195.148 199.946 194.76C200.138 194.264 200.442 193.567 200.891 192.365L201.985 189.466C202.134 189.078 202.2 188.877 202.167 188.704C202.424 188.629 202.607 188.437 202.724 188.297C202.789 188.297 202.864 188.32 202.883 188.395C203.023 188.867 203.196 189.363 203.355 189.835L204.828 194.152C205.141 195.073 205.277 195.237 205.74 195.288L206.03 195.321C206.105 195.372 206.081 195.545 206.03 195.587C205.59 195.564 205.212 195.555 204.73 195.555C204.216 195.555 203.809 195.578 203.495 195.587C203.411 195.545 203.397 195.372 203.472 195.321L203.785 195.288C204.01 195.265 204.159 195.204 204.159 195.096C204.159 194.98 204.108 194.783 204.019 194.526L203.547 193.067V193.062ZM201.419 192.108C201.335 192.356 201.344 192.365 201.643 192.365H202.962C203.276 192.365 203.294 192.323 203.196 192.033L202.616 190.284C202.532 190.027 202.434 189.737 202.368 189.606H202.345C202.312 189.658 202.205 189.92 202.088 190.238L201.41 192.108H201.419Z" fill="#1D1D1B"/>
<path d="M214.009 193.946C214.009 195.073 214.032 195.237 214.654 195.288L214.995 195.321C215.061 195.363 215.037 195.555 214.972 195.588C214.359 195.564 213.995 195.555 213.564 195.555C213.134 195.555 212.76 195.564 212.073 195.588C212.007 195.555 211.988 195.373 212.073 195.321L212.461 195.288C213.073 195.237 213.125 195.073 213.125 193.946V189.148C213.125 188.816 213.125 188.802 212.802 188.802H212.213C211.75 188.802 211.161 188.826 210.894 189.069C210.637 189.303 210.529 189.541 210.412 189.808C210.328 189.873 210.174 189.817 210.132 189.733C210.305 189.251 210.464 188.564 210.539 188.133C210.571 188.11 210.712 188.101 210.744 188.133C210.81 188.48 211.165 188.466 211.656 188.466H216.005C216.585 188.466 216.684 188.442 216.843 188.166C216.894 188.143 217.016 188.157 217.034 188.199C216.917 188.639 216.843 189.508 216.875 189.831C216.833 189.915 216.651 189.915 216.595 189.854C216.562 189.588 216.487 189.19 216.328 189.069C216.08 188.886 215.673 188.802 215.084 188.802H214.322C213.999 188.802 214.009 188.812 214.009 189.167V193.946Z" fill="#1D1D1B"/>
<path d="M223.455 190.103C223.455 188.966 223.432 188.784 222.801 188.728L222.534 188.704C222.469 188.662 222.492 188.47 222.557 188.438C223.095 188.461 223.46 188.47 223.909 188.47C224.358 188.47 224.704 188.461 225.242 188.438C225.307 188.47 225.326 188.662 225.265 188.704L224.999 188.728C224.367 188.779 224.344 188.962 224.344 190.103V193.928C224.344 195.064 224.367 195.214 224.999 195.293L225.265 195.326C225.331 195.368 225.307 195.56 225.242 195.593C224.704 195.569 224.339 195.56 223.909 195.56C223.46 195.56 223.091 195.569 222.557 195.593C222.492 195.56 222.473 195.387 222.534 195.326L222.801 195.293C223.432 195.219 223.455 195.069 223.455 193.928V190.103Z" fill="#1D1D1B"/>
<path d="M231.144 192.085C231.144 189.938 232.752 188.292 234.964 188.292C237.443 188.292 238.691 190.088 238.691 191.977C238.691 194.147 237.036 195.723 234.964 195.723C232.579 195.723 231.144 194.016 231.144 192.085ZM237.62 192.314C237.62 190.542 236.835 188.629 234.787 188.629C233.669 188.629 232.219 189.391 232.219 191.743C232.219 193.333 232.991 195.396 235.109 195.396C236.4 195.396 237.62 194.428 237.62 192.314Z" fill="#1D1D1B"/>
<path d="M251.28 193.731C251.28 194.054 251.28 195.331 251.312 195.611C251.289 195.677 251.228 195.728 251.107 195.728C250.976 195.546 250.667 195.172 249.732 194.106L247.239 191.272C246.949 190.94 246.22 190.056 245.995 189.822H245.972C245.93 189.953 245.92 190.196 245.92 190.519V192.862C245.92 193.367 245.93 194.76 246.112 195.083C246.178 195.2 246.393 195.265 246.659 195.289L246.991 195.321C247.057 195.406 247.043 195.537 246.968 195.588C246.486 195.565 246.107 195.555 245.71 195.555C245.261 195.555 244.971 195.565 244.592 195.588C244.518 195.537 244.508 195.382 244.569 195.321L244.859 195.289C245.107 195.256 245.28 195.191 245.331 195.074C245.481 194.685 245.471 193.376 245.471 192.862V189.756C245.471 189.457 245.462 189.228 245.238 188.985C245.088 188.835 244.831 188.76 244.574 188.728L244.391 188.704C244.326 188.639 244.326 188.48 244.415 188.438C244.864 188.47 245.434 188.47 245.63 188.47C245.804 188.47 245.986 188.461 246.126 188.438C246.341 188.985 247.609 190.402 247.964 190.799L249.007 191.968C249.746 192.796 250.274 193.395 250.779 193.914H250.803C250.845 193.862 250.845 193.689 250.845 193.465V191.169C250.845 190.664 250.835 189.27 250.63 188.947C250.564 188.849 250.396 188.788 249.966 188.732L249.783 188.709C249.708 188.644 249.718 188.475 249.807 188.442C250.302 188.466 250.667 188.475 251.074 188.475C251.537 188.475 251.813 188.466 252.182 188.442C252.266 188.494 252.266 188.648 252.206 188.709L252.056 188.732C251.71 188.784 251.499 188.873 251.453 188.957C251.27 189.345 251.289 190.673 251.289 191.169V193.736L251.28 193.731Z" fill="#1D1D1B"/>
<path d="M61.5322 185.697H252.425" stroke="#1D1D1B" stroke-width="0.935289" stroke-miterlimit="10"/>
</g>
<defs>
<clipPath id="clip0_4054_4735">
<rect width="333.197" height="308" fill="white"/>
</clipPath>
</defs>
</svg>
