<svg width="74" height="74" viewBox="0 0 74 74" fill="none" xmlns="http://www.w3.org/2000/svg">
<g clip-path="url(#clip0_384_2082)">
<path d="M36.878 0.530945L45.1982 15.0331C45.4449 15.4671 45.9566 15.6773 46.4364 15.5448L62.5742 11.1722L58.2017 27.3101C58.0692 27.7898 58.2839 28.3016 58.7134 28.5483L73.2155 36.8685L58.7134 45.1888C58.2794 45.4355 58.0692 45.9472 58.2017 46.427L62.5742 62.5648L46.4364 58.1922C45.9566 58.0597 45.4449 58.2745 45.1982 58.704L36.878 73.2061L28.5577 58.704C28.311 58.2699 27.7993 58.0597 27.3195 58.1922L11.1817 62.5648L15.5543 46.427C15.6868 45.9472 15.472 45.4355 15.0425 45.1888L0.53125 36.8777L15.0334 28.5574C15.4674 28.3107 15.6776 27.799 15.5451 27.3192L11.1725 11.1814L27.3104 15.554C27.7901 15.6865 28.3019 15.4717 28.5486 15.0422L36.878 0.530945Z" fill="#F37E43"/>
</g>
<defs>
<clipPath id="clip0_384_2082">
<rect width="72.6889" height="72.6889" fill="white" transform="translate(0.53125 0.531006)"/>
</clipPath>
</defs>
</svg>
