<svg width="112" height="112" viewBox="0 0 112 112" fill="none" xmlns="http://www.w3.org/2000/svg">
<g filter="url(#filter0_d_4021_2458)">
<circle cx="56" cy="52" r="52" fill="#111313"/>
</g>
<path d="M65.7778 30.6874C66.4261 30.6874 67.0478 30.9449 67.5063 31.4033C67.9647 31.8618 68.2222 32.4835 68.2222 33.1318V35.5763H73.1111C74.3445 35.5759 75.5325 36.0417 76.4369 36.8804C77.3413 37.719 77.8953 38.8686 77.9878 40.0985L78 40.4652V69.7985C78.0004 71.0319 77.5346 72.2199 76.6959 73.1243C75.8572 74.0287 74.7077 74.5827 73.4778 74.6752L73.1111 74.6874H38.8889C37.6555 74.6878 36.4675 74.2219 35.5631 73.3833C34.6587 72.5446 34.1047 71.3951 34.0122 70.1652L34 69.7985V40.4652C33.9996 39.2317 34.4654 38.0438 35.3041 37.1394C36.1428 36.235 37.2923 35.681 38.5222 35.5885L38.8889 35.5763H43.7778V33.1318C43.7778 32.4835 44.0353 31.8618 44.4937 31.4033C44.9522 30.9449 45.5739 30.6874 46.2222 30.6874C46.8705 30.6874 47.4923 30.9449 47.9507 31.4033C48.4091 31.8618 48.6667 32.4835 48.6667 33.1318V35.5763H63.3333V33.1318C63.3333 32.4835 63.5909 31.8618 64.0493 31.4033C64.5077 30.9449 65.1295 30.6874 65.7778 30.6874ZM62.9031 46.2805L52.5338 56.6498L49.0749 53.1934C48.6139 52.7481 47.9964 52.5017 47.3555 52.5073C46.7145 52.5129 46.1014 52.7699 45.6482 53.2232C45.195 53.6764 44.9379 54.2895 44.9324 54.9304C44.9268 55.5713 45.1732 56.1888 45.6184 56.6498L50.786 61.8198C51.0153 62.0493 51.2876 62.2314 51.5872 62.3556C51.8869 62.4798 52.2081 62.5437 52.5326 62.5437C52.857 62.5437 53.1782 62.4798 53.4779 62.3556C53.7776 62.2314 54.0498 62.0493 54.2791 61.8198L66.3596 49.7369C66.593 49.5114 66.7792 49.2417 66.9074 48.9435C67.0355 48.6452 67.1029 48.3245 67.1057 47.9999C67.1085 47.6753 67.0467 47.3535 66.9238 47.053C66.8009 46.7526 66.6194 46.4797 66.3899 46.2502C66.1603 46.0207 65.8874 45.8392 65.587 45.7163C65.2866 45.5933 64.9647 45.5315 64.6401 45.5343C64.3156 45.5371 63.9948 45.6046 63.6966 45.7327C63.3983 45.8608 63.1286 46.047 62.9031 46.2805Z" fill="#F5F1EA"/>
<defs>
<filter id="filter0_d_4021_2458" x="0" y="0" width="112" height="112" filterUnits="userSpaceOnUse" color-interpolation-filters="sRGB">
<feFlood flood-opacity="0" result="BackgroundImageFix"/>
<feColorMatrix in="SourceAlpha" type="matrix" values="0 0 0 0 0 0 0 0 0 0 0 0 0 0 0 0 0 0 127 0" result="hardAlpha"/>
<feOffset dy="4"/>
<feGaussianBlur stdDeviation="2"/>
<feComposite in2="hardAlpha" operator="out"/>
<feColorMatrix type="matrix" values="0 0 0 0 0 0 0 0 0 0 0 0 0 0 0 0 0 0 0.25 0"/>
<feBlend mode="normal" in2="BackgroundImageFix" result="effect1_dropShadow_4021_2458"/>
<feBlend mode="normal" in="SourceGraphic" in2="effect1_dropShadow_4021_2458" result="shape"/>
</filter>
</defs>
</svg>
