<svg width="112" height="112" viewBox="0 0 112 112" fill="none" xmlns="http://www.w3.org/2000/svg">
<g filter="url(#filter0_d_4021_2463)">
<circle cx="56" cy="52" r="52" fill="#111313"/>
</g>
<path d="M35 79V26H40.3V31.3H77.4L72.1 44.55L77.4 57.8H40.3V79H35ZM54.875 49.85C56.3325 49.85 57.5807 49.3315 58.6195 48.2945C59.6583 47.2574 60.1768 46.0093 60.175 44.55C60.1732 43.0907 59.6547 41.8435 58.6195 40.8082C57.5842 39.7729 56.336 39.2535 54.875 39.25C53.414 39.2465 52.1667 39.7659 51.1332 40.8082C50.0997 41.8505 49.5803 43.0978 49.575 44.55C49.5697 46.0022 50.0891 47.2504 51.1332 48.2945C52.1773 49.3386 53.4246 49.8571 54.875 49.85Z" fill="#F5F1EA"/>
<defs>
<filter id="filter0_d_4021_2463" x="0" y="0" width="112" height="112" filterUnits="userSpaceOnUse" color-interpolation-filters="sRGB">
<feFlood flood-opacity="0" result="BackgroundImageFix"/>
<feColorMatrix in="SourceAlpha" type="matrix" values="0 0 0 0 0 0 0 0 0 0 0 0 0 0 0 0 0 0 127 0" result="hardAlpha"/>
<feOffset dy="4"/>
<feGaussianBlur stdDeviation="2"/>
<feComposite in2="hardAlpha" operator="out"/>
<feColorMatrix type="matrix" values="0 0 0 0 0 0 0 0 0 0 0 0 0 0 0 0 0 0 0.25 0"/>
<feBlend mode="normal" in2="BackgroundImageFix" result="effect1_dropShadow_4021_2463"/>
<feBlend mode="normal" in="SourceGraphic" in2="effect1_dropShadow_4021_2463" result="shape"/>
</filter>
</defs>
</svg>
