<svg width="112" height="112" viewBox="0 0 112 112" fill="none" xmlns="http://www.w3.org/2000/svg">
<g filter="url(#filter0_d_4021_2459)">
<circle cx="56" cy="52" r="52" fill="#111313"/>
</g>
<path d="M71 50.5H41V38H71M67.25 65.5C66.2554 65.5 65.3016 65.1049 64.5983 64.4016C63.8951 63.6984 63.5 62.7446 63.5 61.75C63.5 60.7554 63.8951 59.8016 64.5983 59.0983C65.3016 58.3951 66.2554 58 67.25 58C68.2446 58 69.1984 58.3951 69.9016 59.0983C70.6049 59.8016 71 60.7554 71 61.75C71 62.7446 70.6049 63.6984 69.9016 64.4016C69.1984 65.1049 68.2446 65.5 67.25 65.5ZM44.75 65.5C43.7554 65.5 42.8016 65.1049 42.0983 64.4016C41.3951 63.6984 41 62.7446 41 61.75C41 60.7554 41.3951 59.8016 42.0983 59.0983C42.8016 58.3951 43.7554 58 44.75 58C45.7446 58 46.6984 58.3951 47.4017 59.0983C48.1049 59.8016 48.5 60.7554 48.5 61.75C48.5 62.7446 48.1049 63.6984 47.4017 64.4016C46.6984 65.1049 45.7446 65.5 44.75 65.5ZM36 63C36 65.2 36.975 67.175 38.5 68.55V73C38.5 73.663 38.7634 74.2989 39.2322 74.7678C39.7011 75.2366 40.337 75.5 41 75.5H43.5C44.163 75.5 44.7989 75.2366 45.2678 74.7678C45.7366 74.2989 46 73.663 46 73V70.5H66V73C66 73.663 66.2634 74.2989 66.7322 74.7678C67.2011 75.2366 67.837 75.5 68.5 75.5H71C71.663 75.5 72.2989 75.2366 72.7678 74.7678C73.2366 74.2989 73.5 73.663 73.5 73V68.55C75.025 67.175 76 65.2 76 63V38C76 29.25 67.05 28 56 28C44.95 28 36 29.25 36 38V63Z" fill="#F5F1EA"/>
<defs>
<filter id="filter0_d_4021_2459" x="0" y="0" width="112" height="112" filterUnits="userSpaceOnUse" color-interpolation-filters="sRGB">
<feFlood flood-opacity="0" result="BackgroundImageFix"/>
<feColorMatrix in="SourceAlpha" type="matrix" values="0 0 0 0 0 0 0 0 0 0 0 0 0 0 0 0 0 0 127 0" result="hardAlpha"/>
<feOffset dy="4"/>
<feGaussianBlur stdDeviation="2"/>
<feComposite in2="hardAlpha" operator="out"/>
<feColorMatrix type="matrix" values="0 0 0 0 0 0 0 0 0 0 0 0 0 0 0 0 0 0 0.25 0"/>
<feBlend mode="normal" in2="BackgroundImageFix" result="effect1_dropShadow_4021_2459"/>
<feBlend mode="normal" in="SourceGraphic" in2="effect1_dropShadow_4021_2459" result="shape"/>
</filter>
</defs>
</svg>
