<svg width="112" height="112" viewBox="0 0 112 112" fill="none" xmlns="http://www.w3.org/2000/svg">
<g filter="url(#filter0_d_4021_2464)">
<circle cx="56" cy="52" r="52" fill="#111313"/>
</g>
<path d="M29 71.75V33H34.1667V58.8333H54.8333V38.1667H75.5C78.3417 38.1667 80.7743 39.1785 82.7979 41.2021C84.8215 43.2257 85.8333 45.6583 85.8333 48.5V71.75H80.6667V64H34.1667V71.75H29ZM44.5 56.25C42.3472 56.25 40.5174 55.4965 39.0104 53.9896C37.5035 52.4826 36.75 50.6528 36.75 48.5C36.75 46.3472 37.5035 44.5174 39.0104 43.0104C40.5174 41.5035 42.3472 40.75 44.5 40.75C46.6528 40.75 48.4826 41.5035 49.9896 43.0104C51.4965 44.5174 52.25 46.3472 52.25 48.5C52.25 50.6528 51.4965 52.4826 49.9896 53.9896C48.4826 55.4965 46.6528 56.25 44.5 56.25Z" fill="#F5F1EA"/>
<defs>
<filter id="filter0_d_4021_2464" x="0" y="0" width="112" height="112" filterUnits="userSpaceOnUse" color-interpolation-filters="sRGB">
<feFlood flood-opacity="0" result="BackgroundImageFix"/>
<feColorMatrix in="SourceAlpha" type="matrix" values="0 0 0 0 0 0 0 0 0 0 0 0 0 0 0 0 0 0 127 0" result="hardAlpha"/>
<feOffset dy="4"/>
<feGaussianBlur stdDeviation="2"/>
<feComposite in2="hardAlpha" operator="out"/>
<feColorMatrix type="matrix" values="0 0 0 0 0 0 0 0 0 0 0 0 0 0 0 0 0 0 0.25 0"/>
<feBlend mode="normal" in2="BackgroundImageFix" result="effect1_dropShadow_4021_2464"/>
<feBlend mode="normal" in="SourceGraphic" in2="effect1_dropShadow_4021_2464" result="shape"/>
</filter>
</defs>
</svg>
