<svg width="112" height="112" viewBox="0 0 112 112" fill="none" xmlns="http://www.w3.org/2000/svg">
<g filter="url(#filter0_d_4021_2457)">
<circle cx="56" cy="52" r="52" fill="#111313"/>
</g>
<path d="M56.5 65.5556C57.2398 65.5556 57.8604 65.3049 58.3617 64.8036C58.8631 64.3022 59.1129 63.6825 59.1111 62.9444C59.1094 62.2064 58.8587 61.5867 58.3591 61.0853C57.8595 60.584 57.2398 60.3333 56.5 60.3333C55.7602 60.3333 55.1405 60.584 54.6409 61.0853C54.1413 61.5867 53.8906 62.2064 53.8889 62.9444C53.8871 63.6825 54.1378 64.3031 54.6409 64.8062C55.144 65.3092 55.7637 65.559 56.5 65.5556ZM53.8889 55.1111H59.1111V39.4444H53.8889V55.1111ZM46.7083 76L33 62.2917V42.7083L46.7083 29H66.2917L80 42.7083V62.2917L66.2917 76H46.7083Z" fill="#F5F1EA"/>
<defs>
<filter id="filter0_d_4021_2457" x="0" y="0" width="112" height="112" filterUnits="userSpaceOnUse" color-interpolation-filters="sRGB">
<feFlood flood-opacity="0" result="BackgroundImageFix"/>
<feColorMatrix in="SourceAlpha" type="matrix" values="0 0 0 0 0 0 0 0 0 0 0 0 0 0 0 0 0 0 127 0" result="hardAlpha"/>
<feOffset dy="4"/>
<feGaussianBlur stdDeviation="2"/>
<feComposite in2="hardAlpha" operator="out"/>
<feColorMatrix type="matrix" values="0 0 0 0 0 0 0 0 0 0 0 0 0 0 0 0 0 0 0.25 0"/>
<feBlend mode="normal" in2="BackgroundImageFix" result="effect1_dropShadow_4021_2457"/>
<feBlend mode="normal" in="SourceGraphic" in2="effect1_dropShadow_4021_2457" result="shape"/>
</filter>
</defs>
</svg>
