<svg width="112" height="112" viewBox="0 0 112 112" fill="none" xmlns="http://www.w3.org/2000/svg">
<g filter="url(#filter0_d_4021_2460)">
<circle cx="56" cy="52" r="52" fill="#111313"/>
</g>
<path d="M51.0076 27L45.5152 32.4924V37.9848H37.2766C34.1185 37.9848 32.1137 40.731 31.7842 43.4772L29.038 70.9392C28.7085 73.6854 30.5209 76.4316 34.5304 76.4316H78.4696C82.4791 76.4316 84.2915 73.6854 83.962 70.9392L81.2158 43.4772C80.8863 40.731 78.6344 37.9848 75.7234 37.9848H67.4848V32.4924L61.9924 27H51.0076ZM51.0076 32.4924H61.9924V37.9848H51.0076V32.4924ZM53.7538 46.2234H59.2462V54.462H67.4848V59.9544H59.2462V68.193H53.7538V59.9544H45.5152V54.462H53.7538V46.2234Z" fill="#F5F1EA"/>
<defs>
<filter id="filter0_d_4021_2460" x="0" y="0" width="112" height="112" filterUnits="userSpaceOnUse" color-interpolation-filters="sRGB">
<feFlood flood-opacity="0" result="BackgroundImageFix"/>
<feColorMatrix in="SourceAlpha" type="matrix" values="0 0 0 0 0 0 0 0 0 0 0 0 0 0 0 0 0 0 127 0" result="hardAlpha"/>
<feOffset dy="4"/>
<feGaussianBlur stdDeviation="2"/>
<feComposite in2="hardAlpha" operator="out"/>
<feColorMatrix type="matrix" values="0 0 0 0 0 0 0 0 0 0 0 0 0 0 0 0 0 0 0.25 0"/>
<feBlend mode="normal" in2="BackgroundImageFix" result="effect1_dropShadow_4021_2460"/>
<feBlend mode="normal" in="SourceGraphic" in2="effect1_dropShadow_4021_2460" result="shape"/>
</filter>
</defs>
</svg>
