<svg width="112" height="112" viewBox="0 0 112 112" fill="none" xmlns="http://www.w3.org/2000/svg">
<g filter="url(#filter0_d_4021_2456)">
<circle cx="56" cy="52" r="52" fill="#111313"/>
</g>
<path fill-rule="evenodd" clip-rule="evenodd" d="M55.5 35.5536C54.2348 35.5536 53.0035 35.962 51.9891 36.7181C50.9747 37.4742 50.2315 38.5376 49.8701 39.75H61.1299C60.7685 38.5376 60.0253 37.4742 59.0109 36.7181C57.9965 35.962 56.7652 35.5536 55.5 35.5536ZM47.7853 33.7138C46.1663 35.3326 45.0975 37.4197 44.7303 39.6795L44.7437 39.9078V74.8422C44.7437 74.8959 44.7415 74.9485 44.737 75H66.263L66.2563 74.8422V39.9078L66.2697 39.6795C65.9477 37.697 65.0846 35.8419 63.7757 34.3185C62.4667 32.7951 60.7627 31.6626 58.8513 31.0457C56.9399 30.4288 54.8953 30.3515 52.9428 30.8223C50.9902 31.2931 49.2055 32.2937 47.7853 33.7138ZM70.446 39.75L70.4527 39.9078V74.8422C70.4527 74.8959 70.4505 74.9485 70.446 75H70.6071C71.7093 75 72.8007 74.7829 73.819 74.3611C74.8372 73.9393 75.7624 73.3211 76.5418 72.5418C77.3211 71.7624 77.9394 70.8372 78.3611 69.8189C78.7829 68.8007 79 67.7093 79 66.6071V48.1428C79 45.9169 78.1158 43.7822 76.5418 42.2082C74.9678 40.6342 72.8331 39.75 70.6071 39.75H70.446ZM40.3929 39.75H40.554L40.5473 39.9078V74.8422C40.5473 74.8959 40.5495 74.9485 40.554 75H40.3929C39.2907 75 38.1993 74.7829 37.181 74.3611C36.1628 73.9393 35.2376 73.3211 34.4582 72.5418C33.6789 71.7624 33.0606 70.8372 32.6389 69.8189C32.2171 68.8007 32 67.7093 32 66.6071V48.1428C32 45.9169 32.8842 43.7822 34.4582 42.2082C36.0322 40.6342 38.1669 39.75 40.3929 39.75Z" fill="#F5F1EA"/>
<defs>
<filter id="filter0_d_4021_2456" x="0" y="0" width="112" height="112" filterUnits="userSpaceOnUse" color-interpolation-filters="sRGB">
<feFlood flood-opacity="0" result="BackgroundImageFix"/>
<feColorMatrix in="SourceAlpha" type="matrix" values="0 0 0 0 0 0 0 0 0 0 0 0 0 0 0 0 0 0 127 0" result="hardAlpha"/>
<feOffset dy="4"/>
<feGaussianBlur stdDeviation="2"/>
<feComposite in2="hardAlpha" operator="out"/>
<feColorMatrix type="matrix" values="0 0 0 0 0 0 0 0 0 0 0 0 0 0 0 0 0 0 0.25 0"/>
<feBlend mode="normal" in2="BackgroundImageFix" result="effect1_dropShadow_4021_2456"/>
<feBlend mode="normal" in="SourceGraphic" in2="effect1_dropShadow_4021_2456" result="shape"/>
</filter>
</defs>
</svg>
