<svg width="112" height="112" viewBox="0 0 112 112" fill="none" xmlns="http://www.w3.org/2000/svg">
<g filter="url(#filter0_d_4021_2461)">
<circle cx="56" cy="52" r="52" fill="#111313"/>
</g>
<path d="M58.1743 37.0381C59.2057 36.4531 60.0144 35.5431 60.4742 34.45C60.9339 33.357 61.0189 32.1426 60.7158 30.9962C60.4126 29.8498 59.7385 28.8361 58.7986 28.1131C57.8587 27.3902 56.7059 26.9988 55.5201 27C54.3344 27.0012 53.1824 27.395 52.2439 28.1198C51.3055 28.8446 50.6334 29.8597 50.3327 31.0067C50.0319 32.1537 50.1193 33.368 50.5813 34.4601C51.0432 35.5522 51.8538 36.4606 52.8863 37.0435L52.8595 37.0918C51.1013 40.7612 48.6586 46.017 44.8872 47.9899C41.7896 49.6085 37.3445 48.7952 34.0428 48.1886C33.9898 47.4378 33.7275 46.7169 33.2856 46.1077C32.8437 45.4985 32.2398 45.0253 31.5426 44.7419C30.8454 44.4585 30.0827 44.3762 29.3411 44.5043C28.5994 44.6324 27.9085 44.9658 27.3468 45.4667C26.785 45.9676 26.3749 46.6159 26.163 47.338C25.951 48.0602 25.9457 48.8273 26.1477 49.5523C26.3496 50.2773 26.7507 50.9312 27.3055 51.4398C27.8603 51.9484 28.5465 52.2914 29.2863 52.4297L37.1995 72.857C37.7863 74.3713 38.8174 75.6729 40.1573 76.5907C41.4972 77.5086 43.0833 77.9998 44.7074 78H66.3426C67.9667 77.9998 69.5528 77.5086 70.8927 76.5907C72.2325 75.6729 73.2636 74.3713 73.8504 72.857L81.761 52.4297C82.4961 52.2929 83.1786 51.9541 83.732 51.4512C84.2854 50.9483 84.6879 50.3013 84.8943 49.5825C85.1006 48.8638 85.1028 48.1018 84.9005 47.382C84.6982 46.6621 84.2994 46.0128 83.7489 45.5068C83.1983 45.0008 82.5177 44.6581 81.7834 44.5171C81.049 44.3761 80.2899 44.4424 79.5911 44.7086C78.8923 44.9747 78.2815 45.4302 77.827 46.024C77.3725 46.6178 77.0923 47.3264 77.0179 48.0705C73.6384 48.508 69.2818 49.0663 66.1627 47.437C62.4665 45.5043 59.9889 40.6109 58.1743 37.0381Z" fill="#F5F1EA"/>
<defs>
<filter id="filter0_d_4021_2461" x="0" y="0" width="112" height="112" filterUnits="userSpaceOnUse" color-interpolation-filters="sRGB">
<feFlood flood-opacity="0" result="BackgroundImageFix"/>
<feColorMatrix in="SourceAlpha" type="matrix" values="0 0 0 0 0 0 0 0 0 0 0 0 0 0 0 0 0 0 127 0" result="hardAlpha"/>
<feOffset dy="4"/>
<feGaussianBlur stdDeviation="2"/>
<feComposite in2="hardAlpha" operator="out"/>
<feColorMatrix type="matrix" values="0 0 0 0 0 0 0 0 0 0 0 0 0 0 0 0 0 0 0.25 0"/>
<feBlend mode="normal" in2="BackgroundImageFix" result="effect1_dropShadow_4021_2461"/>
<feBlend mode="normal" in="SourceGraphic" in2="effect1_dropShadow_4021_2461" result="shape"/>
</filter>
</defs>
</svg>
