<svg width="112" height="112" viewBox="0 0 112 112" fill="none" xmlns="http://www.w3.org/2000/svg">
<g filter="url(#filter0_d_4021_2462)">
<circle cx="56" cy="52" r="52" fill="#111313"/>
</g>
<path d="M72.625 26C74.0505 26 75.4177 26.5663 76.4257 27.5743C77.4337 28.5823 78 29.9495 78 31.375V74.375C78 75.8005 77.4337 77.1677 76.4257 78.1757C75.4177 79.1837 74.0505 79.75 72.625 79.75H40.375C38.9495 79.75 37.5823 79.1837 36.5743 78.1757C35.5663 77.1677 35 75.8005 35 74.375V31.375C35 29.9495 35.5663 28.5823 36.5743 27.5743C37.5823 26.5663 38.9495 26 40.375 26H72.625ZM56.5 55.5625H48.4375C47.7247 55.5625 47.0412 55.8456 46.5372 56.3497C46.0331 56.8537 45.75 57.5372 45.75 58.25C45.75 58.9628 46.0331 59.6463 46.5372 60.1503C47.0412 60.6544 47.7247 60.9375 48.4375 60.9375H56.5C57.2128 60.9375 57.8963 60.6544 58.4003 60.1503C58.9044 59.6463 59.1875 58.9628 59.1875 58.25C59.1875 57.5372 58.9044 56.8537 58.4003 56.3497C57.8963 55.8456 57.2128 55.5625 56.5 55.5625ZM64.5625 42.125H48.4375C47.7525 42.1258 47.0937 42.3881 46.5956 42.8583C46.0975 43.3285 45.7977 43.9712 45.7576 44.655C45.7175 45.3388 45.9399 46.0121 46.3796 46.5374C46.8192 47.0627 47.4429 47.4003 48.1231 47.4812L48.4375 47.5H64.5625C65.2475 47.4992 65.9063 47.2369 66.4044 46.7667C66.9025 46.2965 67.2023 45.6538 67.2424 44.97C67.2825 44.2862 67.0601 43.6129 66.6204 43.0876C66.1808 42.5623 65.5571 42.2247 64.8769 42.1438L64.5625 42.125Z" fill="#F5F1EA"/>
<defs>
<filter id="filter0_d_4021_2462" x="0" y="0" width="112" height="112" filterUnits="userSpaceOnUse" color-interpolation-filters="sRGB">
<feFlood flood-opacity="0" result="BackgroundImageFix"/>
<feColorMatrix in="SourceAlpha" type="matrix" values="0 0 0 0 0 0 0 0 0 0 0 0 0 0 0 0 0 0 127 0" result="hardAlpha"/>
<feOffset dy="4"/>
<feGaussianBlur stdDeviation="2"/>
<feComposite in2="hardAlpha" operator="out"/>
<feColorMatrix type="matrix" values="0 0 0 0 0 0 0 0 0 0 0 0 0 0 0 0 0 0 0.25 0"/>
<feBlend mode="normal" in2="BackgroundImageFix" result="effect1_dropShadow_4021_2462"/>
<feBlend mode="normal" in="SourceGraphic" in2="effect1_dropShadow_4021_2462" result="shape"/>
</filter>
</defs>
</svg>
